<svg width="16" height="16" viewBox="0 0 16 16" fill="none" xmlns="http://www.w3.org/2000/svg">
<path d="M10.6666 5.3335C11.7275 5.3335 12.7449 5.75492 13.4951 6.50507C14.2452 7.25521 14.6666 8.27263 14.6666 9.3335V14.0002H12V9.3335C12 8.97987 11.8595 8.64074 11.6094 8.39069C11.3594 8.14064 11.0202 8.00016 10.6666 8.00016C10.313 8.00016 9.97387 8.14064 9.72382 8.39069C9.47377 8.64074 9.33329 8.97987 9.33329 9.3335V14.0002H6.66663V9.3335C6.66663 8.27263 7.08805 7.25521 7.8382 6.50507C8.58834 5.75492 9.60576 5.3335 10.6666 5.3335Z" stroke="white" stroke-opacity="0.7" stroke-width="1.33333" stroke-linecap="round" stroke-linejoin="round"/>
<path d="M4.00004 6H1.33337V14H4.00004V6Z" stroke="white" stroke-opacity="0.7" stroke-width="1.33333" stroke-linecap="round" stroke-linejoin="round"/>
<path d="M2.66671 4.00016C3.40309 4.00016 4.00004 3.40321 4.00004 2.66683C4.00004 1.93045 3.40309 1.3335 2.66671 1.3335C1.93033 1.3335 1.33337 1.93045 1.33337 2.66683C1.33337 3.40321 1.93033 4.00016 2.66671 4.00016Z" stroke="white" stroke-opacity="0.7" stroke-width="1.33333" stroke-linecap="round" stroke-linejoin="round"/>
</svg>
