<svg width="193" height="28" viewBox="0 0 193 28" fill="none" xmlns="http://www.w3.org/2000/svg">
<path d="M14 5.83333C14.0014 5.3667 13.9094 4.90451 13.7296 4.47393C13.5497 4.04336 13.2855 3.6531 12.9526 3.3261C12.6197 2.99911 12.2248 2.74199 11.7911 2.56985C11.3574 2.39772 10.8936 2.31406 10.4271 2.32378C9.96054 2.33351 9.50067 2.43642 9.07449 2.62648C8.64832 2.81653 8.26445 3.08989 7.94547 3.43047C7.62648 3.77105 7.37882 4.17198 7.21706 4.60968C7.05529 5.04737 6.98268 5.513 7.0035 5.97917C6.31773 6.15549 5.68108 6.48556 5.14177 6.94436C4.60245 7.40317 4.17461 7.97869 3.89065 8.62732C3.60669 9.27596 3.47405 9.98071 3.50278 10.6882C3.53152 11.3957 3.72087 12.0874 4.0565 12.7108C3.46637 13.1903 3.00233 13.8066 2.70473 14.5063C2.40712 15.2059 2.28498 15.9677 2.34892 16.7253C2.41286 17.4829 2.66095 18.2135 3.0716 18.8534C3.48226 19.4932 4.04304 20.0231 4.70516 20.3968C4.6234 21.0294 4.67219 21.6721 4.84853 22.2851C5.02487 22.8981 5.32501 23.4685 5.73041 23.9609C6.13582 24.4534 6.63788 24.8576 7.20559 25.1484C7.7733 25.4392 8.3946 25.6106 9.03114 25.6519C9.66767 25.6932 10.3059 25.6036 10.9064 25.3885C11.507 25.1735 12.0571 24.8377 12.5227 24.4017C12.9884 23.9658 13.3597 23.439 13.6138 22.8539C13.8679 22.2688 13.9993 21.6379 14 21V5.83333Z" stroke="#18E0CC" stroke-width="2.33333" stroke-linecap="round" stroke-linejoin="round"/>
<path d="M14 5.83333C13.9986 5.3667 14.0906 4.90451 14.2704 4.47393C14.4503 4.04336 14.7145 3.6531 15.0474 3.3261C15.3803 2.99911 15.7752 2.74199 16.2089 2.56985C16.6426 2.39772 17.1064 2.31406 17.5729 2.32378C18.0395 2.33351 18.4993 2.43642 18.9255 2.62648C19.3517 2.81653 19.7355 3.08989 20.0545 3.43047C20.3735 3.77105 20.6212 4.17198 20.7829 4.60968C20.9447 5.04737 21.0173 5.513 20.9965 5.97917C21.6823 6.15549 22.3189 6.48556 22.8582 6.94436C23.3975 7.40317 23.8254 7.97869 24.1094 8.62732C24.3933 9.27596 24.5259 9.98071 24.4972 10.6882C24.4685 11.3957 24.2791 12.0874 23.9435 12.7108C24.5336 13.1903 24.9977 13.8066 25.2953 14.5063C25.5929 15.2059 25.715 15.9677 25.6511 16.7253C25.5871 17.4829 25.339 18.2135 24.9284 18.8534C24.5177 19.4932 23.957 20.0231 23.2948 20.3968C23.3766 21.0294 23.3278 21.6721 23.1515 22.2851C22.9751 22.8981 22.675 23.4685 22.2696 23.9609C21.8642 24.4534 21.3621 24.8576 20.7944 25.1484C20.2267 25.4392 19.6054 25.6106 18.9689 25.6519C18.3323 25.6932 17.6941 25.6036 17.0935 25.3885C16.493 25.1735 15.9429 24.8377 15.4773 24.4017C15.0116 23.9658 14.6403 23.439 14.3862 22.8539C14.1321 22.2688 14.0007 21.6379 14 21V5.83333Z" stroke="#18E0CC" stroke-width="2.33333" stroke-linecap="round" stroke-linejoin="round"/>
<path d="M17.5 15.1667C16.5205 14.8221 15.6652 14.1948 15.0422 13.3642C14.4192 12.5335 14.0565 11.5368 14 10.5C13.9435 11.5368 13.5808 12.5335 12.9578 13.3642C12.3348 14.1948 11.4795 14.8221 10.5 15.1667" stroke="#18E0CC" stroke-width="2.33333" stroke-linecap="round" stroke-linejoin="round"/>
<path d="M20.5322 7.58333C20.8145 7.09402 20.9742 6.54362 20.9977 5.97917" stroke="#18E0CC" stroke-width="2.33333" stroke-linecap="round" stroke-linejoin="round"/>
<path d="M7.0035 5.97917C7.02657 6.54352 7.18589 7.09391 7.46784 7.58333" stroke="#18E0CC" stroke-width="2.33333" stroke-linecap="round" stroke-linejoin="round"/>
<path d="M4.0565 12.712C4.26993 12.5382 4.49832 12.3836 4.739 12.25" stroke="#18E0CC" stroke-width="2.33333" stroke-linecap="round" stroke-linejoin="round"/>
<path d="M23.261 12.25C23.5017 12.3836 23.7301 12.5382 23.9435 12.712" stroke="#18E0CC" stroke-width="2.33333" stroke-linecap="round" stroke-linejoin="round"/>
<path d="M7 21C6.19597 21.0004 5.40548 20.793 4.70517 20.398" stroke="#18E0CC" stroke-width="2.33333" stroke-linecap="round" stroke-linejoin="round"/>
<path d="M23.2948 20.398C22.5945 20.793 21.804 21.0004 21 21" stroke="#18E0CC" stroke-width="2.33333" stroke-linecap="round" stroke-linejoin="round"/>
<path d="M38.9723 20H36.4411L41.0497 6.90909H43.9773L48.5923 20H46.0611L42.5646 9.59375H42.4624L38.9723 20ZM39.0554 14.8672H45.9588V16.772H39.0554V14.8672ZM52.688 6.90909V20H50.3166V6.90909H52.688ZM61.4723 6.90909L64.8793 17.2131H65.0135L68.4141 6.90909H71.022L66.407 20H63.4794L58.8707 6.90909H61.4723ZM75.9359 20.1918C74.9515 20.1918 74.1014 19.9872 73.3855 19.5781C72.6738 19.1648 72.1262 18.581 71.7427 17.8267C71.3592 17.0682 71.1674 16.1754 71.1674 15.1484C71.1674 14.1385 71.3592 13.2521 71.7427 12.4893C72.1305 11.7223 72.6717 11.1257 73.3663 10.6996C74.0609 10.2692 74.877 10.054 75.8145 10.054C76.4196 10.054 76.9906 10.152 77.5275 10.348C78.0687 10.5398 78.546 10.8381 78.9593 11.2429C79.377 11.6477 79.7051 12.1634 79.9437 12.7898C80.1824 13.4119 80.3017 14.1534 80.3017 15.0142V15.7237H72.2541V14.1641H78.0836C78.0794 13.7209 77.9835 13.3267 77.796 12.9815C77.6085 12.6321 77.3464 12.3572 77.0098 12.157C76.6774 11.9567 76.2896 11.8565 75.8464 11.8565C75.3734 11.8565 74.9579 11.9716 74.6 12.2017C74.242 12.4276 73.9629 12.7259 73.7626 13.0966C73.5666 13.4631 73.4664 13.8658 73.4622 14.3047V15.6662C73.4622 16.2372 73.5666 16.7273 73.7754 17.1364C73.9842 17.5412 74.2761 17.8523 74.6511 18.0696C75.0261 18.2827 75.465 18.3892 75.9679 18.3892C76.3045 18.3892 76.6092 18.3423 76.8819 18.2486C77.1547 18.1506 77.3912 18.0078 77.5914 17.8203C77.7917 17.6328 77.943 17.4006 78.0453 17.1236L80.2058 17.3665C80.0694 17.9375 79.8095 18.4361 79.426 18.8622C79.0467 19.2841 78.5609 19.6122 77.9686 19.8466C77.3762 20.0767 76.6987 20.1918 75.9359 20.1918ZM82.2592 20V10.1818H84.5028V11.8182H84.6051C84.7841 11.2514 85.0909 10.8146 85.5256 10.5078C85.9645 10.1967 86.4652 10.0412 87.0277 10.0412C87.1555 10.0412 87.2983 10.0476 87.456 10.0604C87.6179 10.0689 87.7521 10.0838 87.8587 10.1051V12.2337C87.7607 12.1996 87.6051 12.1697 87.392 12.1442C87.1832 12.1143 86.9808 12.0994 86.7848 12.0994C86.3629 12.0994 85.9837 12.1911 85.647 12.3743C85.3146 12.5533 85.0526 12.8026 84.8608 13.1222C84.669 13.4418 84.5732 13.8104 84.5732 14.228V20H82.2592ZM97.1559 12.777L95.0465 13.0071C94.9869 12.794 94.8825 12.5938 94.7333 12.4062C94.5884 12.2188 94.3924 12.0675 94.1452 11.9524C93.8981 11.8374 93.5955 11.7798 93.2376 11.7798C92.756 11.7798 92.3512 11.8842 92.0231 12.093C91.6992 12.3018 91.5394 12.5724 91.5437 12.9048C91.5394 13.1903 91.6438 13.4226 91.8569 13.6016C92.0742 13.7805 92.4322 13.9276 92.9308 14.0426L94.6055 14.4006C95.5344 14.6009 96.2248 14.9183 96.6765 15.353C97.1325 15.7876 97.3626 16.3565 97.3668 17.0597C97.3626 17.6776 97.1815 18.223 96.8235 18.696C96.4698 19.1648 95.9776 19.5312 95.3469 19.7955C94.7163 20.0597 93.9918 20.1918 93.1737 20.1918C91.9719 20.1918 91.0046 19.9403 90.2717 19.4375C89.5387 18.9304 89.1019 18.2251 88.9613 17.3217L91.2177 17.1044C91.32 17.5476 91.5373 17.8821 91.8697 18.108C92.2021 18.3338 92.6346 18.4467 93.1673 18.4467C93.717 18.4467 94.158 18.3338 94.4904 18.108C94.8271 17.8821 94.9954 17.603 94.9954 17.2706C94.9954 16.9893 94.8867 16.7571 94.6694 16.5739C94.4563 16.3906 94.1239 16.25 93.6722 16.152L91.9975 15.8004C91.0558 15.6044 90.359 15.2741 89.9073 14.8097C89.4556 14.3409 89.2319 13.7486 89.2362 13.0327C89.2319 12.4276 89.396 11.9034 89.7283 11.4602C90.065 11.0128 90.5316 10.6676 91.1282 10.4247C91.729 10.1776 92.4215 10.054 93.2056 10.054C94.3562 10.054 95.2617 10.299 95.9222 10.7891C96.587 11.2791 96.9982 11.9418 97.1559 12.777ZM103.621 20.1918C102.637 20.1918 101.787 19.9872 101.071 19.5781C100.359 19.1648 99.8118 18.581 99.4283 17.8267C99.0447 17.0682 98.853 16.1754 98.853 15.1484C98.853 14.1385 99.0447 13.2521 99.4283 12.4893C99.8161 11.7223 100.357 11.1257 101.052 10.6996C101.746 10.2692 102.562 10.054 103.5 10.054C104.105 10.054 104.676 10.152 105.213 10.348C105.754 10.5398 106.232 10.8381 106.645 11.2429C107.063 11.6477 107.391 12.1634 107.629 12.7898C107.868 13.4119 107.987 14.1534 107.987 15.0142V15.7237H99.9396V14.1641H105.769C105.765 13.7209 105.669 13.3267 105.482 12.9815C105.294 12.6321 105.032 12.3572 104.695 12.157C104.363 11.9567 103.975 11.8565 103.532 11.8565C103.059 11.8565 102.643 11.9716 102.286 12.2017C101.928 12.4276 101.648 12.7259 101.448 13.0966C101.252 13.4631 101.152 13.8658 101.148 14.3047V15.6662C101.148 16.2372 101.252 16.7273 101.461 17.1364C101.67 17.5412 101.962 17.8523 102.337 18.0696C102.712 18.2827 103.151 18.3892 103.653 18.3892C103.99 18.3892 104.295 18.3423 104.567 18.2486C104.84 18.1506 105.077 18.0078 105.277 17.8203C105.477 17.6328 105.629 17.4006 105.731 17.1236L107.891 17.3665C107.755 17.9375 107.495 18.4361 107.112 18.8622C106.732 19.2841 106.246 19.6122 105.654 19.8466C105.062 20.0767 104.384 20.1918 103.621 20.1918ZM114.512 20V6.90909H116.826V11.8054H116.922C117.041 11.5668 117.209 11.3132 117.427 11.0447C117.644 10.772 117.938 10.5398 118.309 10.348C118.68 10.152 119.153 10.054 119.728 10.054C120.486 10.054 121.17 10.2479 121.78 10.6357C122.393 11.0192 122.879 11.5881 123.237 12.3423C123.599 13.0923 123.78 14.0128 123.78 15.1037C123.78 16.1818 123.604 17.098 123.25 17.8523C122.896 18.6065 122.415 19.1818 121.805 19.5781C121.196 19.9744 120.506 20.1726 119.734 20.1726C119.172 20.1726 118.705 20.0788 118.334 19.8913C117.964 19.7038 117.665 19.478 117.439 19.2138C117.218 18.9453 117.045 18.6918 116.922 18.4531H116.787V20H114.512ZM116.781 15.0909C116.781 15.7259 116.871 16.282 117.05 16.7592C117.233 17.2365 117.495 17.6094 117.836 17.8778C118.181 18.142 118.599 18.2741 119.089 18.2741C119.6 18.2741 120.028 18.1378 120.373 17.8651C120.719 17.5881 120.979 17.2109 121.153 16.7337C121.332 16.2521 121.422 15.7045 121.422 15.0909C121.422 14.4815 121.334 13.9403 121.16 13.4673C120.985 12.9943 120.725 12.6236 120.38 12.3551C120.035 12.0866 119.604 11.9524 119.089 11.9524C118.594 11.9524 118.175 12.0824 117.829 12.3423C117.484 12.6023 117.222 12.9666 117.043 13.4354C116.868 13.9041 116.781 14.456 116.781 15.0909ZM126.852 23.6818C126.536 23.6818 126.244 23.6563 125.976 23.6051C125.712 23.5582 125.501 23.5028 125.343 23.4389L125.88 21.6364C126.217 21.7344 126.517 21.7813 126.781 21.777C127.046 21.7727 127.278 21.6896 127.478 21.5277C127.683 21.37 127.855 21.1058 127.996 20.7351L128.194 20.2045L124.634 10.1818H127.088L129.351 17.5966H129.453L131.722 10.1818H134.183L130.252 21.1889C130.069 21.7088 129.826 22.1541 129.524 22.5249C129.221 22.8999 128.85 23.1854 128.411 23.3814C127.977 23.5817 127.457 23.6818 126.852 23.6818ZM140.352 20V6.90909H148.866V8.89702H142.723V12.451H148.425V14.4389H142.723V18.0121H148.917V20H140.352ZM158.943 12.777L156.834 13.0071C156.774 12.794 156.67 12.5938 156.52 12.4062C156.376 12.2188 156.18 12.0675 155.932 11.9524C155.685 11.8374 155.383 11.7798 155.025 11.7798C154.543 11.7798 154.138 11.8842 153.81 12.093C153.486 12.3018 153.327 12.5724 153.331 12.9048C153.327 13.1903 153.431 13.4226 153.644 13.6016C153.861 13.7805 154.219 13.9276 154.718 14.0426L156.393 14.4006C157.322 14.6009 158.012 14.9183 158.464 15.353C158.92 15.7876 159.15 16.3565 159.154 17.0597C159.15 17.6776 158.969 18.223 158.611 18.696C158.257 19.1648 157.765 19.5312 157.134 19.7955C156.503 20.0597 155.779 20.1918 154.961 20.1918C153.759 20.1918 152.792 19.9403 152.059 19.4375C151.326 18.9304 150.889 18.2251 150.748 17.3217L153.005 17.1044C153.107 17.5476 153.324 17.8821 153.657 18.108C153.989 18.3338 154.422 18.4467 154.954 18.4467C155.504 18.4467 155.945 18.3338 156.278 18.108C156.614 17.8821 156.782 17.603 156.782 17.2706C156.782 16.9893 156.674 16.7571 156.456 16.5739C156.243 16.3906 155.911 16.25 155.459 16.152L153.785 15.8004C152.843 15.6044 152.146 15.2741 151.694 14.8097C151.243 14.3409 151.019 13.7486 151.023 13.0327C151.019 12.4276 151.183 11.9034 151.515 11.4602C151.852 11.0128 152.319 10.6676 152.915 10.4247C153.516 10.1776 154.209 10.054 154.993 10.054C156.143 10.054 157.049 10.299 157.709 10.7891C158.374 11.2791 158.785 11.9418 158.943 12.777ZM161.062 23.6818V10.1818H163.338V11.8054H163.472C163.591 11.5668 163.759 11.3132 163.977 11.0447C164.194 10.772 164.488 10.5398 164.859 10.348C165.23 10.152 165.703 10.054 166.278 10.054C167.036 10.054 167.72 10.2479 168.33 10.6357C168.943 11.0192 169.429 11.5881 169.787 12.3423C170.149 13.0923 170.33 14.0128 170.33 15.1037C170.33 16.1818 170.154 17.098 169.8 17.8523C169.446 18.6065 168.965 19.1818 168.355 19.5781C167.746 19.9744 167.056 20.1726 166.284 20.1726C165.722 20.1726 165.255 20.0788 164.884 19.8913C164.514 19.7038 164.215 19.478 163.99 19.2138C163.768 18.9453 163.595 18.6918 163.472 18.4531H163.376V23.6818H161.062ZM163.331 15.0909C163.331 15.7259 163.421 16.282 163.6 16.7592C163.783 17.2365 164.045 17.6094 164.386 17.8778C164.731 18.142 165.149 18.2741 165.639 18.2741C166.15 18.2741 166.578 18.1378 166.923 17.8651C167.269 17.5881 167.529 17.2109 167.703 16.7337C167.882 16.2521 167.972 15.7045 167.972 15.0909C167.972 14.4815 167.884 13.9403 167.71 13.4673C167.535 12.9943 167.275 12.6236 166.93 12.3551C166.585 12.0866 166.154 11.9524 165.639 11.9524C165.144 11.9524 164.725 12.0824 164.379 12.3423C164.034 12.6023 163.772 12.9666 163.593 13.4354C163.419 13.9041 163.331 14.456 163.331 15.0909ZM172.312 20V10.1818H174.626V20H172.312ZM173.475 8.78835C173.109 8.78835 172.794 8.6669 172.529 8.42401C172.265 8.17685 172.133 7.88068 172.133 7.53551C172.133 7.18608 172.265 6.88991 172.529 6.64702C172.794 6.39986 173.109 6.27628 173.475 6.27628C173.846 6.27628 174.161 6.39986 174.421 6.64702C174.686 6.88991 174.818 7.18608 174.818 7.53551C174.818 7.88068 174.686 8.17685 174.421 8.42401C174.161 8.6669 173.846 8.78835 173.475 8.78835ZM177.005 20V10.1818H179.249V11.8182H179.351C179.53 11.2514 179.837 10.8146 180.272 10.5078C180.711 10.1967 181.211 10.0412 181.774 10.0412C181.902 10.0412 182.044 10.0476 182.202 10.0604C182.364 10.0689 182.498 10.0838 182.605 10.1051V12.2337C182.507 12.1996 182.351 12.1697 182.138 12.1442C181.929 12.1143 181.727 12.0994 181.531 12.0994C181.109 12.0994 180.73 12.1911 180.393 12.3743C180.061 12.5533 179.799 12.8026 179.607 13.1222C179.415 13.4418 179.319 13.8104 179.319 14.228V20H177.005ZM188.084 20.1918C187.1 20.1918 186.25 19.9872 185.534 19.5781C184.822 19.1648 184.275 18.581 183.891 17.8267C183.508 17.0682 183.316 16.1754 183.316 15.1484C183.316 14.1385 183.508 13.2521 183.891 12.4893C184.279 11.7223 184.82 11.1257 185.515 10.6996C186.209 10.2692 187.025 10.054 187.963 10.054C188.568 10.054 189.139 10.152 189.676 10.348C190.217 10.5398 190.694 10.8381 191.108 11.2429C191.525 11.6477 191.854 12.1634 192.092 12.7898C192.331 13.4119 192.45 14.1534 192.45 15.0142V15.7237H184.403V14.1641H190.232C190.228 13.7209 190.132 13.3267 189.944 12.9815C189.757 12.6321 189.495 12.3572 189.158 12.157C188.826 11.9567 188.438 11.8565 187.995 11.8565C187.522 11.8565 187.106 11.9716 186.748 12.2017C186.39 12.4276 186.111 12.7259 185.911 13.0966C185.715 13.4631 185.615 13.8658 185.611 14.3047V15.6662C185.611 16.2372 185.715 16.7273 185.924 17.1364C186.133 17.5412 186.425 17.8523 186.8 18.0696C187.175 18.2827 187.613 18.3892 188.116 18.3892C188.453 18.3892 188.758 18.3423 189.03 18.2486C189.303 18.1506 189.54 18.0078 189.74 17.8203C189.94 17.6328 190.091 17.4006 190.194 17.1236L192.354 17.3665C192.218 17.9375 191.958 18.4361 191.574 18.8622C191.195 19.2841 190.709 19.6122 190.117 19.8466C189.525 20.0767 188.847 20.1918 188.084 20.1918Z" fill="white"/>
</svg>
