<svg width="20" height="20" viewBox="0 0 20 20" fill="none" xmlns="http://www.w3.org/2000/svg">
<g clip-path="url(#clip0_220_37)">
<path d="M9.99996 18.3333C14.6023 18.3333 18.3333 14.6024 18.3333 10C18.3333 5.39763 14.6023 1.66667 9.99996 1.66667C5.39759 1.66667 1.66663 5.39763 1.66663 10C1.66663 14.6024 5.39759 18.3333 9.99996 18.3333Z" stroke="white" stroke-opacity="0.9" stroke-width="1.66667" stroke-linecap="round" stroke-linejoin="round"/>
<path d="M10 10.8333C11.3807 10.8333 12.5 9.71405 12.5 8.33333C12.5 6.95262 11.3807 5.83333 10 5.83333C8.61929 5.83333 7.5 6.95262 7.5 8.33333C7.5 9.71405 8.61929 10.8333 10 10.8333Z" stroke="white" stroke-opacity="0.9" stroke-width="1.66667" stroke-linecap="round" stroke-linejoin="round"/>
<path d="M5.83337 17.2183V15.8333C5.83337 15.3913 6.00897 14.9674 6.32153 14.6548C6.63409 14.3423 7.05801 14.1667 7.50004 14.1667H12.5C12.9421 14.1667 13.366 14.3423 13.6786 14.6548C13.9911 14.9674 14.1667 15.3913 14.1667 15.8333V17.2183" stroke="white" stroke-opacity="0.9" stroke-width="1.66667" stroke-linecap="round" stroke-linejoin="round"/>
</g>
<defs>
<clipPath id="clip0_220_37">
<rect width="20" height="20" fill="white"/>
</clipPath>
</defs>
</svg>
