<svg width="48" height="48" viewBox="0 0 48 48" fill="none" xmlns="http://www.w3.org/2000/svg">
<g clip-path="url(#clip0_603_640)">
<path fill-rule="evenodd" clip-rule="evenodd" d="M0 0H48V48H0V0Z" fill="white"/>
<path fill-rule="evenodd" clip-rule="evenodd" d="M38.873 13.8281H31.6193L31.6029 17.3667C29.722 15.203 26.9858 13.8348 23.894 13.8348H13.0853L1.0437 34.3575H9.20432L11.7794 29.9325H17.1836V34.3575L23.8935 34.361C26.9853 34.361 29.7215 32.9842 31.6024 30.8202L31.6009 34.3575H38.5826V29.934H38.8725C43.3202 29.934 46.9258 26.3284 46.9258 21.8809C46.926 17.4337 43.3207 13.8281 38.873 13.8281ZM38.873 27.3947L36.0444 27.3937V31.8188H34.1583V27.3972H30.9011C29.6613 30.0221 26.9898 31.8021 23.8942 31.8021L19.7232 31.8185V27.3935H10.2564L7.64496 31.8185H5.5776L14.6451 16.3843H23.894C27.7871 16.3843 31.0095 19.2209 31.5571 22.9622L34.1581 22.9689V16.3671H38.873C41.9185 16.3671 44.3875 18.8359 44.3875 21.8812C44.3873 24.9259 41.9185 27.3947 38.873 27.3947Z" fill="black"/>
<path fill-rule="evenodd" clip-rule="evenodd" d="M23.8939 18.2461H21.6087V20.7565L23.8939 20.7592C25.7352 20.7592 27.2278 22.2521 27.2278 24.0931C27.2278 25.9346 25.7352 27.3911 23.8939 27.3911C23.8939 27.3911 21.6087 27.3575 21.6087 27.3911V29.9323L23.8939 29.9405C27.1232 29.9405 29.7409 27.3224 29.7409 24.0931C29.7409 20.864 27.1232 18.2461 23.8939 18.2461ZM38.873 18.2556H36.0444V20.7746L38.873 20.7781C39.1654 20.7781 39.4459 20.8943 39.6527 21.1011C39.8595 21.3079 39.9756 21.5883 39.9756 21.8808C39.9756 22.1732 39.8595 22.4537 39.6527 22.6605C39.4459 22.8673 39.1654 22.9834 38.873 22.9834H36.0444V25.4985L38.873 25.4965C40.8704 25.4965 42.4895 23.8777 42.4895 21.8805C42.4895 19.8836 40.8704 18.2556 38.873 18.2556ZM17.1839 22.969H12.8315L11.3444 25.5075H19.7229V18.2538H17.1839V22.969Z" fill="black"/>
</g>
<defs>
<clipPath id="clip0_603_640">
<rect width="48" height="48" fill="white"/>
</clipPath>
</defs>
</svg>
