<svg width="146" height="48" viewBox="0 0 146 48" fill="none" xmlns="http://www.w3.org/2000/svg">
<g clip-path="url(#clip0_603_470)">
<path d="M24.2761 27.1447C24.2761 28.4665 23.1906 29.5429 21.8579 29.5429C20.5252 29.5429 19.4396 28.4665 19.4396 27.1447C19.4396 25.823 20.5252 24.7465 21.8579 24.7465C23.1906 24.7465 24.2761 25.823 24.2761 27.1447ZM21.3957 14.951C21.3957 12.1797 19.128 9.93066 16.3335 9.93066C14.9364 9.93066 13.6789 10.4956 12.7546 11.4016C11.841 12.3076 11.2715 13.5654 11.2715 14.951C11.2715 17.7223 13.5392 19.9713 16.3335 19.9713H21.3957V14.951ZM28.6289 18.0314C27.2962 18.0314 26.2107 19.108 26.2107 20.4296C26.2107 21.7513 27.2962 22.8279 28.6289 22.8279C29.9616 22.8279 31.0472 21.7513 31.0472 20.4296C31.0472 19.108 29.9616 18.0314 28.6289 18.0314Z" fill="#0897B2"/>
<path d="M26.1678 13.7237C26.1464 13.5532 26.1678 13.745 26.0604 13.1694C25.2221 8.59683 21.1809 5.13267 16.3338 5.13267C13.6039 5.13267 11.1319 6.23053 9.33704 8.01056C7.54216 9.79057 6.43515 12.2421 6.43515 14.9495C6.43515 19.7567 9.92817 23.7643 14.5389 24.5957C15.1192 24.7023 14.915 24.6703 15.0978 24.7023C16.4305 24.7023 17.516 25.7789 17.516 27.1006C17.516 28.4223 16.4305 29.4988 15.0978 29.4988C15.0656 29.4988 15.0333 29.4988 15.0011 29.4988C14.9043 29.4988 14.8076 29.4881 14.7109 29.4668C13.2922 29.3176 11.9164 28.9552 10.5945 28.4009C8.84262 27.6655 7.26273 26.6103 5.91927 25.2779C4.56506 23.9349 3.51179 22.3787 2.7702 20.6413C1.99637 18.8399 1.60945 16.9214 1.60945 14.9602C1.60945 12.9882 1.99637 11.0803 2.7702 9.27894C3.51179 7.54158 4.57581 5.97472 5.91927 4.64236C7.27347 3.29935 8.84262 2.25478 10.5945 1.51932C12.4109 0.751882 14.3454 0.368164 16.323 0.368164C18.3006 0.368164 20.2352 0.751882 22.0515 1.51932C23.8034 2.25478 25.3833 3.31001 26.7268 4.64236C28.081 5.98538 29.1342 7.54158 29.8758 9.27894C30.4346 10.59 30.7893 11.9543 30.9505 13.3613C30.9613 13.4573 30.9721 13.5532 30.9828 13.6491C30.9828 13.6811 30.9828 13.713 30.9828 13.745C30.9828 15.0667 29.8973 16.1433 28.5646 16.1433C27.2319 16.1433 26.1678 15.0454 26.1678 13.7237ZM28.6291 24.7236C27.2963 24.7236 26.2109 25.8002 26.2109 27.1219C26.2109 28.4435 27.2963 29.5201 28.6291 29.5201C29.9618 29.5201 31.0473 28.4435 31.0473 27.1219C31.0473 25.8002 29.9618 24.7236 28.6291 24.7236Z" fill="#004059"/>
<path d="M137.427 17.2612C132.72 17.2612 128.894 13.4667 128.894 8.79811C128.894 4.12951 132.72 0.334961 137.427 0.334961C142.135 0.334961 145.961 4.12951 145.961 8.79811C145.961 9.76805 145.166 10.5568 144.188 10.5568H132.763C133.484 12.4221 135.3 13.7545 137.427 13.7545C138.524 13.7545 139.567 13.4027 140.437 12.7525C141.222 12.1663 142.329 12.3155 142.919 13.0936C143.511 13.8717 143.36 14.9695 142.576 15.5558C141.093 16.6644 139.308 17.2612 137.427 17.2612ZM132.763 7.03938H142.092C141.372 5.17409 139.555 3.84173 137.427 3.84173C135.3 3.84173 133.484 5.17409 132.763 7.03938Z" fill="#004059"/>
<path d="M120.338 17.2612C115.631 17.2612 111.805 13.4667 111.805 8.79811C111.805 4.12951 115.631 0.334961 120.338 0.334961C122.531 0.334961 124.605 1.1557 126.196 2.64793C126.905 3.31944 126.938 4.42796 126.271 5.13144C125.594 5.83493 124.476 5.86691 123.767 5.20606C122.832 4.33203 121.617 3.85238 120.338 3.85238C117.587 3.85238 115.351 6.06942 115.351 8.79811C115.351 11.5267 117.587 13.7438 120.338 13.7438C121.617 13.7438 122.832 13.2642 123.767 12.3901C124.476 11.7187 125.594 11.7506 126.271 12.4647C126.948 13.1683 126.916 14.2767 126.196 14.9483C124.616 16.4405 122.531 17.2612 120.338 17.2612Z" fill="#004059"/>
<path d="M64.311 17.1434C63.6125 17.1434 62.9783 16.7383 62.6989 16.1095L56.7017 2.93513C56.304 2.05044 56.6909 1.00588 57.583 0.611498C58.4751 0.21712 59.5283 0.600839 59.926 1.48553L64.311 11.1211L68.6961 1.48553C69.0937 0.600839 70.147 0.206461 71.039 0.611498C71.9311 1.00588 72.3288 2.05044 71.9204 2.93513L65.9339 16.1095C65.6438 16.7383 65.0097 17.1434 64.311 17.1434Z" fill="#004059"/>
<path d="M101.175 0.452148C99.6708 0.452148 98.2632 0.899822 97.0806 1.6566C96.8444 0.953111 96.1891 0.452148 95.4041 0.452148C94.4259 0.452148 93.6307 1.2409 93.6307 2.21086V15.3959C93.6307 16.3658 94.4259 17.1546 95.4041 17.1546C96.3823 17.1546 97.1776 16.3658 97.1776 15.3959V7.93467C97.1776 5.7496 98.9725 3.96957 101.175 3.96957C103.379 3.96957 105.174 5.7496 105.174 7.93467V15.3852C105.174 16.3552 105.969 17.1439 106.948 17.1439C107.925 17.1439 108.72 16.3552 108.72 15.3852V7.93467C108.72 3.80969 105.335 0.452148 101.175 0.452148Z" fill="#004059"/>
<path d="M90.5251 8.79811C90.5251 4.12951 86.6991 0.334961 81.9915 0.334961C77.2841 0.334961 73.4579 4.12951 73.4579 8.79811C73.4579 13.4667 77.2841 17.2612 81.9915 17.2612C83.8616 17.2612 85.5921 16.6537 86.9997 15.6411C87.1294 16.4938 87.8594 17.1439 88.7517 17.1439C89.7299 17.1439 90.5251 16.3552 90.5251 15.3853V8.79811ZM81.9915 13.7438C79.2401 13.7438 77.0046 11.5267 77.0046 8.79811C77.0046 6.06942 79.2401 3.85238 81.9915 3.85238C84.7429 3.85238 86.9782 6.06942 86.9782 8.79811C86.9894 11.5267 84.7429 13.7438 81.9915 13.7438Z" fill="#004059"/>
<path d="M55.1759 8.79811C55.1759 4.12951 51.3498 0.334961 46.6423 0.334961C41.9348 0.334961 38.1086 4.12951 38.1086 8.79811C38.1086 13.4667 41.9348 17.2612 46.6423 17.2612C48.5124 17.2612 50.2427 16.6537 51.6507 15.6411C51.7797 16.4938 52.5104 17.1439 53.4025 17.1439C54.3805 17.1439 55.1759 16.3552 55.1759 15.3853V8.79811ZM46.6423 13.7438C43.8909 13.7438 41.6554 11.5267 41.6554 8.79811C41.6554 6.06942 43.8909 3.85238 46.6423 3.85238C49.3937 3.85238 51.6292 6.06942 51.6292 8.79811C51.6292 11.5267 49.3937 13.7438 46.6423 13.7438Z" fill="#004059"/>
<path d="M52.5646 29.5291C51.9089 29.5291 51.3071 29.3585 50.7374 29.0281C50.1893 28.719 49.7486 28.2819 49.4155 27.7277C49.0823 27.1628 48.9211 26.5552 48.9211 25.9051C48.9211 25.2549 49.0823 24.6579 49.4047 24.1037C49.7164 23.5388 50.1463 23.0911 50.6837 22.7714C51.2533 22.4196 51.8875 22.249 52.5753 22.249C53.5855 22.249 54.4454 22.6114 55.1762 23.3362C55.2837 23.4535 55.3374 23.5814 55.3374 23.72C55.3374 23.8798 55.2837 24.0078 55.1762 24.1143C55.0472 24.221 54.9182 24.2849 54.7785 24.2849C54.6173 24.2849 54.4776 24.2316 54.3701 24.125C53.8757 23.6347 53.2739 23.3895 52.5646 23.3895C51.8766 23.3895 51.2856 23.6347 50.7697 24.1143C50.286 24.6153 50.0388 25.2123 50.0388 25.9051C50.0388 26.5872 50.2753 27.1628 50.7481 27.6638C51.2318 28.1754 51.8337 28.4312 52.543 28.4312C53.2524 28.4312 53.8543 28.186 54.3594 27.6957C54.4776 27.5891 54.6173 27.5359 54.757 27.5465C54.9075 27.5465 55.0365 27.5998 55.1439 27.6851C55.2515 27.7917 55.3051 27.9303 55.3051 28.0795C55.3051 28.2393 55.2515 28.3779 55.1547 28.4845C54.4454 29.1773 53.5641 29.5291 52.5646 29.5291Z" fill="#0897B2"/>
<path d="M59.2064 28.4728C58.4971 27.748 58.1316 26.8953 58.1316 25.904C58.1316 25.2539 58.2928 24.6356 58.626 24.0708C58.9484 23.5165 59.3891 23.0795 59.9479 22.7597C60.5176 22.4293 61.1302 22.2588 61.7966 22.2588C62.4629 22.2588 63.0863 22.4293 63.6452 22.7597C64.204 23.0901 64.6447 23.5272 64.9672 24.0708C65.3003 24.6464 65.4615 25.2539 65.4615 25.904C65.4615 26.6396 65.2573 27.311 64.8489 27.9186C64.4405 28.5261 63.8924 28.9738 63.1938 29.2509C62.5167 29.5388 61.818 29.6027 61.0764 29.4535C60.3564 29.3149 59.733 28.9844 59.2064 28.4728ZM61.7966 28.4302C62.5167 28.4302 63.1186 28.1851 63.6022 27.6948C64.0858 27.1938 64.333 26.5969 64.333 25.904C64.333 25.2006 64.0858 24.6144 63.6022 24.124C63.1078 23.6337 62.506 23.3886 61.7966 23.3886C61.0873 23.3886 60.4854 23.6337 60.0017 24.124C59.5181 24.6037 59.2709 25.2006 59.2709 25.904C59.2709 26.6076 59.5181 27.2044 60.0017 27.6948C60.4638 28.1851 61.0657 28.4302 61.7966 28.4302Z" fill="#0897B2"/>
<path d="M68.976 28.9211V22.8882C68.976 22.7282 69.0297 22.6003 69.1372 22.4938C69.2446 22.3872 69.3736 22.3338 69.5348 22.3338H69.5456C69.5778 22.3338 69.6101 22.3338 69.6315 22.3446L69.7068 22.3658C69.739 22.3765 69.8035 22.4085 69.8788 22.4511L69.9325 22.4938C69.9647 22.5258 69.997 22.5684 70.0292 22.6323L73.3717 27.2689V22.8668C73.3717 22.707 73.4255 22.579 73.533 22.4724C73.6404 22.3658 73.7802 22.3125 73.9306 22.3125C74.0918 22.3125 74.2316 22.3658 74.339 22.4724C74.4465 22.5897 74.5002 22.7176 74.5002 22.8668V28.9211C74.5002 29.049 74.4573 29.1555 74.382 29.2514C74.3068 29.3474 74.2101 29.4114 74.1026 29.4433C74.0918 29.4433 74.0704 29.4433 74.0596 29.4433C74.0488 29.4433 74.0381 29.454 74.0273 29.4647H74.0059H73.9414C73.8124 29.4647 73.6942 29.422 73.5974 29.3367C73.5437 29.3047 73.5114 29.2728 73.5007 29.2514L70.1045 24.5402V28.9211C70.1045 29.0809 70.0507 29.2088 69.9432 29.3154C69.8357 29.422 69.696 29.4753 69.5348 29.4753C69.3736 29.4753 69.2446 29.422 69.1372 29.3154C69.0297 29.2088 68.976 29.0702 68.976 28.9211Z" fill="#0897B2"/>
<path d="M81.0671 29.528C80.519 29.528 80.0138 29.3895 79.5624 29.123C79.1218 28.8673 78.8101 28.5368 78.6274 28.1531C78.5952 28.0678 78.5629 27.9613 78.5521 27.8546C78.5521 27.812 78.5629 27.748 78.5844 27.6734C78.6166 27.5562 78.7134 27.4603 78.8531 27.3856C78.9391 27.343 79.0143 27.3217 79.1003 27.3217C79.2615 27.3217 79.4334 27.4389 79.6162 27.6521C79.9493 28.1637 80.4438 28.4196 81.1101 28.4196C81.4756 28.4196 81.7872 28.3343 82.0344 28.1531C82.3246 27.9613 82.4643 27.7054 82.4643 27.3963C82.4643 27.0979 82.3246 26.8634 82.0344 26.6928C81.8625 26.5969 81.6152 26.5116 81.2821 26.437L81.1209 26.3944C80.39 26.2558 79.8096 26.032 79.412 25.7228C78.9498 25.3498 78.7134 24.8808 78.7134 24.3266C78.7134 23.7296 78.9606 23.2394 79.4442 22.845C79.9064 22.472 80.4438 22.28 81.0778 22.2588C81.5292 22.2588 81.9484 22.344 82.3353 22.5252C82.7438 22.7171 83.0339 22.9836 83.2274 23.3033C83.2704 23.3672 83.2919 23.4419 83.2919 23.5165C83.2919 23.5484 83.2919 23.5804 83.2812 23.6231C83.2381 23.7296 83.1952 23.8256 83.1307 23.8789C83.034 23.9642 82.905 24.0175 82.7545 24.0175C82.6148 24.0175 82.5073 23.9855 82.432 23.9216C82.2172 23.7404 82.0129 23.6018 81.8302 23.5058C81.6152 23.4206 81.368 23.3672 81.0886 23.3672C80.7447 23.3672 80.4545 23.4525 80.2073 23.6231C79.9493 23.783 79.8203 24.0175 79.8203 24.3052C79.8312 24.593 80.0031 24.8276 80.3148 24.9874C80.5405 25.1047 80.9274 25.2112 81.4647 25.3072C82.0989 25.4671 82.5825 25.6909 82.9157 25.9574C83.3564 26.2984 83.5713 26.7568 83.5713 27.3324C83.5713 27.9506 83.3241 28.4728 82.8405 28.8992C82.3568 29.3256 81.7549 29.528 81.0671 29.528Z" fill="#0897B2"/>
<path d="M90.3208 29.5179C89.5581 29.5179 88.9131 29.2621 88.3867 28.7611C87.8705 28.2602 87.6129 27.6527 87.6129 26.9172V22.8882C87.6129 22.7282 87.6661 22.6003 87.7846 22.4831C87.892 22.3765 88.032 22.3125 88.1823 22.3125C88.3437 22.3125 88.4726 22.3658 88.5799 22.4831C88.6873 22.5897 88.7414 22.7282 88.7414 22.8882V26.8958C88.7414 27.3222 88.8917 27.6846 89.1923 27.983C89.504 28.2922 89.8802 28.4414 90.3208 28.4414C90.7613 28.4414 91.1272 28.2922 91.4175 27.983C91.6966 27.6846 91.8366 27.3222 91.8366 26.8958V22.8668C91.8366 22.707 91.8898 22.579 92.0083 22.4724C92.1157 22.3658 92.2445 22.3125 92.3957 22.3125C92.5563 22.3125 92.6851 22.3658 92.8036 22.4724C92.911 22.579 92.9754 22.707 92.9754 22.8668V26.9278C92.9754 27.6739 92.728 28.2922 92.2445 28.7718C91.7181 29.2728 91.0842 29.5179 90.3208 29.5179Z" fill="#0897B2"/>
<path d="M100.66 29.4647H97.6834L97.6405 29.454C97.5117 29.4326 97.4043 29.3687 97.3287 29.2728C97.2429 29.1768 97.1999 29.0596 97.1999 28.9211V22.8774C97.1999 22.7176 97.2532 22.5897 97.3717 22.4724C97.479 22.3658 97.6079 22.3125 97.7582 22.3125C97.9196 22.3125 98.0596 22.3658 98.167 22.4724C98.2743 22.5897 98.3387 22.7176 98.3387 22.8774V28.3668H100.671C100.907 28.3668 101.079 28.484 101.176 28.7185C101.273 28.953 101.241 29.1555 101.079 29.3154C100.94 29.4114 100.811 29.4647 100.66 29.4647Z" fill="#0897B2"/>
<path d="M105.164 28.9211V23.421H103.669C103.509 23.421 103.379 23.3677 103.272 23.2612C103.164 23.1546 103.111 23.0267 103.111 22.8668C103.111 22.707 103.164 22.579 103.272 22.4724C103.379 22.3658 103.509 22.3125 103.669 22.3125H107.775C107.937 22.3125 108.066 22.3658 108.173 22.4724C108.28 22.579 108.335 22.7176 108.335 22.8668C108.335 23.0374 108.28 23.1653 108.173 23.2612C108.055 23.3677 107.915 23.421 107.764 23.421H106.271V28.9211C106.271 29.0809 106.217 29.2088 106.099 29.3154C105.981 29.422 105.852 29.4753 105.69 29.4753C105.529 29.4753 105.4 29.422 105.303 29.3154C105.217 29.2088 105.164 29.0702 105.164 28.9211Z" fill="#0897B2"/>
<path d="M112.429 28.9211V22.8668C112.429 22.707 112.483 22.579 112.59 22.4724C112.697 22.3658 112.826 22.3125 112.988 22.3125C113.149 22.3125 113.288 22.3658 113.396 22.4724C113.504 22.579 113.557 22.707 113.557 22.8668V28.9211C113.557 29.0809 113.504 29.2088 113.396 29.3154C113.288 29.422 113.149 29.4753 112.988 29.4753C112.826 29.4753 112.697 29.422 112.59 29.3154C112.483 29.2088 112.429 29.0702 112.429 28.9211Z" fill="#0897B2"/>
<path d="M118.221 28.9211V22.8882C118.221 22.7282 118.275 22.6003 118.383 22.4938C118.49 22.3872 118.619 22.3338 118.78 22.3338H118.792C118.823 22.3338 118.856 22.3338 118.877 22.3446L118.952 22.3658C118.985 22.3765 119.049 22.4085 119.124 22.4511L119.178 22.4938C119.211 22.5258 119.242 22.5684 119.275 22.6323L122.618 27.2689V22.8668C122.618 22.707 122.671 22.579 122.778 22.4724C122.886 22.3658 123.026 22.3125 123.176 22.3125C123.337 22.3125 123.477 22.3658 123.585 22.4724C123.692 22.5897 123.746 22.7176 123.746 22.8668V28.9211C123.746 29.049 123.714 29.1555 123.628 29.2514C123.552 29.3474 123.456 29.4114 123.349 29.4433C123.337 29.4433 123.316 29.4433 123.306 29.4433C123.294 29.4433 123.284 29.454 123.273 29.4647H123.251H123.187C123.058 29.4647 122.94 29.422 122.843 29.3367C122.789 29.3047 122.757 29.2728 122.746 29.2514L119.35 24.5402V28.9211C119.35 29.0809 119.297 29.2088 119.189 29.3154C119.081 29.422 118.942 29.4753 118.78 29.4753C118.619 29.4753 118.49 29.422 118.383 29.3154C118.275 29.2088 118.221 29.0702 118.221 28.9211Z" fill="#0897B2"/>
<path d="M131.152 29.5291C130.12 29.5291 129.26 29.1773 128.562 28.4631C127.852 27.7597 127.487 26.907 127.487 25.9051C127.487 24.9031 127.831 24.0504 128.53 23.3362C129.238 22.6114 130.109 22.249 131.119 22.249C132.14 22.249 133.011 22.6114 133.742 23.3362C133.861 23.4535 133.903 23.5814 133.903 23.7306C133.903 23.8692 133.849 23.9865 133.742 24.1143C133.613 24.221 133.484 24.2849 133.344 24.2849C133.183 24.2955 133.054 24.2422 132.936 24.125C132.42 23.6347 131.818 23.3895 131.119 23.3895C130.442 23.3895 129.852 23.6347 129.347 24.1143C128.852 24.6046 128.605 25.2015 128.605 25.9051C128.605 26.6085 128.852 27.2055 129.335 27.6957C129.797 28.186 130.388 28.4312 131.13 28.4312C131.668 28.4312 132.119 28.3139 132.485 28.0688C132.861 27.8236 133.108 27.4932 133.247 27.0562H132.066C131.904 27.0562 131.775 27.0029 131.668 26.8963C131.561 26.7897 131.506 26.6511 131.506 26.5019C131.506 26.3421 131.561 26.2142 131.668 26.1075C131.775 26.001 131.915 25.9477 132.066 25.9477L133.903 25.9583C134.064 25.9583 134.204 26.0116 134.323 26.1183C134.43 26.2248 134.494 26.3527 134.494 26.5126C134.451 27.3867 134.107 28.1115 133.463 28.6763C132.828 29.2413 132.054 29.5291 131.152 29.5291Z" fill="#0897B2"/>
<path d="M4.15652 40.8184C4.98409 40.8184 5.76867 41.1382 6.39203 41.6604C6.46726 41.735 6.47801 41.8416 6.40278 41.9162L5.83315 42.5131C5.75792 42.5878 5.67194 42.5878 5.59671 42.5131C5.19904 42.172 4.7154 41.9801 4.21026 41.9801C3.06026 41.9801 2.15745 42.9502 2.15745 44.0906C2.15745 45.2205 3.071 46.1798 4.221 46.1798C4.73689 46.1798 5.13456 46.0198 5.31726 45.9559V45.1778H4.57568C4.47895 45.1778 4.40371 45.1032 4.40371 45.0179V44.3038C4.40371 44.2078 4.47895 44.1333 4.57568 44.1333H6.33829C6.43502 44.1333 6.49951 44.2186 6.49951 44.3038V46.6381C6.49951 46.7127 6.46726 46.7554 6.42427 46.7873C6.42427 46.7873 5.47848 47.3842 4.14577 47.3842C2.31866 47.3842 0.846237 45.9453 0.846237 44.1226C0.856985 42.2893 2.32941 40.8184 4.15652 40.8184Z" fill="#004059"/>
<path d="M8.9279 41.0855C8.9279 40.9896 9.00314 40.915 9.09984 40.915H9.94896C10.0457 40.915 10.1209 41.0003 10.1209 41.0855V46.1912H12.4639C12.5606 46.1912 12.6359 46.2764 12.6359 46.3617V47.1078C12.6359 47.2037 12.5606 47.2784 12.4639 47.2784H9.09984C9.00314 47.2784 8.9279 47.1931 8.9279 47.1078V41.0855Z" fill="#004059"/>
<path d="M17.4189 40.8184C19.2568 40.8184 20.7293 42.2893 20.7293 44.1013C20.7293 45.9239 19.2568 47.3735 17.4189 47.3735C15.5811 47.3735 14.1194 45.9239 14.1194 44.1013C14.1194 42.2893 15.5811 40.8184 17.4189 40.8184ZM17.4189 46.1904C18.5797 46.1904 19.5363 45.2524 19.5363 44.1013C19.5363 42.9502 18.5797 42.0015 17.4189 42.0015C16.2582 42.0015 15.3124 42.9608 15.3124 44.1013C15.3124 45.2524 16.2582 46.1904 17.4189 46.1904Z" fill="#004059"/>
<path d="M26.3074 44.0691C26.8448 44.2503 27.4144 44.6767 27.4144 45.5401C27.4144 46.5633 26.5331 47.2988 25.4153 47.2988H23.1906C23.0938 47.2988 23.0186 47.2135 23.0186 47.1283V41.0954C23.0186 40.9994 23.0938 40.9248 23.1906 40.9248H25.2971C26.3934 40.9248 27.2317 41.6496 27.2317 42.6089C27.2317 43.291 26.791 43.792 26.3181 44.0265V44.0691H26.3074ZM25.1896 43.5895C25.6625 43.5895 25.9634 43.2271 25.9634 42.7688C25.9634 42.3105 25.6625 41.9907 25.1896 41.9907H24.1901V43.5789H25.1896V43.5895ZM25.3186 46.2116C25.7808 46.2116 26.1247 45.8598 26.1247 45.3802C26.1247 44.9218 25.7808 44.5914 25.3186 44.5914H24.1901V46.2116H25.3186Z" fill="#004059"/>
<path d="M28.9405 47.0529L31.7994 40.924C31.8317 40.8708 31.8746 40.8281 31.9606 40.8281H32.0574C32.1541 40.8281 32.1863 40.8708 32.2186 40.924L35.0452 47.0529C35.0989 47.1701 35.0237 47.2874 34.884 47.2874H34.0887C33.9489 47.2874 33.8844 47.2341 33.8199 47.1062L33.3686 46.1256H30.628L30.1766 47.1062C30.1443 47.2021 30.0583 47.2874 29.9078 47.2874H29.1125C28.962 47.2874 28.8868 47.1701 28.9405 47.0529ZM32.9064 45.113L31.9929 43.1092H31.9606L31.0578 45.113H32.9064Z" fill="#004059"/>
<path d="M36.937 41.0855C36.937 40.9896 37.0122 40.915 37.1089 40.915H37.958C38.0547 40.915 38.13 41.0003 38.13 41.0855V46.1912H40.4729C40.5697 46.1912 40.6449 46.2764 40.6449 46.3617V47.1078C40.6449 47.2037 40.5697 47.2784 40.4729 47.2784H37.1089C37.0122 47.2784 36.937 47.1931 36.937 47.1078V41.0855Z" fill="#004059"/>
<path d="M46.835 42.0022H45.4271C45.3303 42.0022 45.2551 41.917 45.2551 41.8317V41.0855C45.2551 40.9896 45.3303 40.915 45.4271 40.915H49.4359C49.5327 40.915 49.608 41.0003 49.608 41.0855V41.8317C49.608 41.9276 49.5327 42.0022 49.4359 42.0022H48.0388V47.1078C48.0388 47.2037 47.9528 47.2784 47.8668 47.2784H47.0178C46.9211 47.2784 46.8458 47.1931 46.8458 47.1078V42.0022H46.835Z" fill="#004059"/>
<path d="M50.5647 47.0529L53.4236 40.924C53.4558 40.8708 53.4989 40.8281 53.5848 40.8281H53.6815C53.7782 40.8281 53.8105 40.8708 53.8427 40.924L56.6694 47.0529C56.7231 47.1701 56.6479 47.2874 56.5082 47.2874H55.7128C55.5731 47.2874 55.5087 47.2341 55.4442 47.1062L54.9928 46.1256H52.2521L51.8007 47.1062C51.7685 47.2021 51.6825 47.2874 51.532 47.2874H50.726C50.5863 47.2874 50.511 47.1701 50.5647 47.0529ZM54.5306 45.113L53.617 43.1092H53.5848L52.682 45.113H54.5306Z" fill="#004059"/>
<path d="M58.561 41.0855C58.561 40.9896 58.6363 40.915 58.733 40.915H59.5821C59.6788 40.915 59.754 41.0003 59.754 41.0855V46.1912H62.097C62.1938 46.1912 62.269 46.2764 62.269 46.3617V47.1078C62.269 47.2037 62.1938 47.2784 62.097 47.2784H58.733C58.6363 47.2784 58.561 47.1931 58.561 47.1078V41.0855Z" fill="#004059"/>
<path d="M64.3011 41.0855C64.3011 40.9896 64.3763 40.915 64.473 40.915H68.2132C68.31 40.915 68.3852 41.0003 68.3852 41.0855V41.8317C68.3852 41.9276 68.31 42.0022 68.2132 42.0022H65.494V43.4944H67.7618C67.8586 43.4944 67.9338 43.5797 67.9338 43.665V44.4218C67.9338 44.5177 67.8477 44.5924 67.7618 44.5924H65.494V46.1805H68.2132C68.31 46.1805 68.3852 46.2658 68.3852 46.351V47.0972C68.3852 47.1931 68.31 47.2677 68.2132 47.2677H64.473C64.3763 47.2677 64.3011 47.1824 64.3011 47.0972V41.0855Z" fill="#004059"/>
<path d="M70.6953 40.988C70.6953 40.8921 70.7812 40.8281 70.8672 40.8281H71.0069C71.0714 40.8281 71.1144 40.8495 71.1681 40.8921L74.9191 44.8572H74.9406V41.0946C74.9406 40.9987 75.0158 40.924 75.1125 40.924H75.9616C76.0583 40.924 76.1336 41.0093 76.1336 41.0946V47.2234C76.1336 47.3194 76.0476 47.3833 75.9616 47.3833H75.8327C75.7682 47.3833 75.7251 47.362 75.6715 47.3194L71.9097 43.2051H71.8882V47.1169C71.8882 47.2128 71.813 47.2874 71.7163 47.2874H70.8779C70.7812 47.2874 70.706 47.2021 70.706 47.1169V40.988H70.6953Z" fill="#004059"/>
<path d="M79.8201 42.0022H78.4121C78.3154 42.0022 78.2402 41.917 78.2402 41.8317V41.0855C78.2402 40.9896 78.3154 40.915 78.4121 40.915H82.421C82.5177 40.915 82.593 41.0003 82.593 41.0855V41.8317C82.593 41.9276 82.5177 42.0022 82.421 42.0022H81.0131V47.1078C81.0131 47.2037 80.9271 47.2784 80.8411 47.2784H79.992C79.8953 47.2784 79.8201 47.1931 79.8201 47.1078V42.0022Z" fill="#004059"/>
<path d="M87.5691 46.67C87.472 46.5954 87.4394 46.5421 87.5261 46.3928L87.8585 45.8279C87.9341 45.7 88.0844 45.7 88.1703 45.764C88.5464 46.0518 88.9552 46.3289 89.5573 46.3289C90.0296 46.3289 90.3955 46.0198 90.3955 45.6254C90.3955 45.1564 89.9978 44.8473 89.224 44.5275C88.3643 44.1865 87.4935 43.6322 87.4935 42.5557C87.4935 41.7456 88.0955 40.8076 89.5573 40.8076C90.4925 40.8076 91.2122 41.2766 91.3951 41.4152C91.4913 41.4685 91.5128 41.6283 91.4484 41.7136L91.1049 42.2359C91.0293 42.3425 90.8901 42.4171 90.7819 42.3425C90.3843 42.0973 90.0081 41.8415 89.5032 41.8415C88.9767 41.8415 88.6976 42.1293 88.6976 42.481C88.6976 42.9074 89.0411 43.1952 89.7831 43.5043C90.6746 43.856 91.7069 44.3889 91.7069 45.5614C91.7069 46.4994 90.8902 47.3628 89.6002 47.3628C88.4391 47.3841 87.837 46.8938 87.5691 46.67Z" fill="#004059"/>
<path d="M96.8659 40.8184C98.7037 40.8184 100.177 42.2893 100.177 44.1013C100.177 45.9239 98.7037 47.3735 96.8659 47.3735C95.028 47.3735 93.5663 45.9239 93.5663 44.1013C93.5663 42.2893 95.028 40.8184 96.8659 40.8184ZM96.8659 46.1904C98.027 46.1904 98.9837 45.2524 98.9837 44.1013C98.9837 42.9502 98.027 42.0015 96.8659 42.0015C95.7056 42.0015 94.7592 42.9608 94.7592 44.1013C94.7592 45.2524 95.7056 46.1904 96.8659 46.1904Z" fill="#004059"/>
<path d="M102.455 41.0855C102.455 40.9896 102.53 40.915 102.627 40.915H103.476C103.572 40.915 103.648 41.0003 103.648 41.0855V46.1912H105.991C106.088 46.1912 106.163 46.2764 106.163 46.3617V47.1078C106.163 47.2037 106.088 47.2784 105.991 47.2784H102.627C102.53 47.2784 102.455 47.1931 102.455 47.1078V41.0855Z" fill="#004059"/>
<path d="M107.978 41.0855C107.978 40.9896 108.064 40.915 108.151 40.915H109.021C109.118 40.915 109.193 41.0003 109.193 41.0855V44.8801C109.193 45.6582 109.73 46.1912 110.525 46.1912C111.321 46.1912 111.869 45.6582 111.869 44.8908V41.0855C111.869 40.9896 111.944 40.915 112.041 40.915H112.911C113.008 40.915 113.084 41.0003 113.084 41.0855V44.944C113.084 46.3297 111.977 47.3743 110.525 47.3743C109.085 47.3743 107.968 46.3297 107.968 44.944V41.0855H107.978Z" fill="#004059"/>
<path d="M116.728 42.0022H115.319C115.223 42.0022 115.148 41.917 115.148 41.8317V41.0855C115.148 40.9896 115.223 40.915 115.319 40.915H119.328C119.425 40.915 119.501 41.0003 119.501 41.0855V41.8317C119.501 41.9276 119.425 42.0022 119.328 42.0022H117.921V47.1078C117.921 47.2037 117.835 47.2784 117.749 47.2784H116.9C116.803 47.2784 116.728 47.1931 116.728 47.1078V42.0022Z" fill="#004059"/>
<path d="M121.628 41.0855C121.628 40.9896 121.714 40.915 121.8 40.915H122.649C122.746 40.915 122.821 41.0003 122.821 41.0855V47.1184C122.821 47.2144 122.735 47.289 122.649 47.289H121.8C121.704 47.289 121.628 47.2037 121.628 47.1184V41.0855Z" fill="#004059"/>
<path d="M128.421 40.8184C130.259 40.8184 131.732 42.2893 131.732 44.1013C131.732 45.9239 130.259 47.3735 128.421 47.3735C126.583 47.3735 125.121 45.9239 125.121 44.1013C125.121 42.2893 126.583 40.8184 128.421 40.8184ZM128.421 46.1904C129.582 46.1904 130.539 45.2524 130.539 44.1013C130.539 42.9502 129.582 42.0015 128.421 42.0015C127.26 42.0015 126.315 42.9608 126.315 44.1013C126.315 45.2524 127.26 46.1904 128.421 46.1904Z" fill="#004059"/>
<path d="M134.01 40.988C134.01 40.8921 134.096 40.8281 134.182 40.8281H134.322C134.386 40.8281 134.429 40.8495 134.483 40.8921L138.234 44.8572H138.255V41.0946C138.255 40.9987 138.331 40.924 138.427 40.924H139.276C139.373 40.924 139.448 41.0093 139.448 41.0946V47.2234C139.448 47.3194 139.362 47.3833 139.276 47.3833H139.147C139.083 47.3833 139.04 47.362 138.986 47.3194L135.224 43.2051H135.203V47.1169C135.203 47.2128 135.128 47.2874 135.031 47.2874H134.193C134.096 47.2874 134.021 47.2021 134.021 47.1169V40.988H134.01Z" fill="#004059"/>
<path d="M141.834 46.67C141.738 46.5954 141.705 46.5421 141.791 46.3928L142.124 45.8279C142.2 45.7 142.35 45.7 142.436 45.764C142.812 46.0518 143.22 46.3289 143.822 46.3289C144.295 46.3289 144.66 46.0198 144.66 45.6254C144.66 45.1564 144.263 44.8473 143.489 44.5275C142.629 44.1865 141.759 43.6322 141.759 42.5557C141.759 41.7456 142.36 40.8076 143.822 40.8076C144.757 40.8076 145.478 41.2766 145.66 41.4152C145.757 41.4685 145.778 41.6283 145.714 41.7136L145.37 42.2359C145.295 42.3425 145.155 42.4171 145.048 42.3425C144.65 42.0973 144.274 41.8415 143.769 41.8415C143.242 41.8415 142.962 42.1293 142.962 42.481C142.962 42.9074 143.307 43.1952 144.048 43.5043C144.94 43.856 145.972 44.3889 145.972 45.5614C145.972 46.4994 145.155 47.3628 143.865 47.3628C142.694 47.3841 142.091 46.8938 141.834 46.67Z" fill="#004059"/>
<path d="M1.60945 35.9668H145.961" stroke="white" stroke-width="0.198374" stroke-miterlimit="10"/>
</g>
<defs>
<clipPath id="clip0_603_470">
<rect width="146" height="48" fill="white"/>
</clipPath>
</defs>
</svg>
