<svg width="48" height="48" viewBox="0 0 48 48" fill="none" xmlns="http://www.w3.org/2000/svg">
<path fill-rule="evenodd" clip-rule="evenodd" d="M20.0008 5.49902C17.455 5.49974 14.9461 6.10798 12.6826 7.27322C10.4191 8.43845 8.4663 10.127 6.98654 12.1986C5.50678 14.2703 4.54275 16.6651 4.17456 19.1842C3.80636 21.7032 4.04464 24.2738 4.86958 26.6823C5.69452 29.0907 7.08231 31.2676 8.91763 33.0319C10.753 34.7962 12.9828 36.0971 15.422 36.8264C17.8611 37.5558 20.4391 37.6925 22.9416 37.2253C25.4442 36.758 27.7992 35.7003 29.8108 34.14L40.5838 44.913L40.7728 45.081C41.1753 45.3875 41.6789 45.5302 42.1823 45.4804C42.6857 45.4306 43.1515 45.1919 43.4861 44.8125C43.8206 44.4331 43.9991 43.941 43.9855 43.4354C43.9719 42.9297 43.7673 42.4479 43.4128 42.087L32.6398 31.311C34.4764 28.9461 35.6124 26.1133 35.9187 23.1347C36.225 20.1562 35.6893 17.1514 34.3726 14.4622C33.0558 11.773 31.0108 9.50731 28.4701 7.92278C25.9295 6.33825 22.9951 5.4985 20.0008 5.49902ZM20.0008 9.50102C23.1834 9.50102 26.2357 10.7653 28.4861 13.0157C30.7366 15.2662 32.0008 18.3184 32.0008 21.501C32.0008 24.6836 30.7366 27.7359 28.4861 29.9863C26.2357 32.2367 23.1834 33.501 20.0008 33.501C16.8183 33.501 13.766 32.2367 11.5156 29.9863C9.26513 27.7359 8.00085 24.6836 8.00085 21.501C8.00085 18.3184 9.26513 15.2662 11.5156 13.0157C13.766 10.7653 16.8183 9.50102 20.0008 9.50102Z" fill="black"/>
</svg>
