<svg width="231" height="48" viewBox="0 0 231 48" fill="none" xmlns="http://www.w3.org/2000/svg">
<g clip-path="url(#clip0_603_581)">
<path d="M140.015 35.3923C138.306 35.3923 136.721 35.0944 135.26 34.5004C133.797 33.9065 132.538 33.0947 131.481 32.0653C130.424 31.0359 129.593 29.8115 128.984 28.3903C128.376 26.9701 128.073 25.4332 128.073 23.7797C128.073 22.1271 128.376 20.5911 128.984 19.17C129.593 17.7497 130.424 16.5244 131.481 15.495C132.538 14.4664 133.797 13.6538 135.26 13.0599C136.721 12.4659 138.306 12.168 140.015 12.168C141.723 12.168 143.308 12.4659 144.77 13.0599C146.231 13.6538 147.491 14.4664 148.548 15.495C149.605 16.5244 150.437 17.7497 151.045 19.17C151.653 20.5912 151.957 22.1271 151.957 23.7797C151.957 25.4332 151.653 26.9701 151.045 28.3903C150.437 29.8115 149.605 31.0359 148.548 32.0653C147.491 33.0947 146.231 33.9065 144.77 34.5004C143.308 35.0944 141.723 35.3923 140.015 35.3923ZM140.015 29.2603C140.796 29.2603 141.519 29.1228 142.186 28.8467C142.852 28.5716 143.424 28.1881 143.902 27.6943C144.379 27.2014 144.755 26.622 145.031 25.9543C145.305 25.2883 145.443 24.5632 145.443 23.7797C145.443 22.9971 145.305 22.2729 145.031 21.606C144.755 20.9392 144.379 20.3588 143.902 19.866C143.424 19.3731 142.852 18.9896 142.186 18.7135C141.519 18.4384 140.796 18.2999 140.015 18.2999C139.233 18.2999 138.509 18.4384 137.843 18.7135C137.177 18.9896 136.605 19.3731 136.128 19.866C135.65 20.3588 135.273 20.9391 134.999 21.606C134.723 22.2728 134.587 22.9971 134.587 23.7797C134.587 24.5632 134.723 25.2883 134.999 25.9543C135.273 26.622 135.65 27.2014 136.128 27.6943C136.605 28.1881 137.177 28.5716 137.843 28.8467C138.509 29.1228 139.233 29.2603 140.015 29.2603Z" fill="#0F0A30"/>
<path d="M101.356 13.7538V33.8065C101.356 34.394 100.88 34.8703 100.294 34.8703H95.5465C95.2532 34.8703 95.0154 34.6322 95.0154 34.3384V33.8432C95.0154 33.3955 94.5037 33.157 94.1539 33.4356C93.5228 33.9381 92.826 34.351 92.0626 34.6745C90.9328 35.1527 89.6884 35.3923 88.3275 35.3923C86.822 35.3923 85.4184 35.0944 84.1148 34.5004C82.8122 33.9065 81.6833 33.0947 80.7281 32.0653C79.772 31.0359 79.0188 29.8115 78.4694 28.3903C77.919 26.9701 77.6443 25.4332 77.6443 23.7797C77.6443 22.1271 77.919 20.5911 78.4694 19.17C79.0188 17.7497 79.772 16.5244 80.7281 15.495C81.6833 14.4664 82.8121 13.6538 84.1148 13.0599C85.4184 12.4659 86.822 12.168 88.3275 12.168C89.6884 12.168 90.9328 12.4076 92.0626 12.8858C92.826 13.2093 93.5228 13.6222 94.1539 14.1247C94.5037 14.4033 95.0154 14.1648 95.0154 13.7171V13.2219C95.0154 12.9281 95.2532 12.69 95.5465 12.69H100.294C100.88 12.69 101.356 13.1663 101.356 13.7538ZM89.5865 29.2603C90.3688 29.2603 91.092 29.1228 91.7579 28.8467C92.4237 28.5716 92.9959 28.1881 93.4735 27.6943C93.9511 27.2014 94.3277 26.622 94.6025 25.9543C94.8772 25.2883 95.0154 24.5632 95.0154 23.7797C95.0154 22.9971 94.8772 22.2729 94.6025 21.606C94.3277 20.9391 93.9511 20.3588 93.4735 19.866C92.996 19.3731 92.4238 18.9896 91.7579 18.7135C91.092 18.4384 90.3688 18.2999 89.5865 18.2999C88.8051 18.2999 88.0883 18.4384 87.4369 18.7135C86.7856 18.9896 86.2216 19.3731 85.744 19.866C85.2655 20.3588 84.8889 20.9391 84.6142 21.606C84.3386 22.2728 84.2021 22.9971 84.2021 23.7797C84.2021 24.5632 84.3386 25.2883 84.6142 25.9543C84.8889 26.622 85.2655 27.2014 85.744 27.6943C86.2216 28.1881 86.7856 28.5716 87.4369 28.8467C88.0883 29.1228 88.8051 29.2603 89.5865 29.2603Z" fill="#0F0A30"/>
<path d="M117.533 12.168C118.807 12.168 119.965 12.3711 121.008 12.7765C122.049 13.1828 122.94 13.7558 123.679 14.4947C124.416 15.2344 124.988 16.119 125.393 17.1476C125.799 18.177 126.002 19.3294 126.002 20.6048V33.8066C126.002 34.3941 125.526 34.8703 124.94 34.8703H120.724C120.137 34.8703 119.662 34.3941 119.662 33.8066V22.7366C119.662 21.3738 119.27 20.2942 118.489 19.4961C117.707 18.699 116.665 18.3 115.362 18.3C114.001 18.3 112.901 18.7063 112.061 19.518C111.222 20.3297 110.802 21.432 110.802 22.8232V33.8066C110.802 34.3941 110.327 34.8703 109.74 34.8703H105.524C104.937 34.8703 104.462 34.3941 104.462 33.8066V13.7538C104.462 13.1663 104.937 12.69 105.524 12.69H110.271C110.564 12.69 110.802 12.9282 110.802 13.2219V13.7062C110.802 14.1591 111.323 14.3936 111.676 14.1104C113.289 12.8157 115.242 12.168 117.533 12.168Z" fill="#0F0A30"/>
<path d="M167.056 12.168C168.59 12.168 170.009 12.4659 171.311 13.0599C172.614 13.6538 173.744 14.4664 174.699 15.495C175.654 16.5244 176.399 17.7497 176.935 19.17C177.471 20.5912 177.739 22.1271 177.739 23.7797C177.739 25.4332 177.471 26.9701 176.935 28.3903C176.399 29.8115 175.654 31.0359 174.699 32.0653C173.744 33.0947 172.614 33.9065 171.311 34.5004C170.009 35.0944 168.59 35.3923 167.056 35.3923C165.694 35.3923 164.45 35.1527 163.321 34.6745C162.558 34.3511 161.861 33.9383 161.23 33.4359C160.88 33.1573 160.368 33.3958 160.368 33.8435V40.2204C160.368 40.808 159.892 41.0183 159.306 41.0183H155.09C154.503 41.0183 154.028 40.542 154.028 39.9545V13.7538C154.028 13.1663 154.503 12.69 155.09 12.69H159.837C160.13 12.69 160.368 12.9281 160.368 13.2219V13.7168C160.368 14.1645 160.88 14.403 161.23 14.1244C161.861 13.6221 162.558 13.2092 163.321 12.8859C164.45 12.4076 165.694 12.168 167.056 12.168ZM165.796 29.2603C166.578 29.2603 167.302 29.1228 167.967 28.8467C168.633 28.5716 169.206 28.1881 169.683 27.6943C170.161 27.2014 170.536 26.622 170.812 25.9543C171.087 25.2883 171.225 24.5632 171.225 23.7797C171.225 22.9971 171.087 22.2729 170.812 21.606C170.536 20.9392 170.161 20.3588 169.683 19.866C169.206 19.3731 168.633 18.9896 167.967 18.7135C167.302 18.4384 166.578 18.2999 165.796 18.2999C165.015 18.2999 164.291 18.4384 163.625 18.7135C162.959 18.9896 162.388 19.3731 161.91 19.866C161.431 20.3588 161.055 20.9391 160.78 21.606C160.505 22.2729 160.368 22.9971 160.368 23.7797C160.368 24.5632 160.505 25.2883 160.78 25.9543C161.055 26.622 161.431 27.2014 161.91 27.6943C162.388 28.1881 162.959 28.5716 163.625 28.8467C164.291 29.1228 165.015 29.2603 165.796 29.2603Z" fill="#0F0A30"/>
<path d="M185.088 12.6904H180.872C180.285 12.6904 179.81 13.1667 179.81 13.7542V33.807C179.81 34.3945 180.285 34.8708 180.872 34.8708H185.088C185.675 34.8708 186.15 34.3945 186.15 33.807V13.7542C186.15 13.1667 185.675 12.6904 185.088 12.6904Z" fill="#0F0A30"/>
<path d="M185.088 6.54199H180.872C180.285 6.54199 179.81 7.01825 179.81 7.60575V9.8604C179.81 10.4479 180.285 10.9242 180.872 10.9242H185.088C185.675 10.9242 186.15 10.4479 186.15 9.8604V7.60575C186.15 7.01825 185.675 6.54199 185.088 6.54199Z" fill="#0F0A30"/>
<path d="M199.722 35.3927C198.159 35.3927 196.733 35.1677 195.445 34.7186C194.157 34.2695 193.056 33.6309 192.144 32.8046C191.232 31.9783 190.522 30.9935 190.017 29.8474C189.509 28.7023 189.256 27.4196 189.256 25.9984V13.7542C189.256 13.1667 189.732 12.6904 190.318 12.6904H194.534C195.121 12.6904 195.597 13.1667 195.597 13.7542V25.1284C195.597 26.3756 195.972 27.3759 196.726 28.1293C197.479 28.8836 198.478 29.2608 199.722 29.2608C200.966 29.2608 201.965 28.8836 202.718 28.1293C203.472 27.3759 203.848 26.3756 203.848 25.1284V13.7542C203.848 13.1667 204.324 12.6904 204.911 12.6904H209.127C209.713 12.6904 210.189 13.1667 210.189 13.7542V25.9984C210.189 27.4196 209.942 28.7023 209.45 29.8474C208.957 30.9935 208.256 31.9783 207.344 32.8046C206.432 33.6309 205.331 34.2695 204.043 34.7186C202.755 35.1677 201.314 35.3927 199.722 35.3927Z" fill="#0F0A30"/>
<path d="M221.359 35.3924C219.245 35.3924 217.408 35.0589 215.844 34.3921C214.67 33.8915 213.627 33.3258 212.715 32.6945C212.225 32.3554 212.114 31.6767 212.463 31.1934L214.161 28.8424C214.502 28.3698 215.155 28.2675 215.632 28.6017C216.249 29.0338 216.913 29.3983 217.624 29.6949C218.667 30.1295 219.839 30.3472 221.142 30.3472C222.184 30.3472 223.031 30.195 223.683 29.8907C224.334 29.5865 224.66 29.1446 224.66 28.5643C224.66 27.9266 224.283 27.4629 223.531 27.1723C222.778 26.8826 221.837 26.6075 220.708 26.346C219.839 26.1438 218.92 25.9115 217.95 25.65C216.98 25.3895 216.097 25.005 215.301 24.4976C214.505 23.9911 213.846 23.3233 213.325 22.497C212.804 21.6707 212.544 20.6048 212.544 19.3003C212.544 18.1123 212.789 17.0683 213.281 16.1691C213.774 15.2709 214.433 14.5239 215.258 13.9299C216.083 13.3359 217.06 12.8931 218.189 12.6025C219.318 12.3137 220.505 12.168 221.75 12.168C223.719 12.168 225.42 12.4659 226.853 13.0599C227.871 13.4821 228.791 13.9447 229.613 14.4479C230.142 14.772 230.279 15.4797 229.915 15.9829L228.197 18.3603C227.879 18.8012 227.277 18.9327 226.809 18.6554C226.219 18.305 225.611 18.0055 224.985 17.757C224.074 17.3944 223.067 17.2132 221.967 17.2132C221.127 17.2132 220.404 17.3371 219.796 17.583C219.188 17.829 218.884 18.2426 218.884 18.822C218.884 19.4606 219.26 19.917 220.013 20.1922C220.765 20.4682 221.707 20.7215 222.836 20.9528C223.704 21.1269 224.616 21.3519 225.572 21.627C226.527 21.903 227.41 22.2948 228.221 22.8013C229.031 23.3096 229.697 23.9692 230.219 24.78C230.74 25.5926 231 26.6502 231 27.9548C231 29.1728 230.754 30.246 230.262 31.1734C229.769 32.1018 229.09 32.877 228.221 33.5001C227.352 34.1242 226.332 34.5952 225.159 34.914C223.986 35.2329 222.72 35.3924 221.359 35.3924Z" fill="#0F0A30"/>
<path d="M71.9164 27.4704C70.8881 28.5998 69.395 29.297 67.7394 29.2569C64.821 29.1862 62.4473 26.7845 62.4051 23.8613C62.3608 20.7985 64.8267 18.3017 67.8749 18.3017C69.4809 18.3017 70.9245 18.9953 71.925 20.0993C72.3346 20.5513 73.0384 20.568 73.4694 20.1364L76.2931 17.3086C76.6997 16.9013 76.7138 16.2422 76.3196 15.8229C74.2317 13.6013 71.2795 12.2036 68.001 12.1686C61.6077 12.1004 56.3249 17.2937 56.28 23.6966C56.2346 30.1482 61.4432 35.3923 67.8749 35.3923C71.2067 35.3923 74.2103 33.9849 76.3253 31.7314C76.7173 31.3137 76.6992 30.6567 76.2944 30.2513L73.4684 27.4211C73.0338 26.9859 72.3305 27.0156 71.9164 27.4704Z" fill="#0F0A30"/>
<path d="M22.2231 6.2663C17.8546 6.68703 13.8075 8.71714 10.8272 11.9829C7.82757 15.2698 6.17554 19.5275 6.17554 23.9716C6.17554 28.4158 7.82757 32.6733 10.8272 35.9604C13.8075 39.2261 17.8546 41.2562 22.2231 41.6768C22.5986 41.713 22.955 41.5975 23.2252 41.3517C23.5014 41.1004 23.6536 40.7469 23.6536 40.3564V38.6223C23.6536 37.9454 23.1537 37.381 22.4908 37.3094C15.6783 36.5738 10.541 30.8397 10.541 23.9716C10.541 17.1035 15.6783 11.3692 22.4908 10.6337C23.1537 10.5621 23.6536 9.99763 23.6536 9.32084V7.58666C23.6536 7.19621 23.5014 6.84261 23.2252 6.59127C22.9548 6.34548 22.599 6.23006 22.2231 6.2663Z" fill="#E582AE"/>
<path d="M47.8946 25.2788C48.2334 18.903 46.0883 12.7695 41.8544 8.00861C37.6561 3.2877 31.8969 0.44475 25.6378 0.00365118C25.2595 -0.0233477 24.9025 0.100108 24.6344 0.350078C24.3669 0.600049 24.2196 0.946604 24.2196 1.32609V3.05558C24.2196 3.71936 24.7758 4.32252 25.4344 4.37247C30.5094 4.75778 35.1808 7.07809 38.5879 10.9057C42.0239 14.7659 43.7834 19.7392 43.5419 24.9101C43.0743 34.9248 34.8747 43.1368 24.8748 43.606C19.7129 43.8479 14.745 42.0863 10.8902 38.6451C7.06783 35.2329 4.75088 30.5546 4.366 25.4719C4.31613 24.8124 3.71398 24.2553 3.05104 24.2553H1.32408C0.945125 24.2553 0.599078 24.4029 0.349632 24.6708C0.0997724 24.9393 -0.0230884 25.2961 0.00358446 25.6756C0.444165 31.9441 3.28295 37.7119 7.99724 41.9163C12.7515 46.1564 18.876 48.3052 25.2426 47.965C31.1251 47.6512 36.681 45.1586 40.8869 40.9463C45.0927 36.734 47.5814 31.1699 47.8946 25.2788Z" fill="#D40075"/>
<path d="M23.9366 29.2775C26.8582 29.2775 29.2351 26.8972 29.2351 23.9714C29.2351 21.0456 26.8582 18.665 23.9366 18.665C21.0151 18.665 18.6383 21.0456 18.6383 23.9714C18.6383 26.8973 21.0151 29.2775 23.9366 29.2775Z" fill="#D40075"/>
<path d="M12.5458 22.1768C12.4873 22.5502 12.596 22.9308 12.844 23.2209C13.0976 23.518 13.4663 23.6882 13.8558 23.6882H15.6217C16.2419 23.6882 16.7812 23.2298 16.904 22.5981C17.5606 19.2194 20.5792 16.7985 23.9637 16.7985C24.2258 16.7985 24.4893 16.8129 24.7548 16.8425C28.0392 17.2096 30.6888 19.8633 31.0551 23.1526C31.4673 26.8526 28.9428 30.3061 25.3079 31.0147C24.6772 31.1376 24.2195 31.6777 24.2195 32.2988V34.0673C24.2195 34.4573 24.3895 34.8266 24.6859 35.0805C24.9759 35.3288 25.3555 35.4378 25.7287 35.3791C31.587 34.4598 35.8516 29.0867 35.4375 23.1467C35.0405 17.4491 30.4507 12.8522 24.7614 12.4537C18.8277 12.038 13.4638 16.3092 12.5458 22.1768Z" fill="#DC4E8F"/>
</g>
<defs>
<clipPath id="clip0_603_581">
<rect width="231" height="48" fill="white"/>
</clipPath>
</defs>
</svg>
