<svg width="259" height="48" viewBox="0 0 259 48" fill="none" xmlns="http://www.w3.org/2000/svg">
<g clip-path="url(#clip0_603_511)">
<path d="M38.9324 0.0839844H0.0771484V18.6179L0.175905 21.9697C0.735746 27.4375 3.00519 32.9526 6.05913 37.2219C9.5117 42.2342 14.7625 45.9534 19.4861 47.9485C23.0741 46.2877 26.3282 44.3175 29.5005 41.1795C35.3984 35.187 38.7562 28.0794 38.9785 20.1646V20.0951L38.9324 0.0839844ZM37.7359 12.2473L37.6967 18.8477L37.6201 21.9067C36.9406 27.0541 35.0394 32.2897 32.146 36.3354C29.093 40.9408 24.0983 44.899 19.5257 46.8706C14.4826 44.8265 8.76743 39.8724 5.81093 34.7485C3.36621 30.8059 1.53332 25.6099 1.28774 20.8458L1.15105 12.0673V1.17362L37.7212 1.13182L37.7343 12.1669V12.2473H37.7359Z" fill="#D31245"/>
<path d="M38.9324 0.0839844H0.0771484V18.6179L0.175905 21.9697C0.735746 27.4375 3.00519 32.9526 6.05913 37.2219C9.5117 42.2342 14.7625 45.9534 19.4861 47.9485C23.0741 46.2877 26.3282 44.3175 29.5005 41.1795C35.3984 35.187 38.7562 28.0794 38.9785 20.1646V20.0951L38.9324 0.0839844ZM37.7359 12.2473L37.6967 18.8477L37.6201 21.9067C36.9406 27.0541 35.0394 32.2897 32.146 36.3354C29.093 40.9408 24.0983 44.899 19.5257 46.8706C14.4826 44.8265 8.76743 39.8724 5.81093 34.7485C3.36621 30.8059 1.53332 25.6099 1.28774 20.8458L1.15105 12.0673V1.17362L37.7212 1.13182L37.7343 12.1669V12.2473H37.7359Z" stroke="#D31245" stroke-width="0.773333" stroke-miterlimit="2" stroke-linecap="square"/>
<path d="M26.8723 40.1269C25.7114 39.7135 24.665 38.4834 24.3232 37.4134L24.3481 37.3177C25.1885 37.8389 26.2663 38.2287 27.2575 38.0041C26.5463 37.7824 25.9773 37.399 25.3396 36.7767C24.4756 35.7869 23.8514 34.8129 23.7735 33.449C23.8527 32.0913 24.2601 31.0137 23.4214 29.9215C23.9642 29.3543 24.2444 28.5468 24.059 27.7566C23.5646 26.8547 23.3004 25.9306 23.612 24.9001C24.1718 23.0503 25.3383 21.3109 27.0489 20.3273L26.5924 20.2999L26.2663 20.2855L25.993 20.2999L25.7209 20.3273C23.8197 20.7185 22.1091 22.0354 21.4704 23.6002L21.4295 23.561C21.0126 22.1536 20.2935 20.552 19.2932 19.3455C18.1807 20.5716 17.4577 22.1471 17.0185 23.7918C16.7477 23.4007 16.3468 22.8978 15.9407 22.5066C14.614 21.3252 13.1114 20.2882 11.4574 20.3273C13.1114 21.6534 13.9999 23.1698 14.6219 24.9971C15.0136 25.8503 14.5983 26.6565 15.0045 27.4558L14.6611 28.1412C14.406 28.8596 14.5797 29.7376 15.1019 30.3035L14.8534 30.9742C14.5247 32.0599 15.2056 33.0013 14.8848 34.0789C14.4286 35.6188 13.1758 37.3425 11.527 37.9084C12.5578 38.1249 13.6228 37.8389 14.5417 37.3347L14.5653 37.3912C14.2383 38.3796 13.5345 39.3549 12.647 40.1112L13.6608 39.7847C15.0833 39.0911 16.6267 37.5016 17.4171 36.1455L17.4577 36.1847C17.2896 37.383 16.9449 38.746 16.3455 39.7451C16.0103 40.3989 15.2818 41.0369 14.7167 41.4529L15.5777 41.1669C16.8975 40.5275 18.4318 39.4248 19.3906 38.0214C20.5172 39.9208 22.5626 41.6276 24.473 41.4686C23.8183 41.142 23.1951 40.5667 22.6915 39.9208C22.0433 38.9481 21.4204 37.7416 21.3334 36.5288C22.7719 38.5229 24.731 40.1752 26.8723 40.1269ZM25.2408 37.223L25.4328 37.4199C24.9684 37.1734 24.2837 36.8713 23.9341 36.3724L23.7948 35.7856L23.6921 34.8616C24.0904 35.6991 24.4256 36.4789 25.2408 37.223ZM17.5617 24.8606C17.5404 23.4849 18.4936 21.3161 19.2915 20.1912L19.4864 20.4393C20.0937 21.4209 20.8354 23.3442 20.9577 24.8815L20.9681 25.8885L20.8972 27.1264L20.835 27.5345L20.5656 28.5641L20.4354 27.7236L20.3318 27.414C20.1159 27.095 19.6231 25.9512 19.6231 25.1796L19.5705 25.1404L19.5443 25.1874L19.5231 25.3069L19.4217 28.3329C19.3864 28.5719 19.4325 28.791 19.2353 28.8279L19.1797 28.7319L19.3311 26.7995V22.7943L19.3036 22.7456H19.251L19.167 22.8309L19.1048 25.1535C19.0917 25.3448 19.0947 25.5838 19.0525 25.7873C18.8658 26.6999 18.7356 27.5048 18.1781 28.073C18.1297 28.1004 18.0466 28.3433 18.0192 28.3724L17.8982 28.9118C17.6022 28.1451 17.4763 27.0307 17.4511 26.2718L17.5617 24.8606ZM13.1572 37.4477L13.1258 37.3912C14.1091 36.7688 14.6127 35.7935 15.0597 34.9007L15.1006 34.9807L14.9479 36.1295C14.4116 36.727 13.7883 37.2073 13.1572 37.4477ZM14.3707 38.7695H14.3076C15.1464 37.6759 15.5869 36.1282 15.6369 34.7864V33.7902L15.1938 31.8183V30.7825L15.4423 30.2862C15.6581 30.3744 15.8655 30.4779 16.114 30.3257C16.4256 30.1102 16.4256 29.7442 16.4413 29.4238C16.0012 28.8002 17.2409 28.4024 16.5532 27.8509C16.2415 27.7474 16.2415 27.2697 15.8815 27.2932C15.7049 27.4049 15.3701 27.2211 15.3305 26.9729C15.1542 26.6144 15.3305 26.1667 15.3462 25.8398C15.1781 24.2513 14.3799 22.839 13.39 21.626L13.1258 21.2031C14.7955 21.9685 16.6506 23.8366 16.978 25.7833L17.2092 27.0846V28.3855L16.8661 29.4395C17.2814 29.958 17.6261 30.856 17.801 31.8813L17.8573 32.8149C17.6248 35.2828 16.3547 36.9422 14.3707 38.7695ZM17.0162 39.7451H16.9606C17.4946 38.7946 17.8707 37.6142 18.128 36.3198V34.9246C18.3913 35.6756 18.7042 36.5523 18.9907 37.2782C18.5672 38.1249 17.8406 38.9624 17.0162 39.7451ZM22.597 40.3989L22.5011 40.4145C21.2376 39.7608 20.095 38.2522 19.5679 37.0643C18.8962 35.6031 18.4649 33.8953 18.0888 32.0678L18.0218 31.5045V30.9664L18.0888 30.0958C18.249 30.3035 18.5123 30.6238 18.8184 30.6869C19.1127 30.7747 19.2088 30.3127 19.473 30.3822C19.6719 30.6 19.8952 30.7022 20.1598 30.5739C20.391 30.4139 20.5129 30.0867 20.5185 29.8346L20.6169 30.1001L20.717 31.271L20.6565 31.7435L20.458 33.0196L20.408 34.566L20.5185 35.4731C20.5685 36.6323 21.3965 38.9703 22.597 40.3989ZM21.0208 33.735V31.9718C20.9168 30.8233 21.7713 29.6181 21.2928 28.3486L21.2467 27.6844V26.9954L21.2925 26.4175C21.6768 24.0073 22.8507 21.8124 25.0332 21.0389L25.4014 20.9419L25.4724 20.9589C24.2009 22.0854 23.5541 23.3376 23.1545 24.8289C22.923 25.8111 23.6185 26.8165 22.7458 27.6622C22.4982 27.8774 22.0263 28.0047 22.0999 28.3724C22.4577 28.9066 22.163 29.6011 21.9789 30.1367C21.9475 30.2392 22.0908 30.4635 22.234 30.4544C22.5708 30.5109 22.7062 30.1605 23.0018 30.041C23.3936 30.36 23.4017 30.9429 23.4567 31.414V32.4103L23.2647 34.2705C23.2255 35.8591 23.801 37.7259 24.8556 39.0976L24.8399 39.1541C24.2641 38.8668 23.679 38.3166 23.1689 37.8297C21.8609 36.6085 21.2788 35.4193 21.0208 33.735ZM16.5927 16.8537C14.5179 17.5313 13.168 17.5313 11.0378 16.8511C8.6124 16.0779 6.90966 16.0792 4.53394 16.8537C3.41654 17.2188 2.37404 17.3856 1.4365 17.35C1.21938 17.3424 1.00806 17.4209 0.848873 17.5686C0.689683 17.7162 0.595604 17.9208 0.587258 18.1376C0.579478 18.3545 0.658144 18.5656 0.806004 18.7246C0.953863 18.8836 1.15885 18.9776 1.376 18.986C2.50811 19.0278 3.74257 18.8335 5.04276 18.4096C7.09769 17.7386 8.43483 17.7386 10.5424 18.4109C12.9891 19.1907 14.7059 19.1907 17.1016 18.4096C19.1565 17.7386 20.492 17.7386 22.6009 18.4109C25.0489 19.1907 26.766 19.1907 29.16 18.4096C31.215 17.7386 32.5521 17.7386 34.6607 18.4109C35.8716 18.7982 36.9589 18.9856 37.9844 18.9856C38.092 18.9858 38.1986 18.9648 38.2981 18.9238C38.3975 18.8828 38.4879 18.8226 38.564 18.7466C38.6401 18.6707 38.7004 18.5805 38.7415 18.4812C38.7827 18.3819 38.8037 18.2754 38.8036 18.168C38.8036 18.0606 38.7825 17.9542 38.7414 17.8549C38.7002 17.7556 38.6399 17.6654 38.5638 17.5894C38.4877 17.5134 38.3974 17.4532 38.298 17.4121C38.1986 17.371 38.092 17.35 37.9844 17.35C37.1309 17.35 36.2055 17.1874 35.159 16.8524C32.7006 16.0687 31.0583 16.0687 28.6525 16.8537C26.578 17.5313 25.2287 17.5313 23.1006 16.8511C20.6395 16.0687 18.9972 16.0687 16.5927 16.8537Z" fill="#D31245"/>
<path d="M16.632 14.2453C14.5575 14.9225 13.2089 14.9225 11.08 14.2427C8.64906 13.4695 6.94795 13.4695 4.57485 14.2453C3.47446 14.6035 2.38584 14.7756 1.42738 14.74C1.21247 14.7361 1.00461 14.8165 0.848545 14.9641C0.692485 15.1117 0.600715 15.3146 0.592997 15.5291C0.58528 15.7436 0.662232 15.9525 0.807283 16.1109C0.952334 16.2693 1.15388 16.3645 1.36852 16.3759C2.51599 16.4167 3.80179 16.2182 5.08236 15.8009C7.13729 15.1289 8.47182 15.1302 10.5804 15.8022C13.0284 16.5833 14.7468 16.582 17.1395 15.8009C19.1958 15.1289 20.5316 15.1289 22.6405 15.8022C25.0872 16.5833 26.8053 16.582 29.1983 15.8009C31.2546 15.1289 32.5901 15.1289 34.699 15.8022C35.9691 16.2065 36.9707 16.3867 37.9504 16.3867C38.1676 16.3864 38.3758 16.3 38.5293 16.1466C38.6828 15.9932 38.7691 15.7853 38.7693 15.5684C38.7689 15.3517 38.6825 15.1439 38.529 14.9906C38.3756 14.8374 38.1675 14.7511 37.9504 14.7508C37.147 14.7508 36.299 14.5944 35.197 14.2427C32.7389 13.459 31.0966 13.459 28.6908 14.2453C26.6159 14.9225 25.267 14.9225 23.1385 14.2427C20.6814 13.459 19.0395 13.459 16.632 14.2453Z" fill="#D31245"/>
<path d="M16.5676 11.6205C14.493 12.2977 13.1441 12.2977 11.0143 11.6192C8.58593 10.8447 6.88352 10.8447 4.50911 11.6205C3.49538 11.9513 2.16248 12.1404 1.1118 12.1022C0.894478 12.0947 0.68307 12.1736 0.523891 12.3216C0.364712 12.4695 0.270739 12.6744 0.262559 12.8914C0.258669 12.9988 0.276027 13.1059 0.313642 13.2066C0.351256 13.3073 0.408388 13.3997 0.481768 13.4783C0.555149 13.5569 0.643338 13.6204 0.74129 13.6649C0.839242 13.7095 0.945034 13.7344 1.05261 13.7381C2.29656 13.7828 3.81748 13.5673 5.01924 13.1764C7.07417 12.5054 8.40869 12.5054 10.5173 13.1774C12.9652 13.9585 14.6824 13.9572 17.0764 13.1761C19.1326 12.5054 20.4685 12.5054 22.5761 13.1774C25.0241 13.9585 26.7422 13.9572 29.1365 13.1761C31.1915 12.5054 32.527 12.5054 34.6358 13.1774C35.8229 13.5555 36.7722 13.7906 37.8216 13.7906C38.0388 13.7906 38.2472 13.7045 38.4008 13.5511C38.5544 13.3977 38.6407 13.1896 38.6407 12.9727C38.6407 12.7557 38.5544 12.5477 38.4008 12.3943C38.2472 12.2409 38.0388 12.1547 37.8216 12.1547C36.9854 12.1547 36.1728 11.95 35.1342 11.6192C32.6758 10.8342 31.0335 10.8355 28.6277 11.6205C26.5528 12.2977 25.2039 12.2977 23.0754 11.6192C20.6156 10.8342 18.9734 10.8355 16.5676 11.6205ZM25.9361 2.43489L25.337 2.6504C23.9145 3.05726 22.5234 1.80468 21.1009 1.86019C20.6052 1.89938 20.0306 2.0437 19.648 2.39407C19.3024 2.18673 18.8632 1.91636 18.4149 1.91636C16.8648 1.65252 15.0663 3.49579 13.4845 2.52926C12.5735 2.77742 11.8861 3.39195 10.7027 3.25677V10.4062H17.3459C17.8799 9.94411 18.4018 9.57677 19.0486 9.46477C20.0228 9.27309 21.0221 9.56991 21.716 10.368H28.3896V3.14509C27.4969 3.33938 26.663 2.68958 25.9361 2.43489ZM12.6444 3.15979L12.9339 3.04942V8.37252L12.6444 8.58803V3.15946V3.15979ZM11.9505 3.39162L12.2187 3.29856L12.2213 3.39195V8.93024L11.9532 9.16403L11.9505 9.02624V3.39195V3.39162ZM11.5114 9.48077L11.2206 9.70934L11.222 9.46477V3.70313L11.4862 3.57971L11.5114 3.62444V9.48077ZM19.3102 9.0726C19.0826 9.1144 18.9551 9.14967 18.7883 9.22085C17.8063 8.63799 16.8305 9.72599 15.4397 9.94901L14.409 10.0963C12.9852 10.2628 12.4934 9.58297 11.5558 9.78771L11.9057 9.45693C12.237 9.20485 12.7314 9.38085 13.3557 9.54771L14.2092 9.6042C15.4355 9.72338 16.8465 8.84664 18.1349 8.68664C18.5254 8.66281 19.0473 8.80844 19.3511 9.07228L19.3102 9.0726ZM19.3272 8.52077C17.2988 7.69791 15.5908 9.83669 13.5477 9.1526L12.5339 9.03179C12.6788 8.89922 12.9231 8.75195 13.0271 8.67326L14.5588 8.89922L15.3449 8.79277C15.7998 8.77579 17.217 8.09824 18.0571 7.98656C18.5215 7.96305 18.9672 7.99473 19.3429 8.17693C19.3668 8.28207 19.392 8.42477 19.3272 8.52077ZM19.3916 7.68616C17.785 7.11897 16.306 8.50803 14.6758 8.49203L13.373 8.31636V2.99293C13.565 2.9126 13.7556 3.12811 14.0042 3.15946C15.186 3.47979 16.3864 2.49007 17.647 2.32354C18.3109 2.27456 18.9171 2.38624 19.3903 2.77742V7.68616H19.3916ZM26.8932 3.36158L26.8962 3.26852L27.1643 3.36158V8.9962L27.1617 9.1353L26.8936 8.9002V3.36191L26.8932 3.36158ZM26.1813 3.01905L26.4691 3.13073V8.55766L26.1813 8.34215V3.01938V3.01905ZM19.7742 2.76207C20.1425 2.4904 20.717 2.3157 21.1415 2.28305C22.7154 2.14787 24.218 3.73611 25.7196 2.91326L25.785 2.93807L25.7827 8.29154L25.0241 8.45056L24.631 8.50411H24.3298L23.8655 8.41236C22.426 8.01334 21.1545 7.16011 19.7746 7.72566L19.7742 2.76207ZM19.7795 8.17595C20.1555 7.99081 20.6026 7.95946 21.0653 7.9833C21.9067 8.09464 23.3239 8.7735 23.7788 8.78918L24.5653 8.89562L26.0966 8.66967C26.1993 8.74967 26.4439 8.89562 26.5898 9.0282L25.576 9.14901C23.5332 9.83277 21.8239 7.69562 19.7968 8.51881C19.7324 8.4215 19.7559 8.27848 19.7795 8.17595ZM24.6876 10.0731L23.6477 9.94967C22.254 9.72632 21.3138 8.66183 20.3318 9.24469C20.1634 9.17252 20.0358 9.13824 19.8099 9.09644H19.7706C20.0728 8.8313 20.596 8.68534 20.9878 8.70918C22.2749 8.86918 23.6869 9.74754 24.9122 9.62803L25.7667 9.57154C26.3913 9.40338 26.8844 9.22771 27.2153 9.48109L27.5652 9.81187C26.6267 9.60713 26.1127 10.2396 24.6876 10.0731ZM27.6045 9.45203V3.59407L27.6284 3.54836L27.8926 3.67407V9.43636L27.8952 9.6806L27.6045 9.45203Z" fill="#D31245"/>
<path d="M25.9361 2.43489L25.337 2.6504C23.9145 3.05726 22.5234 1.80468 21.1009 1.86019C20.6051 1.89938 20.0306 2.0437 19.648 2.39407C19.3023 2.18673 18.8632 1.91636 18.4148 1.91636C16.8648 1.65252 15.0663 3.49579 13.4845 2.52926C12.5735 2.77742 11.8861 3.39195 10.7026 3.25677V10.4062H17.3458C17.8798 9.94411 18.4017 9.57677 19.0486 9.46477C20.0227 9.27309 21.0221 9.56991 21.716 10.368H28.3896V3.14509C27.4969 3.33938 26.663 2.68958 25.9361 2.43489ZM12.6444 3.15979L12.9338 3.04942V8.37252L12.6444 8.58803V3.15946V3.15979ZM11.9505 3.39162L12.2187 3.29856L12.2213 3.39195V8.93024L11.9531 9.16403L11.9505 9.02624V3.39195V3.39162ZM11.5113 9.48077L11.2206 9.70934L11.2219 9.46477V3.70313L11.4862 3.5797L11.5113 3.62444V9.48077ZM19.3102 9.0726C19.0826 9.1144 18.9551 9.14966 18.7883 9.22085C17.8063 8.63799 16.8305 9.72599 15.4397 9.94901L14.409 10.0963C12.9852 10.2628 12.4933 9.58297 11.5558 9.78771L11.9057 9.45693C12.237 9.20485 12.7314 9.38085 13.3557 9.54771L14.2092 9.6042C15.4354 9.72338 16.8465 8.84664 18.1349 8.68664C18.5254 8.66281 19.0473 8.80844 19.3511 9.07228L19.3102 9.0726ZM19.3272 8.52077C17.2987 7.69791 15.5908 9.83669 13.5476 9.1526L12.5339 9.03179C12.6788 8.89922 12.923 8.75195 13.027 8.67326L14.5587 8.89922L15.3449 8.79277C15.7997 8.77579 17.217 8.09824 18.0571 7.98656C18.5214 7.96305 18.9671 7.99473 19.3429 8.17693C19.3668 8.28207 19.3919 8.42477 19.3272 8.52077ZM19.3916 7.68615C17.785 7.11897 16.3059 8.50803 14.6758 8.49203L13.373 8.31636V2.99293C13.565 2.9126 13.7556 3.12811 14.0041 3.15946C15.1859 3.47979 16.3864 2.49007 17.647 2.32354C18.3108 2.27456 18.9171 2.38624 19.3903 2.77742V7.68615H19.3916ZM26.8932 3.36158L26.8962 3.26852L27.1643 3.36158V8.9962L27.1617 9.1353L26.8935 8.90019V3.36191L26.8932 3.36158ZM26.1813 3.01905L26.4691 3.13073V8.55766L26.1813 8.34215V3.01938V3.01905ZM19.7742 2.76207C20.1424 2.4904 20.717 2.3157 21.1414 2.28305C22.7153 2.14787 24.2179 3.73611 25.7196 2.91326L25.785 2.93807L25.7827 8.29154L25.024 8.45056L24.631 8.50411H24.3298L23.8654 8.41236C22.4259 8.01334 21.1545 7.16011 19.7745 7.72566L19.7742 2.76207ZM19.7794 8.17595C20.1555 7.99081 20.6025 7.95946 21.0652 7.9833C21.9066 8.09464 23.3239 8.7735 23.7788 8.78917L24.5652 8.89562L26.0966 8.66966C26.1993 8.74966 26.4439 8.89562 26.5897 9.0282L25.576 9.14901C23.5332 9.83277 21.8239 7.69562 19.7968 8.51881C19.7324 8.4215 19.7559 8.27848 19.7794 8.17595ZM24.6872 10.0731L23.6473 9.94966C22.2539 9.72632 21.3138 8.66183 20.3314 9.24468C20.1634 9.17252 20.0358 9.13824 19.8099 9.09644H19.7706C20.0728 8.8313 20.596 8.68534 20.9877 8.70917C22.2749 8.86917 23.6869 9.74754 24.9122 9.62803L25.7667 9.57154C26.3912 9.40338 26.8844 9.22771 27.2153 9.48109L27.5652 9.81187C26.6267 9.60713 26.1123 10.2396 24.6872 10.0731ZM27.6048 9.45203V3.59407L27.6283 3.54836L27.8925 3.67407V9.43636L27.8952 9.6806L27.6048 9.45203Z" stroke="#D31245" stroke-width="0.773333" stroke-miterlimit="2" stroke-linecap="square"/>
<path d="M19.2841 28.8477V28.87H19.2105V28.8805H19.2841V28.9041H19.2934V28.8477H19.2841Z" fill="black"/>
<path d="M19.2075 28.9396C19.2075 28.92 19.2262 28.9043 19.2497 28.9043C19.2772 28.9043 19.2932 28.92 19.2932 28.9396C19.2932 28.9621 19.2759 28.9752 19.2523 28.9752C19.2249 28.9765 19.2075 28.9595 19.2075 28.9396ZM19.2183 28.9396C19.2183 28.9556 19.234 28.9634 19.251 28.9634C19.268 28.9634 19.2837 28.9569 19.2837 28.9396C19.2837 28.9239 19.268 28.9161 19.2497 28.9161C19.234 28.9174 19.2183 28.9239 19.2183 28.9396ZM19.2101 28.9882H19.2932V28.9987L19.251 29.0248C19.2432 29.029 19.234 29.0343 19.2235 29.0378H19.2249L19.2576 29.0369H19.2919V29.0473H19.2088V29.0369L19.251 29.0121C19.2591 29.0062 19.2679 29.0012 19.2772 28.9974H19.2101V28.9882Z" fill="black"/>
<path d="M233.639 35.0501C233.253 35.0501 233.235 35.1422 233.244 34.8049C233.203 34.3442 233.206 33.4449 232.638 33.3068H231.031L231.034 41.1615C231.223 41.8113 232.132 41.215 232.009 42.0147H228.078C227.739 41.3793 228.496 41.7179 228.891 41.298L228.912 33.3068C228.032 33.2807 227.226 33.3215 226.752 33.807C226.452 34.2126 226.437 34.5881 226.276 35.0501L226.029 35.0557V32.591H233.772L233.639 35.0498V35.0501ZM206.488 8.98484C205.721 8.98484 205.686 9.17259 205.703 8.49896C205.623 7.58663 205.628 5.80117 204.501 5.52688H201.313L201.319 21.1151C201.695 22.4043 203.497 21.2212 203.255 22.8072H195.452C194.78 21.5442 196.287 22.2152 197.068 21.3829L197.109 5.52688C195.364 5.47692 193.767 5.55594 192.823 6.52084C192.231 7.32933 192.197 8.07121 191.878 8.98484L191.39 8.9979V4.10778H206.752L206.488 8.98484ZM190.852 41.9187C189.316 42.7458 187.46 41.5393 186.031 41.7809C186.002 41.7835 185.942 41.7705 185.914 41.7744L185.925 38.7958H186.187L186.299 39.2761C186.496 40.0928 187.09 40.6312 187.782 41.135C188.516 41.5475 189.26 41.5053 189.964 41.1772C190.481 40.8082 190.643 40.3027 190.576 39.8237C190.398 39.2209 189.83 38.7432 189.314 38.4817C188.19 37.8547 186.615 37.3071 185.993 35.8577C185.843 35.1605 185.815 34.4755 186.154 33.8609C187.24 32.0833 189.572 32.5323 191.064 32.8356C191.339 32.8843 191.378 32.7083 191.487 32.7109C191.537 32.7109 191.544 32.7331 191.524 32.8369V35.0884H191.328C191.169 34.3755 190.467 33.505 189.641 33.3003C189.069 33.1086 188.418 33.1781 187.945 33.5876C187.62 33.9827 187.417 34.5437 187.782 34.9675C189.22 36.3501 191.998 36.61 192.27 39.0439C192.27 39.8511 192.085 41.3728 190.852 41.9187ZM164.692 22.2965C161.644 23.939 157.966 21.5416 155.126 22.0209C155.072 22.0261 154.948 22.0013 154.896 22.0079L154.914 16.0977H155.437C155.437 16.0977 155.587 16.7579 155.661 17.0518C156.053 18.6733 157.229 19.7391 158.601 20.7435C160.055 21.5576 161.534 21.4772 162.932 20.8261C163.955 20.0937 164.279 19.088 164.145 18.1388C163.794 16.9443 162.664 15.9951 161.643 15.4792C159.411 14.2309 156.289 13.1465 155.051 10.2701C154.752 8.88492 154.7 7.52884 155.372 6.30794C157.527 2.78043 162.153 3.67447 165.112 4.27333C165.657 4.37031 165.74 4.02125 165.956 4.02386C166.052 4.02517 166.068 4.06827 166.032 4.27594V8.73961H165.639C165.322 7.32672 163.929 5.60035 162.288 5.19349C161.158 4.81406 159.865 4.95055 158.924 5.76329C158.278 6.55088 157.875 7.66402 158.601 8.50288C161.453 11.2457 166.969 11.76 167.506 16.591C167.506 18.1927 167.14 21.2108 164.692 22.2965ZM188.309 22.4843C185.262 24.1254 181.582 21.7293 178.742 22.2087C178.688 22.2126 178.565 22.1875 178.512 22.194L178.532 16.2838H179.054C179.054 16.2838 179.206 16.9457 179.278 17.2382C179.671 18.8598 180.847 19.9256 182.22 20.93C183.671 21.745 185.15 21.6624 186.551 21.0126C187.573 20.2802 187.895 19.2758 187.762 18.3252C187.412 17.1321 186.282 16.1829 185.261 15.6657C183.028 14.4183 179.907 13.3329 178.668 10.4565C178.371 9.07268 178.319 7.71529 178.991 6.4957C181.143 2.96688 185.771 3.86386 188.731 4.46108C189.274 4.55676 189.356 4.21031 189.573 4.21161C189.673 4.21292 189.686 4.25602 189.648 4.46239V8.92966H189.256C188.939 7.51578 187.547 5.78941 185.906 5.38125C184.777 5.00312 183.484 5.13831 182.543 5.95104C181.896 6.73863 181.493 7.85178 182.22 8.69325C185.071 11.4332 190.586 11.9491 191.124 16.7788C191.124 18.3804 190.759 21.3986 188.309 22.4843ZM139.486 41.9187C139.418 41.8387 139.295 41.634 139.525 41.5275L140.339 41.2415V33.2111C140.189 32.7109 139.282 33.1442 139.418 32.5352H146.196L146.388 34.608L146.109 34.6146C145.772 34.0053 145.48 33.2807 144.665 33.2807H142.494L142.49 36.6952C143.132 36.7083 144.35 36.7475 144.529 36.607C144.882 36.3383 144.975 35.8812 145.029 35.4887L145.316 35.4952V38.4794C145.212 38.5068 145.038 38.4794 145.038 38.4794C145.038 38.4794 145.016 37.8688 144.802 37.727C144.261 37.1719 143.257 37.362 142.49 37.3228V40.9986C142.49 40.9986 142.49 41.1772 142.712 41.1746C142.871 41.1719 144.95 41.1746 144.95 41.1746C145.639 41.122 146.317 40.4617 146.563 39.9484C146.81 39.4913 146.639 39.7685 146.76 39.552L147.01 39.5494L146.482 41.9187H139.486Z" fill="#D31245"/>
<path d="M47.2338 26.6777H259.322L259.312 27.9551H47.2338V26.6777Z" fill="#D31245"/>
<path d="M253.183 37.7689C253.183 37.7689 253.051 41.3686 253.164 41.4629C253.275 41.5563 253.874 41.5759 253.874 41.5759L253.91 41.8923H250.267L250.247 41.5377L250.306 41.5299C250.306 41.5299 251.041 41.5602 251.127 41.2569L251.166 37.7189L248.152 33.1517C248.018 33.073 247.573 33.2291 247.537 32.8997C247.499 32.5268 248.024 32.6384 248.024 32.6384L251.535 32.6619L251.517 33.1243C251.517 33.1243 250.687 33.044 250.619 33.3842C251.349 34.6365 252.215 35.8286 252.861 36.7436L254.984 33.476C255.085 32.9548 254.299 33.1057 254.299 33.1057C254.054 33.1057 254.132 33.1057 254.132 32.6384H256.822L256.802 33.1057H256.39C256.397 33.1057 254.039 36.0621 253.183 37.7686M223.997 5.65916L224.016 18.497C223.773 20.8654 221.513 22.2858 219.493 22.8226C216.778 23.172 213.981 23.4936 211.613 21.5321C210.428 20.5108 209.864 19.2768 209.674 17.9863L209.666 5.5661C209.59 4.57737 208.114 4.78243 208.114 4.78243L208.134 4.11402H215.504L215.477 4.78243L214.244 4.83859L213.982 4.93067L213.907 5.30488L213.925 18.3619C214.247 19.5446 215.54 20.4046 216.507 20.7537C218.042 21.1292 219.817 21.1292 221.109 20.1091L221.754 19.5788C221.754 19.5788 221.998 19.3163 222.241 18.9434C222.484 18.5705 222.466 18.3276 222.466 18.3276L222.521 17.8051L222.506 5.60006C222.33 4.7612 220.764 4.78243 220.764 4.78243L220.785 4.12316H225.683L225.717 4.11402L225.642 4.78243C225.642 4.78243 224.033 4.78243 224.016 5.46618M138.298 22.7256C138.161 22.564 137.92 22.1623 138.378 21.9485L139.992 21.3826V5.45051C139.696 4.45655 137.894 5.31663 138.162 4.10749H151.615L151.993 8.21786L151.442 8.23222C150.77 7.02308 150.19 5.58569 148.574 5.58569H144.263L144.261 12.3635C145.535 12.3873 147.951 12.4647 148.303 12.1891C149.003 11.6507 149.186 10.7475 149.294 9.96773L149.867 9.9821V15.9018C149.658 15.9553 149.312 15.9005 149.312 15.9005C149.312 15.9005 149.27 14.69 148.847 14.4076C147.77 13.3075 145.782 13.6817 144.262 13.6069V20.9019C144.262 20.9019 144.262 21.2552 144.701 21.2474C145.016 21.2435 149.14 21.2474 149.14 21.2474C150.508 21.1449 151.856 19.8322 152.341 18.8121C152.832 17.9063 152.491 18.4575 152.734 18.0272L153.231 18.0246L152.182 22.7256H138.297M122.798 22.7256L122.61 22.2162C123.122 21.7591 124.171 22.1346 124.413 21.1948V5.39663C124.121 4.81639 123.26 4.98324 122.836 4.80071C122.632 4.71255 122.623 4.47092 122.648 4.16528L123.12 4.10749H130.412C131.057 5.23663 129.443 4.483 128.797 5.31663V21.0597L129.021 21.3852C131.414 21.3313 135.659 21.4887 136.869 18.1597C137.111 17.9181 137.165 17.2997 137.595 17.4335L137.785 17.6477L136.494 22.7253L122.798 22.7256ZM120.763 41.891H120.054L116.531 33.1766C116.302 33.1491 116.081 33.1031 116.081 33.1031V32.6358H119.51L119.528 33.1031C119.044 33.1031 118.587 33.0783 118.857 33.5877L121.08 39.4097C121.08 39.4097 123.526 33.5126 123.434 33.1978C123.4 33.0822 122.817 33.1031 122.817 33.1031L122.836 32.6358H125.003L124.928 33.1031C124.928 33.1031 124.405 33.0652 124.255 33.1782C124.108 33.2908 120.763 41.891 120.763 41.891ZM97.9671 41.891V41.5364C97.9671 41.5364 98.5744 41.4998 98.7415 41.3686C98.8363 41.1073 98.815 33.1031 98.815 33.1031L98.0789 33.0466L98.0603 32.6502H101.488L101.479 33.0649L100.835 33.123C100.835 33.123 100.798 41.1622 100.835 41.3304C100.871 41.4998 101.677 41.5589 101.677 41.5589L101.667 41.9132L97.9671 41.891ZM82.439 5.39663V21.3826C83.0306 22.1085 83.784 21.8394 84.2415 22.0285V22.8069H76.1703C75.8194 21.3826 77.2196 22.3223 78.1068 21.3026V13.8877H70.4921V21.3826C71.0849 22.4053 72.755 21.4365 72.2946 22.8618H64.3041V22.081C64.843 21.8933 65.8119 22.0285 66.0526 21.1948V5.45181C65.7161 4.819 64.1278 4.819 64.1278 4.819C64.1278 4.819 64.1095 4.49475 64.116 4.11402H72.187V4.80594C71.4074 4.83337 70.5738 4.88757 70.4384 5.72088V12.4095H78.0535V5.58569C77.6497 4.69818 76.4283 4.83598 76.0774 4.78243V4.10488L84.3233 4.10749C84.3298 4.45688 84.3494 4.68904 84.2523 4.7821C84.3471 4.75337 84.1957 4.83337 84.2523 4.7821C83.9184 4.88071 82.439 4.83761 82.439 5.39663ZM81.8488 41.891H81.1254C81.1254 41.891 75.7589 35.1893 75.6013 35.0998C75.3436 35.0828 75.4172 35.4858 75.4172 35.4858L75.3763 41.4185L76.0728 41.6415L76.1166 41.9344H73.9093L73.9316 41.6177L74.6294 41.4185V33.3078C74.6294 33.01 73.8564 33.0835 73.8564 33.0835L73.8629 32.6672L75.993 32.6358L81.1559 38.7073C81.1559 38.7073 81.1189 33.3565 81.1467 33.2291C81.1742 33.1031 80.5326 33.1596 80.5326 33.1596L80.496 32.6672L82.3959 32.6358L82.3694 33.1031C82.3694 33.1031 81.9459 33.0783 81.8763 33.2095C81.8118 33.3408 81.8488 41.891 81.8488 41.891ZM55.0772 23.1299C51.9281 22.9947 49.7763 21.7317 47.8921 19.1798C45.6596 15.043 45.9006 10.9052 48.673 7.01002C51.0949 4.4043 53.757 3.48904 56.7992 3.83843C58.4401 4.05492 60.0807 4.85981 61.966 4.61818V10.7974H61.4535C60.6475 8.75467 59.8139 5.85377 57.12 5.31663C55.9107 5.18275 54.4317 5.20888 53.464 6.04251C50.7188 8.32561 50.6926 11.5233 51.1226 14.5323C51.7139 16.8967 52.8721 19.4499 55.5082 20.4686C57.8496 21.1948 60.4594 20.2825 61.9663 18.5339L62.2884 18.2123L62.826 18.6166C60.808 21.6517 58.3587 22.9408 55.0772 23.1299ZM259.049 8.98063C258.284 8.98063 258.247 9.16675 258.266 8.49475C258.182 7.58112 258.189 5.79435 257.062 5.52137H253.873L253.881 21.1096C254.255 22.3988 256.058 21.2174 255.818 22.803H248.014C247.34 21.5387 248.849 22.211 249.628 21.3787L249.67 5.52137C247.926 5.47271 246.329 5.5501 245.385 6.51794C244.793 7.32251 244.759 8.06569 244.437 8.98063L243.951 8.99239V4.10357H259.315L259.049 8.98063ZM57.2714 33.4208L57.2793 39.8904C57.1583 41.0822 56.0183 41.8006 55.0033 42.0709C53.6334 42.2466 52.224 42.4095 51.0301 41.4198C50.4333 40.9065 50.1495 40.2828 50.055 39.6317L50.0497 33.3735C50.0128 32.8748 49.2672 32.9784 49.2672 32.9784L49.278 32.6424H52.9931L52.9788 32.9787L52.3568 33.0061L52.224 33.0544L52.1861 33.2409L52.1965 39.8234C52.3581 40.4193 53.0075 40.8526 53.4967 41.0283C54.2698 41.2177 55.1664 41.2177 55.8159 40.7041L56.1432 40.4363C56.1432 40.4363 56.2655 40.3037 56.3878 40.1147C56.5101 39.9286 56.501 39.8061 56.501 39.8061L56.5284 39.5423L56.5219 33.3904C56.4336 32.9692 55.6436 32.9784 55.6436 32.9784L55.6543 32.6463H58.122L58.139 32.6424L58.101 32.9787C58.101 32.9787 57.2923 32.9787 57.2806 33.3225M207.481 41.891L207.511 41.5942C207.511 41.5942 208.12 41.5563 208.288 41.4264C208.38 41.1651 208.359 33.1609 208.359 33.1609L207.624 33.1057L207.605 32.7054H211.034L211.024 33.1243L210.378 33.1792C210.378 33.1792 210.341 41.2216 210.378 41.3895C210.416 41.556 211.222 41.6154 211.222 41.6154L211.234 41.891H207.481ZM119.964 21.2683C117.822 18.8095 117.045 16.1339 114.422 14.0242L114.61 13.8365C116.056 13.6752 117.688 12.5803 118.277 11.1886C118.947 9.39794 118.947 8.3821 118.358 6.64528C117.332 4.38439 115.281 4.42128 114.434 4.20741L104.598 4.22439L104.087 4.41051C103.846 5.30847 105.642 4.47908 105.936 5.54879V21.4022C105.159 22.0167 103.74 21.7503 104.462 22.82H111.852L111.798 22.0441C111.076 21.9903 110.353 21.9641 109.924 21.1344V14.7174C110.7 14.7452 111.102 14.6123 111.477 15.1191L116.297 22.82H121.627L121.678 22.2845C121.33 21.6425 120.445 22.1245 119.964 21.2683ZM109.923 13.7026L109.895 5.23533C110.713 5.01198 111.986 5.28104 112.682 5.60137C113.832 6.24333 114.396 7.55369 114.504 8.80986C114.504 10.1738 114.504 11.698 113.403 12.8729C112.52 13.5965 111.181 13.6752 109.923 13.7026ZM101.616 20.8823L94.4249 3.66504L93.3942 3.66635L87.5306 18.5023C86.9416 19.7862 86.701 21.8459 84.908 22.0311C84.9354 22.3805 84.8001 22.6574 85.0957 22.8174H89.7013C90.1035 21.5334 88.0394 22.3801 88.0669 21.204L89.354 17.729L89.7814 17.2735H95.645L97.1162 21.124C97.198 22.6482 95.0021 21.0962 95.7791 22.8069H103.274L103.356 22.0863C102.712 21.8446 101.99 21.6585 101.615 20.8823M95.2254 15.9397H90.4596V15.2441L92.7094 9.603L92.8984 9.46912L95.2268 15.4841V15.9397H95.2254ZM243.31 21.2435C241.147 18.7596 240.361 16.0592 237.711 13.9259L237.901 13.7366C239.362 13.5739 241.011 12.4686 241.605 11.0639C242.282 9.25492 242.282 8.22961 241.687 6.47288C240.651 4.18879 238.582 4.2283 237.723 4.01312L227.788 4.02879L227.274 4.21786C227.029 5.12365 228.841 4.2861 229.138 5.36659V21.3774C228.354 21.9994 226.92 21.729 227.652 22.8095H235.116L235.062 22.0272C234.331 21.972 233.601 21.9446 233.169 21.1083V14.6283C233.953 14.6544 234.359 14.5205 234.737 15.0325L239.603 22.8095H244.987L245.039 22.2701C244.688 21.6216 243.798 22.1072 243.31 21.2435ZM233.17 13.6017L233.142 5.05149C233.97 4.82422 235.253 5.0959 235.957 5.41884C237.119 6.06765 237.686 7.39206 237.795 8.66031C237.795 10.0386 237.795 11.5772 236.686 12.7641C235.793 13.4939 234.439 13.5739 233.17 13.6017M169.868 41.1243C168.807 39.9064 168.422 38.58 167.121 37.5338L167.216 37.4407C167.932 37.363 168.74 36.8197 169.031 36.1317C169.363 35.2432 169.363 34.7403 169.07 33.8802C168.562 32.7592 167.547 32.7775 167.127 32.6727L162.253 32.6806L162.002 32.7736C161.882 33.2174 162.771 32.8063 162.917 33.3352V41.1899C162.532 41.4946 161.828 41.363 162.187 41.892H165.847L165.82 41.509C165.463 41.4828 165.103 41.4698 164.892 41.0587V37.8806C165.277 37.8936 165.474 37.8267 165.661 38.0788L168.047 41.8923H170.688L170.713 41.6285C170.545 41.3117 170.107 41.5498 169.868 41.1243ZM164.894 37.3764L164.88 33.1818C165.286 33.0717 165.916 33.2043 166.26 33.363C166.832 33.682 167.109 34.3305 167.163 34.9516C167.163 35.6262 167.163 36.3824 166.619 36.9653C166.18 37.3238 165.519 37.3643 164.894 37.3764" fill="#D31245"/>
</g>
<defs>
<clipPath id="clip0_603_511">
<rect width="259" height="48" fill="white"/>
</clipPath>
</defs>
</svg>
