<svg width="226" height="48" viewBox="0 0 226 48" fill="none" xmlns="http://www.w3.org/2000/svg">
<path d="M17.4633 6.64229C19.0776 8.24981 19.6943 10.6047 19.0776 12.7953C21.0632 11.6034 23.3393 10.9752 25.6574 10.9784H25.7059C29.112 10.9881 32.3729 12.354 34.7685 14.7701C36.6895 16.7835 39.8793 16.8608 41.8972 14.9473C43.915 13.0305 43.9925 9.84766 42.0747 7.83424C42.0263 7.78269 41.9779 7.73437 41.9262 7.68605C37.6484 3.36927 31.8208 0.937057 25.7349 0.92095H25.6478C21.0922 0.911285 16.64 2.26431 12.8626 4.80283H13.0047C14.6771 4.79961 16.2817 5.46323 17.4633 6.64551V6.64229Z" fill="#1773EB"/>
<path d="M38.2554 31.4219C36.9252 31.4219 35.6467 31.947 34.7039 32.8812C32.3019 35.2651 29.0507 36.6052 25.6639 36.602H25.6155C23.2909 36.5988 21.0148 35.9609 19.0292 34.7561C19.181 35.3038 19.2552 35.8707 19.2552 36.4377C19.2552 39.9137 16.4334 42.7293 12.9498 42.7293H12.7852C16.5594 45.2936 21.0148 46.6691 25.58 46.6756H25.6672C31.7175 46.6852 37.5257 44.2949 41.81 40.0329C43.7859 38.0742 43.802 34.8914 41.8391 32.9166C40.8931 31.9631 39.6017 31.4283 38.2586 31.4283V31.4219H38.2554Z" fill="#E44F20"/>
<path d="M8.48468 31.9861C9.6631 30.8006 11.2709 30.137 12.9433 30.1434C13.5212 30.1434 14.0959 30.2208 14.6512 30.3754C12.2008 26.3099 12.2104 21.2232 14.6771 17.1673C11.3161 18.0887 7.84542 16.1139 6.92528 12.7636C6.77676 12.2192 6.69928 11.6586 6.69928 11.0916V10.9209C1.42702 18.6524 1.40119 28.8098 6.63793 36.5671V36.435C6.63148 34.7663 7.29656 33.162 8.48468 31.9861Z" fill="#FFDA00"/>
<path d="M13.0047 5.91699C11.5712 5.91699 10.5671 6.50974 9.34993 7.72424C8.19087 8.87753 7.82604 9.88907 7.82281 11.0907C7.82281 13.9449 10.1474 16.2612 13.0079 16.2579C15.8684 16.2579 18.1898 13.9385 18.1865 11.0842C18.1865 8.23001 15.8652 5.91699 13.0047 5.91699Z" fill="#1773EB"/>
<path d="M7.74854 36.441C7.74854 37.8681 8.34259 38.8732 9.55654 40.0845C10.7156 41.241 11.7261 41.6083 12.9304 41.6115C15.7844 41.6018 18.0896 39.2888 18.08 36.441C18.0703 33.5932 15.7522 31.2931 12.8981 31.3028C10.0505 31.3124 7.74854 33.6158 7.74854 36.4571V36.441Z" fill="#E44F20"/>
<path fill-rule="evenodd" clip-rule="evenodd" d="M63.7869 28.2811C65.2301 27.1922 65.4238 27.8011 66.6409 29.0188C67.2511 29.6277 68.9203 30.6843 67.8291 31.5799C65.5497 33.4355 63.4963 34.2698 60.5777 34.2698C54.0011 34.2376 49.3487 29.341 49.7329 22.84C49.8943 19.9278 51.0469 17.1734 53.3263 15.2857C55.412 13.5235 58.011 12.7568 60.7391 12.8212C62.1177 12.8534 63.3381 13.0467 64.6199 13.5912C65.4528 13.9101 66.2567 14.2967 66.9606 14.8411C68.4037 15.9622 67.7322 16.6032 66.6087 17.7211C66.3504 17.9788 66.0953 18.2333 65.8693 18.491C65.2914 19.0677 64.9072 19.4832 64.1356 18.9388C62.6601 17.9144 60.7972 17.3699 59.0344 17.8177C53.3554 19.2577 53.6137 29.3442 60.5745 29.3764C61.6657 29.4086 62.8861 28.9608 63.7837 28.2875L63.7869 28.2811ZM221.641 34.3954C220.679 34.3954 219.908 33.6255 219.908 32.6655L220.005 10.3181C220.005 9.35814 220.776 8.5882 221.738 8.5882H223.598C224.56 8.5882 225.332 9.35814 225.332 10.3181L225.235 32.6655C225.235 33.6255 224.463 34.3954 223.501 34.3954H221.641ZM211.888 31.8022C209.867 33.6899 207.943 34.6822 205.085 34.6822C199.309 34.6499 196.552 29.8789 196.552 24.5345L196.584 15.4435C196.584 14.4835 197.356 13.7136 198.318 13.7136H200.178C201.14 13.7136 201.912 14.4835 201.912 15.4435L201.879 24.5345C201.879 27.5112 203.484 29.8499 206.629 29.8499C209.773 29.8499 211.697 27.2244 211.73 24.28V21.0457C211.697 20.9168 211.697 20.7879 211.697 20.6623L211.73 15.5079C211.73 14.5479 212.501 13.778 213.463 13.778H215.323C216.285 13.778 217.057 14.5479 217.057 15.5079L216.992 32.6687C216.992 33.5965 216.224 34.3665 215.259 34.3665H213.686C212.724 34.3665 212.049 33.5675 211.985 32.6687L211.888 31.8054V31.8022ZM189.75 13.778H193.343C194.305 13.778 195.044 14.5769 195.044 15.5401V16.7257C195.044 17.6534 194.276 18.4556 193.311 18.4556H189.717L189.653 32.5753C189.653 33.5353 188.881 34.3052 187.919 34.3052H186.059C185.097 34.3052 184.326 33.5353 184.326 32.5753L184.39 13.0467C184.39 8.78793 186.828 5.42793 191.193 5.04458C191.322 5.04458 191.419 5.01236 191.545 5.01236C191.8 4.98015 192.058 5.01236 192.313 5.01236H193.982C194.944 5.01236 195.684 5.81129 195.684 6.77451V7.86337C195.684 8.79116 194.912 9.5933 193.95 9.5933H192.604C190.55 9.5933 189.685 11.1622 189.653 13.0822L189.75 13.7877V13.778ZM176.851 13.7136H180.797C181.727 13.7136 182.498 14.4835 182.498 15.4435V16.629C182.498 17.5568 181.727 18.3267 180.764 18.3267H176.819L176.787 26.9699C176.787 28.6355 177.588 29.5955 179.257 29.5955H180.057C180.987 29.5955 181.759 30.3654 181.759 31.3254V32.5109C181.759 33.4387 180.99 34.2086 180.025 34.2086H178.517C178.23 34.2086 177.972 34.2086 177.684 34.1764C173.416 33.8897 171.524 31.1353 171.524 26.9732C171.557 21.371 171.557 15.8011 171.589 10.1989C171.589 9.27116 172.361 8.50122 173.323 8.50122H175.15C176.08 8.50122 176.851 9.27116 176.851 10.2312V13.72V13.7136ZM119.774 13.4881H123.719C124.649 13.4881 125.42 14.258 125.42 15.218V16.4035C125.42 17.3313 124.649 18.1012 123.687 18.1012H119.741V26.7444C119.741 28.4099 120.542 29.3699 122.211 29.3699H123.012C123.942 29.3699 124.713 30.1399 124.713 31.0999V32.2854C124.713 33.2132 123.942 33.9831 122.98 33.9831H121.791C117.139 33.9509 114.443 31.9665 114.443 26.7477C114.475 21.1455 114.475 15.5756 114.508 9.97344C114.508 9.04565 115.279 8.27572 116.241 8.27572H118.069C118.999 8.27572 119.77 9.04565 119.77 10.0057V13.4945L119.774 13.4881ZM96.6085 15.9203C98.5005 14.1581 100.554 13.0403 103.217 13.0403C108.993 13.0725 111.977 17.7791 111.944 23.1879L111.912 32.2789C111.912 33.2389 111.14 34.0089 110.178 34.0089H108.319C107.356 34.0089 106.585 33.2389 106.585 32.2789L106.617 23.2524C106.617 20.2757 105.013 17.9369 101.868 17.9369C98.7232 17.9369 96.799 20.5302 96.7667 23.4746L96.7345 32.2789C96.7345 33.2067 95.9628 33.9767 95.0007 33.9767H93.1733C92.2435 33.9767 91.4719 33.2067 91.4719 32.2467C91.5042 26.7734 91.5042 21.2647 91.5364 15.7914V15.0537C91.5364 14.1259 92.3081 13.356 93.2702 13.356H94.8425C95.8046 13.356 96.4794 14.1549 96.544 15.0537L96.6085 15.9171V15.9203ZM153.783 16.1458C155.675 14.3836 157.729 13.2658 160.392 13.2658C166.168 13.298 169.151 18.0046 169.119 23.4134L169.087 32.5044C169.087 33.4644 168.315 34.2344 167.353 34.2344H165.493C164.531 34.2344 163.76 33.4644 163.76 32.5044L163.792 23.4779C163.792 20.5012 162.187 18.1624 159.043 18.1624C155.898 18.1624 153.974 20.7557 153.942 23.7001L153.909 32.5044C153.909 33.4322 153.138 34.2022 152.175 34.2022H150.348C149.418 34.2022 148.647 33.4322 148.647 32.4722L148.711 15.2792C148.711 14.3514 149.483 13.5815 150.445 13.5815H152.017C152.979 13.5815 153.654 14.3804 153.719 15.2792L153.783 16.1426V16.1458ZM79.1549 12.8792C72.8979 12.847 68.4715 17.3603 68.4393 23.5713C68.407 29.8467 72.772 34.2956 79.0903 34.3278C85.4119 34.36 89.8382 29.9434 89.8705 23.6357C89.9028 17.4569 85.3796 12.9114 79.1549 12.8792ZM131.099 25.7168C131.548 28.5968 134.309 29.7823 137.004 29.8145C138.289 29.8145 139.765 29.4956 140.917 28.9512C141.111 28.8545 141.302 28.7901 141.495 28.6644C142.138 28.3133 142.716 28.0878 143.294 28.6644C143.613 28.9834 143.904 29.3055 144.224 29.5922C144.511 29.8789 144.801 30.1689 145.056 30.52C145.922 31.6089 145.315 31.8634 144.317 32.5367C142.199 33.9444 139.439 34.6499 136.904 34.6499C130.102 34.6177 125.611 30.4878 125.611 23.6357C125.643 17.1702 130.134 12.8792 136.617 12.9114C143.226 12.9436 146.981 16.8159 147.078 23.4134C147.11 25.2078 147.174 25.7812 145.312 25.7812L131.099 25.7168ZM79.1549 17.7146C82.3964 17.7146 84.5466 20.5334 84.5466 23.6357C84.5466 26.738 82.5255 29.4634 79.1258 29.4634C75.7261 29.4634 73.7341 26.8379 73.7341 23.6035C73.7664 20.4014 75.7875 17.7114 79.1549 17.7114V17.7146ZM131.229 21.2679L141.88 21.3001C141.495 18.6424 139.281 17.5858 136.746 17.5858C134.212 17.5858 132.029 18.7713 131.229 21.2679Z" fill="#2B2D31"/>
</svg>
