<svg width="190" height="48" viewBox="0 0 190 48" fill="none" xmlns="http://www.w3.org/2000/svg">
<g clip-path="url(#clip0_603_597)">
<mask id="mask0_603_597" style="mask-type:luminance" maskUnits="userSpaceOnUse" x="0" y="0" width="190" height="48">
<path d="M190 0H0V48H190V0Z" fill="white"/>
</mask>
<g mask="url(#mask0_603_597)">
<path d="M28.811 14.192V0.472391C25.7094 -0.148678 22.516 -0.157425 19.4111 0.446644V14.192H28.811Z" fill="#00A2DF"/>
<path d="M19.4111 33.8076V47.553C22.5159 48.158 25.7094 48.1497 28.811 47.5285V33.8076H19.4111Z" fill="#F0741C"/>
<path d="M37.1106 14.192V19.2436L44.6854 11.6829C43.0565 8.97103 40.9091 6.60542 38.3656 4.7207L28.8767 14.192H37.1106Z" fill="#F0741C"/>
<path d="M37.1105 33.8075H28.8831L38.3706 43.2775C40.9141 41.3922 43.0614 39.0261 44.6905 36.314L37.1144 28.752L37.1105 33.8075Z" fill="#F0741C"/>
<path d="M10.9797 27.6251V20.3758C10.9803 20.018 11.0118 19.661 11.0739 19.3086H0.460377C-0.153459 22.4061 -0.153459 25.5936 0.460377 28.691H11.0726V28.682C11.012 28.3329 10.9801 27.9793 10.9797 27.6251Z" fill="#00A2DF"/>
<path d="M17.1732 33.8011C15.7417 33.784 14.359 33.2797 13.2537 32.3716C12.1484 31.4636 11.3866 30.2062 11.0945 28.8074V28.7842L11.0764 28.8022L3.4668 36.3978C5.10415 39.1043 7.25848 41.4633 9.80731 43.3406L19.3581 33.8011H17.1732Z" fill="#00A2DF"/>
<path d="M9.7958 4.66797C7.24623 6.54299 5.09061 8.89977 3.45142 11.6044L11.0611 19.1999L11.0817 19.2192L11.0894 19.1819C11.3664 17.7755 12.1238 16.5086 13.2324 15.5976C14.3411 14.6866 15.7321 14.188 17.1681 14.1869H19.3324L9.7958 4.66797Z" fill="#00A2DF"/>
<path d="M47.6287 19.3145H16.1067V28.6969H47.6287C48.243 25.5995 48.243 22.4119 47.6287 19.3145Z" fill="#F0741C"/>
<path d="M86.0935 33.8077H64.6743C63.0324 33.8077 61.4577 33.1566 60.2967 31.9978C59.1357 30.8389 58.4834 29.2671 58.4834 27.6282V20.3816C58.4834 18.7427 59.1357 17.1709 60.2967 16.0121C61.4577 14.8532 63.0324 14.2021 64.6743 14.2021H86.0961V19.3156H63.6038V28.6929H86.0935V33.8077Z" fill="#0C0520"/>
<path d="M115.415 33.808H93.9922C92.3502 33.808 90.7756 33.1569 89.6145 31.9981C88.4535 30.8392 87.8013 29.2674 87.8013 27.6286V14.2012H92.9255V28.6932H110.291V14.2012H115.415V33.808Z" fill="#0C0520"/>
<path d="M122.817 6.95605H117.693V33.8082H122.817V6.95605Z" fill="#0C0520"/>
<path d="M130.219 12.0708H125.095V6.95605H130.219V12.0708ZM130.219 33.8082H125.095V14.2014H130.219V33.8082Z" fill="#0C0520"/>
<path d="M160.11 33.808H154.985V19.3159H137.62V33.808H132.496V14.2012H153.917C155.559 14.2012 157.134 14.8522 158.295 16.0111C159.456 17.17 160.108 18.7417 160.108 20.3806L160.11 33.808Z" fill="#0C0520"/>
<path d="M190 33.808H167.654C166.012 33.808 164.437 33.1569 163.276 31.9981C162.115 30.8392 161.463 29.2674 161.463 27.6286C161.463 25.9897 162.115 24.4179 163.276 23.259C164.437 22.1002 166.012 21.4491 167.654 21.4491H184.876V19.3159H162.386V14.2012H183.808C185.45 14.2012 187.025 14.8522 188.186 16.0111C189.347 17.17 189.999 18.7417 189.999 20.3806L190 33.808ZM184.876 26.5613H166.586V28.6932H184.876V26.5613Z" fill="#0C0520"/>
</g>
</g>
<defs>
<clipPath id="clip0_603_597">
<rect width="190" height="48" fill="white"/>
</clipPath>
</defs>
</svg>
