<svg width="288" height="48" viewBox="0 0 288 48" fill="none" xmlns="http://www.w3.org/2000/svg">
<path d="M39.9665 20.2362L21.1353 30.8376L0.970909 19.5096L0 20.0333V28.2587L21.1353 40.1082L39.9644 29.5482V33.9009L21.1353 44.5045L0.970909 33.1765L0 33.7002V35.1096L21.1353 46.9613L42.2291 35.1096V26.8864L41.2582 26.3627L21.1353 37.6493L2.26255 27.0893V22.7344L21.1353 33.2944L42.2291 21.4471V13.3395L41.1775 12.7351L21.1353 23.9824L3.23345 13.9853L21.1353 3.94891L35.8429 12.2115L37.1367 11.4871V10.4791L21.1353 1.49219L0 13.3416V14.6333L21.1353 26.4849L39.9644 15.8813L39.9665 20.2362Z" fill="#EE3D2C"/>
<path d="M81.7069 40.2396V4.04102H76.1301V17.5836C76.1301 17.7865 76.008 17.9479 75.8072 18.0287C75.7173 18.0601 75.6204 18.0652 75.5277 18.0436C75.4349 18.022 75.3503 17.9744 75.2836 17.9065C73.3832 15.6897 70.4334 14.4396 67.2 14.4396C60.2901 14.4396 54.8727 20.2432 54.8727 27.6614C54.8727 31.2897 56.1272 34.6367 58.429 37.0956C59.5488 38.3001 60.9067 39.2588 62.4166 39.9108C63.9264 40.5629 65.5553 40.894 67.2 40.8832C70.392 40.8832 73.3418 39.5523 75.2814 37.257C75.4036 37.0956 75.6458 37.0541 75.805 37.0956C76.008 37.1763 76.1323 37.3356 76.1323 37.5385V40.2396H81.7069ZM68.413 35.8454C63.9665 35.8454 60.493 32.2585 60.493 27.6636C60.493 23.0665 63.9665 19.4796 68.413 19.4796C72.8596 19.4796 76.333 23.0665 76.333 27.6614C76.333 32.2563 72.8574 35.8432 68.413 35.8432M111.53 40.2417V15.0461H105.995V17.5857C105.995 17.7887 105.873 17.9479 105.67 18.0287C105.577 18.0658 105.475 18.0703 105.38 18.0413C105.285 18.0123 105.202 17.9517 105.146 17.8694C103.287 15.6505 100.377 14.4003 97.0625 14.4003C90.1527 14.4003 84.7374 20.2061 84.7374 27.6221C84.7374 35.0403 90.1527 40.8439 97.0647 40.8439C100.257 40.8439 103.206 39.513 105.146 37.1785C105.266 37.0148 105.508 36.9756 105.67 37.0148C105.873 37.0956 105.995 37.257 105.995 37.4599V40.2003H111.53V40.2417ZM98.317 35.8476C93.8705 35.8476 90.397 32.2585 90.397 27.6657C90.397 23.0687 93.8705 19.4817 98.317 19.4817C102.764 19.4817 106.237 23.0687 106.237 27.6636C106.237 32.2585 102.761 35.8476 98.317 35.8476ZM158.93 40.2417V15.0461H153.393V17.5857C153.393 17.7887 153.273 17.9479 153.07 18.0287C152.867 18.1094 152.666 18.0287 152.546 17.8694C150.685 15.6505 147.777 14.4003 144.462 14.4003C137.511 14.4003 132.137 20.2061 132.137 27.6657C132.137 35.121 137.553 40.8876 144.462 40.8876C147.654 40.8876 150.604 39.5567 152.544 37.2177C152.666 37.0563 152.908 37.0148 153.07 37.0563C153.273 37.137 153.393 37.2963 153.393 37.4992V40.2396L158.93 40.2417ZM145.715 35.8476C141.27 35.8476 137.795 32.2585 137.795 27.6657C137.795 23.0687 141.27 19.4817 145.715 19.4817C150.159 19.4817 153.635 23.0687 153.635 27.6636C153.635 32.2585 150.159 35.8476 145.715 35.8476ZM169.073 37.257C169.115 37.257 169.196 37.2156 169.235 37.2156C169.357 37.2156 169.518 37.2963 169.599 37.377C171.497 39.5937 174.447 40.8439 177.681 40.8439C184.59 40.8439 190.008 35.0403 190.008 27.6221C190.008 23.9937 188.753 20.649 186.452 18.1901C185.332 16.9852 183.974 16.0261 182.464 15.3736C180.954 14.7212 179.325 14.3898 177.681 14.4003C174.489 14.4003 171.539 15.7312 169.599 18.0287C169.477 18.1901 169.276 18.2294 169.076 18.1901C168.873 18.1094 168.75 17.9479 168.75 17.745V4.04102H163.174V40.2374H168.75V37.7021C168.75 37.4992 168.873 37.3377 169.073 37.257ZM168.506 27.6636C168.506 23.0687 171.984 19.4817 176.428 19.4817C180.873 19.4817 184.348 23.0687 184.348 27.6636C184.348 32.2585 180.873 35.8454 176.428 35.8454C171.984 35.8454 168.506 32.2192 168.506 27.6636ZM206.132 20.2105C206.655 20.2105 207.142 20.2519 207.462 20.3327V14.6076C207.156 14.5532 206.846 14.5262 206.535 14.5268C203.625 14.5268 200.958 16.0192 199.545 18.3974C199.422 18.5981 199.22 18.681 199.019 18.5981C198.919 18.5733 198.829 18.5168 198.763 18.4371C198.698 18.3573 198.659 18.2584 198.654 18.1552V15.0505H193.119V40.2854H198.696V29.1581C198.696 23.6381 201.524 20.2127 206.132 20.2127M216.637 15.0483H210.98V40.2832H216.637V15.0483ZM213.726 4.08029C213.269 4.06875 212.814 4.14885 212.388 4.31586C211.963 4.48287 211.575 4.73342 211.247 5.05275C210.92 5.37207 210.659 5.75371 210.482 6.17519C210.304 6.59666 210.212 7.04943 210.212 7.50683C210.212 7.96424 210.304 8.41701 210.482 8.83848C210.659 9.25995 210.92 9.6416 211.247 9.96092C211.575 10.2802 211.963 10.5308 212.388 10.6978C212.814 10.8648 213.269 10.9449 213.726 10.9334C214.187 10.9498 214.645 10.8734 215.075 10.7086C215.505 10.5439 215.898 10.2942 216.229 9.97448C216.56 9.65478 216.824 9.2716 217.004 8.84782C217.184 8.42404 217.276 7.96834 217.276 7.50792C217.276 7.04751 217.184 6.59181 217.004 6.16803C216.824 5.74425 216.56 5.36107 216.229 5.04137C215.898 4.72166 215.505 4.47199 215.075 4.30724C214.645 4.14249 214.187 4.06605 213.726 4.08247M233.206 14.4003C225.447 14.4003 219.829 19.9639 219.829 27.6657C219.829 31.4119 221.164 34.7567 223.547 37.1785C225.973 39.5959 229.366 40.9268 233.164 40.9268C236.317 40.9268 238.741 40.3225 243.349 36.9341L240.157 33.5894C237.892 35.0817 235.791 35.8061 233.732 35.8061C229.043 35.8061 225.528 32.2999 225.528 27.6636C225.528 23.0272 229.043 19.521 233.732 19.521C235.953 19.521 238.014 20.2476 240.076 21.7377L243.63 18.393C239.47 14.8454 235.71 14.4003 233.206 14.4003ZM253.167 29.1537C253.21 29.1126 253.261 29.0807 253.317 29.0601C253.373 29.0395 253.433 29.0305 253.492 29.0337H253.532C253.654 29.0337 253.774 29.1145 253.896 29.193L262.826 40.2396H269.697L258.14 26.2912C257.976 26.0905 257.976 25.8068 258.179 25.6476L268.806 15.0439H261.977L252.805 24.2359C252.683 24.3559 252.482 24.3974 252.279 24.3559C252.196 24.3156 252.125 24.2528 252.075 24.1746C252.025 24.0964 251.997 24.0059 251.996 23.913V4.08029H246.38V40.2788H251.956V30.4432C251.956 30.3232 251.996 30.1596 252.118 30.081L253.167 29.1537Z" fill="black"/>
<path d="M278.784 40.8853C283.351 40.8853 287.998 38.1034 287.998 32.8234C287.998 29.3565 285.816 26.9762 281.372 25.5274L278.339 24.5194C276.279 23.8344 275.308 22.8656 275.308 21.5369C275.308 20.0053 276.683 18.9558 278.623 18.9558C280.482 18.9558 282.138 20.1667 283.189 22.2613L287.675 19.8438C286.019 16.4576 282.583 14.3609 278.623 14.3609C273.611 14.3609 269.976 17.5856 269.976 21.9798C269.976 25.486 272.077 27.8249 276.399 29.1951L279.513 30.2031C281.695 30.8882 282.624 31.774 282.624 33.1856C282.624 35.3238 280.643 36.0874 278.946 36.0874C276.683 36.0874 274.663 34.6365 273.694 32.2584L269.127 34.678C270.622 38.5071 274.298 40.8853 278.784 40.8853ZM127.047 40.6431C128.826 40.6431 130.403 40.4816 131.291 40.3594V35.5245C130.364 35.6201 129.434 35.6733 128.503 35.6838C126.24 35.6838 124.503 35.2824 124.503 30.4038V20.0445C124.503 19.7609 124.704 19.5602 124.988 19.5602H130.442V15.0045H124.988C124.924 15.007 124.86 14.9962 124.8 14.9728C124.74 14.9495 124.686 14.9141 124.641 14.8689C124.595 14.8236 124.559 14.7695 124.536 14.7099C124.512 14.6503 124.501 14.5864 124.503 14.5224V7.26562H118.927V14.5616C118.927 14.8453 118.724 15.046 118.44 15.046H114.561V19.6016H118.44C118.724 19.6016 118.927 19.8024 118.927 20.0838V31.8154C118.927 40.6431 124.826 40.6431 127.047 40.6431Z" fill="black"/>
</svg>
