<svg width="235" height="48" viewBox="0 0 235 48" fill="none" xmlns="http://www.w3.org/2000/svg">
<g clip-path="url(#clip0_603_523)">
<mask id="mask0_603_523" style="mask-type:luminance" maskUnits="userSpaceOnUse" x="0" y="0" width="235" height="48">
<path d="M234.484 0H0.484375V48H234.484V0Z" fill="white"/>
</mask>
<g mask="url(#mask0_603_523)">
<path d="M15.9253 16.1013C17.1409 10.0861 13.6157 5.58987 13.6157 5.58987C13.7373 7.0481 13.3118 8.68861 12.704 10.2684C12.6432 10.2076 12.6432 10.1468 12.5825 10.0861C10.7591 6.86582 9.23961 3.03797 9.66507 0C9.66507 0 3.7087 5.89367 8.02403 15.2506C8.02403 15.2506 8.20637 15.7367 8.63182 16.5873C7.90247 17.5595 7.29468 18.5316 6.74766 19.3215C5.53208 16.8911 4.55961 14.157 4.92429 11.9089C4.92429 11.9089 -0.120389 16.8911 3.58714 24.9114C3.58714 24.9114 3.64792 25.0937 3.89104 25.519C2.25 32.3241 6.07909 36.638 6.07909 36.638C5.95753 35.1797 6.44377 33.4785 7.17312 31.7165C8.63182 34.7544 9.96896 37.9747 9.60429 40.2835C9.60429 40.2835 14.649 35.9696 10.9414 27.281C10.9414 27.281 10.7591 26.8557 10.3944 26.0658C11.0022 25.0937 11.7316 24.1823 12.2786 23.3316C13.9804 26.7949 15.4391 30.5013 15.0744 33.1139C15.0744 33.1139 20.97 28.0101 16.7155 17.8633C16.7155 17.9241 16.4723 17.2557 15.9253 16.1013Z" fill="#320070"/>
<path d="M9.72632 40.3449C9.66554 40.3449 14.771 36.031 11.0635 27.3424C11.0635 27.3424 10.8811 26.8563 10.5165 26.0664C9.30087 27.8284 8.14606 29.7727 7.23438 31.6563C8.75386 34.6943 10.091 38.036 9.72632 40.3449Z" fill="#320070"/>
<path d="M6.87266 19.3206C5.65708 16.8903 4.68461 14.156 5.04929 11.9688C5.04929 11.9688 0.00461173 16.951 3.71214 24.9713C3.71214 24.9713 3.77292 25.1536 4.01604 25.5181C4.38072 24.2422 4.86695 22.9054 5.53552 21.5079C5.53552 21.5687 6.02175 20.6574 6.87266 19.3206Z" fill="#320070"/>
<path d="M8.69838 16.5859C7.96903 17.5581 7.36123 18.5302 6.875 19.3201C7.05734 19.7454 7.30045 20.1707 7.48279 20.5961C8.81994 22.7226 9.85318 24.7885 10.5218 26.0644C11.1295 25.0923 11.8589 24.1809 12.4059 23.391C11.1295 20.7783 9.67084 18.4087 8.81993 16.7075C8.75916 16.6467 8.69838 16.6467 8.69838 16.5859Z" fill="#320070"/>
<path d="M4.01987 25.5781C2.31805 32.3832 6.08636 36.6971 6.02559 36.6971C5.90403 35.2389 6.45104 33.4769 7.24117 31.6541C6.20792 29.5275 4.99234 27.5832 4.32377 26.2465C4.14143 26.0034 4.08065 25.7604 4.01987 25.5781Z" fill="#320070"/>
<path d="M13.4976 5.58984C13.6192 7.04807 13.3153 8.68858 12.5859 10.2076C13.9839 12.3949 15.0779 14.5215 15.8072 16.0405C17.0228 10.0253 13.4976 5.58984 13.4976 5.58984Z" fill="#320070"/>
<path d="M6.87225 19.3203C6.02134 20.657 5.53511 21.5684 5.53511 21.5684C4.74498 22.9659 4.25874 24.3026 4.01562 25.5785C4.0764 25.7608 4.19796 26.0039 4.31952 26.3077C5.04887 27.6444 6.20368 29.5887 7.23692 31.7152C8.08783 29.8317 9.3642 27.8874 10.519 26.1254C9.91121 24.8494 8.81718 22.7836 7.48004 20.657C7.2977 20.1709 7.05459 19.7456 6.87225 19.3203Z" fill="#320070"/>
<path d="M12.5881 10.2076C12.5881 10.1468 12.5273 10.1468 12.5273 10.0861C10.7647 6.86582 9.24523 3.03797 9.67068 0C9.67068 0 3.71432 5.89367 8.02965 15.2506C8.02965 15.2506 8.21198 15.7367 8.63744 16.5873C9.06289 15.9797 9.54913 15.3722 10.0354 14.7646C11.0686 13.3671 11.9803 11.8481 12.5881 10.2076Z" fill="#320070"/>
<path d="M16.7181 17.9226C16.7181 17.9226 16.3535 17.1327 15.8064 16.0391C15.5025 17.4973 14.9555 19.1378 14.0438 20.7175C14.0438 20.7175 13.74 21.2036 13.2537 21.9935C12.9498 22.4188 12.6459 22.8441 12.2812 23.391C13.9831 26.8543 15.4418 30.6213 15.0771 33.1732C15.1987 33.234 21.0942 28.0694 16.7181 17.9226Z" fill="#320070"/>
<path d="M14.1064 20.7184C15.0789 19.0779 15.6259 17.4982 15.869 16.0399C15.1396 14.5817 14.0456 12.3944 12.6477 10.207C12.0399 11.8475 11.1282 13.3665 10.1557 14.764C9.6695 15.3716 9.18327 16.0399 8.75781 16.5868C8.75781 16.6475 8.81859 16.6475 8.81859 16.7083C9.6695 18.3488 11.1282 20.7792 12.4046 23.3918C12.7692 22.9058 13.1339 22.4197 13.377 21.9944C13.8025 21.2045 14.1064 20.7184 14.1064 20.7184Z" fill="#320070"/>
<path d="M1.33528 44.9001C1.33528 44.5963 1.33528 44.414 1.33528 44.1709C1.33528 44.0494 1.33528 43.9887 1.2745 43.9887C1.21373 43.9887 0.788271 44.1709 0.666713 44.2925H0.545154C0.545154 44.2925 0.484375 44.2925 0.484375 44.2317C0.484375 44.2317 0.484375 44.1709 0.545154 44.1709C0.545154 44.1709 1.51762 43.5633 1.76074 43.3811C1.82152 43.3811 1.82152 43.3203 1.8823 43.3203C1.94308 43.3203 1.94308 43.3811 1.94308 43.3811C1.94308 43.4418 1.94308 43.9279 1.94308 44.7178V45.6899C1.94308 46.176 1.94308 46.6013 1.94308 46.9051C1.94308 47.0266 2.00386 47.0874 2.12541 47.2089C2.18619 47.2089 2.42931 47.2089 2.49009 47.2089C2.49009 47.2089 2.55087 47.2089 2.55087 47.2697C2.55087 47.3304 2.55087 47.3304 2.49009 47.3304C2.06463 47.3304 1.76074 47.3304 1.63918 47.3304C1.51762 47.3304 1.09217 47.3304 0.727492 47.3304C0.666713 47.3304 0.666713 47.3304 0.666713 47.2697C0.666713 47.2089 0.666713 47.2089 0.727492 47.2089C0.788271 47.2089 1.09217 47.2089 1.15295 47.1482C1.21373 47.1482 1.21373 47.0874 1.2745 46.9659C1.2745 46.7836 1.2745 46.2368 1.2745 45.7507V44.9001H1.33528Z" fill="#320070"/>
<path d="M5.71094 46.298C5.71094 45.7511 6.13639 45.3258 6.6834 45.0828C6.31873 44.9005 5.95405 44.6574 5.95405 44.1106C5.95405 43.6853 6.31873 43.1992 7.23042 43.1992C7.83821 43.1992 8.26366 43.503 8.26366 43.9891C8.26366 44.5359 7.77743 44.8397 7.47353 44.9612C7.83821 45.1435 8.38522 45.4473 8.38522 46.1764C8.38522 46.784 7.89899 47.2701 6.9873 47.2701C6.19717 47.3916 5.71094 46.9663 5.71094 46.298ZM7.04808 47.0878C7.47353 47.0878 7.77743 46.784 7.77743 46.298C7.77743 45.8119 7.35198 45.5081 6.86574 45.265C6.56185 45.3866 6.25795 45.7511 6.25795 46.2372C6.31873 46.784 6.62263 47.0878 7.04808 47.0878ZM7.10886 43.503C6.6834 43.503 6.50107 43.8676 6.50107 44.1106C6.50107 44.4752 6.68341 44.6574 7.23042 44.9005C7.35198 44.8397 7.71665 44.5967 7.71665 44.1106C7.71665 43.7461 7.41276 43.503 7.10886 43.503Z" fill="#320070"/>
<path d="M14.0996 44.7178C14.0996 46.176 12.8232 47.0874 12.2154 47.3912H12.1547C12.1547 47.3912 12.0939 47.3912 12.0939 47.3304C12.0939 47.2697 12.1547 47.2697 12.1547 47.2697C12.7017 46.9051 13.4918 46.0545 13.4918 44.9001C13.4918 43.9887 13.0664 43.5633 12.7017 43.5633C12.337 43.5633 12.0939 43.9279 12.0939 44.3532C12.0939 45.1431 12.5801 45.3254 12.8232 45.3254C13.0664 45.3254 13.1271 45.3254 13.1879 45.2646C13.2487 45.2646 13.2487 45.2039 13.2487 45.2039C13.2487 45.2039 13.3095 45.2039 13.3095 45.2646V45.3254C13.1879 45.4469 12.884 45.5077 12.5801 45.5077C11.79 45.5077 11.5469 44.9608 11.5469 44.5355C11.5469 43.8064 12.0939 43.3203 12.884 43.3203C13.6741 43.3203 14.0996 43.9279 14.0996 44.7178Z" fill="#320070"/>
<path d="M17.1953 45.8722C17.1953 44.9001 17.9854 43.7456 19.0795 43.3203C19.1402 43.3203 19.1402 43.3203 19.201 43.3203C19.201 43.3203 19.2618 43.3203 19.2618 43.3811C19.2618 43.4418 19.201 43.4418 19.1402 43.5026C18.5325 43.8671 17.8031 44.7178 17.8031 45.933C17.8031 46.5406 18.107 47.2089 18.5932 47.2089C18.9579 47.2089 19.201 46.9051 19.201 46.3583C19.201 45.6292 18.7756 45.3254 18.4717 45.3254C18.3501 45.3254 18.2893 45.3254 18.1678 45.3861C18.107 45.3861 18.107 45.3861 18.0462 45.3861C18.0462 45.3861 17.9854 45.3861 17.9854 45.3254C17.9854 45.2646 17.9854 45.2646 18.0462 45.2646C18.1678 45.1431 18.4717 45.0823 18.7756 45.0823C19.5049 45.0823 19.8088 45.6292 19.8088 46.1152C19.8088 46.9051 19.2618 47.452 18.4717 47.452C17.8031 47.3912 17.1953 46.7836 17.1953 45.8722Z" fill="#320070"/>
<path d="M27.9601 47.576C27.8386 47.576 27.6562 47.4545 27.6562 47.2722V12.214C27.6562 12.0924 27.7778 11.9102 27.9601 11.9102C28.1425 11.9102 28.264 12.0317 28.264 12.214V47.3329C28.1425 47.5152 28.0817 47.576 27.9601 47.576Z" fill="#320070"/>
<path d="M42.6014 12.0898C42.4798 12.0898 42.2975 12.0898 42.1759 12.0898C42.0543 12.0898 41.872 12.0898 41.8112 12.0898C40.9603 12.0898 40.1094 12.0898 39.6232 12.1506C39.4408 12.1506 39.1977 12.1506 39.1369 12.1506C39.1369 12.1506 39.0154 12.1506 38.833 12.1506C38.4076 12.1506 37.5567 12.0898 36.8881 12.0898C36.7666 12.0898 36.5234 12.0898 36.5234 12.2721C36.5234 12.3329 36.5842 12.3936 36.7058 12.3936C36.8881 12.3936 37.192 12.3936 37.3136 12.4544C37.9214 12.5759 38.1037 12.9405 38.1645 13.4873C38.2253 14.0949 38.2253 14.7025 38.2253 17.6797V21.143C38.2253 22.9658 38.2253 24.6063 38.1645 25.3354C38.1037 25.8822 38.0429 26.3076 37.6175 26.3683C37.5567 26.3683 37.2528 26.4291 37.0705 26.4291C36.9489 26.4291 36.8881 26.4898 36.8881 26.5506C36.8881 26.6721 37.0097 26.7329 37.2528 26.7329C37.3743 26.7329 37.5567 26.7329 37.739 26.7329C37.9214 26.7329 38.1645 26.7329 38.3468 26.7329C38.7115 26.7329 39.0762 26.7329 39.1369 26.7329C39.1977 26.7329 39.3193 26.7329 39.6232 26.7329C39.9271 26.7329 40.3525 26.7936 40.7172 26.7936C41.5073 26.8544 42.5406 26.9152 43.4523 26.9152C45.8834 26.9152 48.0107 26.1253 49.4086 24.6671C50.7458 23.2696 51.5359 21.2038 51.5359 19.1379C51.5359 16.7076 50.5027 15.0671 49.6518 14.1557C47.7676 12.3329 45.0325 12.0898 42.6014 12.0898ZM40.0486 17.4367C40.0486 15.9785 40.0486 13.9126 40.0486 13.305C40.0486 13.1228 40.1094 13.0012 40.231 12.9405C40.3525 12.8797 41.0819 12.819 41.5073 12.819C44.1208 12.819 46.1266 13.1835 47.8892 15.0063C48.6185 15.7354 49.7733 17.3152 49.7733 19.9278C49.7733 21.8114 49.1655 23.6341 48.2538 24.5455C47.1598 25.6392 45.458 26.3683 43.6346 26.3683C41.8112 26.3683 40.7172 26.0645 40.3525 25.5784C40.231 25.3962 40.1702 24.5455 40.1702 24.1202C40.1702 23.7557 40.1094 21.9936 40.1094 19.9278V17.4367H40.0486Z" fill="#320070"/>
<path d="M76.2092 24.1202C76.0876 24.1202 76.0269 24.2417 76.0269 24.424C75.9661 24.8493 75.723 25.2747 75.5406 25.5177C75.0544 26.0645 74.1427 26.0645 73.231 26.0645C71.7723 26.0645 70.0705 25.943 69.8274 25.6392C69.4627 25.2747 69.4019 23.9379 69.4019 21.2038V17.6797C69.4019 14.6417 69.4019 14.0949 69.4627 13.4873C69.5235 12.7582 69.645 12.5152 70.2528 12.4544C70.4352 12.3936 70.7391 12.3936 70.8606 12.3936C70.9214 12.3936 71.043 12.3329 71.043 12.2721C71.043 12.1506 70.9214 12.0898 70.6783 12.0898C70.2528 12.0898 69.4019 12.0898 68.9157 12.1506C68.7333 12.1506 68.551 12.1506 68.551 12.1506C68.551 12.1506 68.4294 12.1506 68.2471 12.1506C67.8217 12.1506 66.9708 12.0898 66.3022 12.0898C66.1806 12.0898 65.9375 12.0898 65.9375 12.2721C65.9375 12.3329 65.9983 12.3936 66.1198 12.3936C66.3022 12.3936 66.6061 12.3936 66.7276 12.4544C67.3354 12.5759 67.5178 12.9405 67.5785 13.4873C67.6393 14.0949 67.6393 14.7025 67.6393 17.6797V21.143C67.6393 22.9658 67.6393 24.6063 67.5785 25.3354C67.5178 25.8822 67.457 26.3076 67.0315 26.3683C66.9707 26.3683 66.6669 26.4291 66.4845 26.4291C66.363 26.4291 66.3022 26.5506 66.3022 26.5506C66.3022 26.6721 66.4237 26.7329 66.6669 26.7329C66.9707 26.7329 67.3962 26.7329 67.7001 26.6721H67.7609C68.0648 26.6721 68.2471 26.6721 68.3687 26.6721C68.4294 26.6721 68.4902 26.6721 68.4902 26.6721C69.0372 26.6721 69.5843 26.6721 70.4352 26.7329C71.2253 26.7329 73.3526 26.7936 74.7505 26.7936C75.7837 26.7936 75.8445 26.7329 76.0269 26.2468C76.1484 25.7 76.3308 24.4848 76.3308 24.3025C76.3308 24.2417 76.3307 24.1202 76.2092 24.1202Z" fill="#320070"/>
<path d="M91.1661 26.5519C90.9837 26.5519 90.6798 26.5519 90.3759 26.4304C89.9505 26.3088 89.4035 25.9443 88.6741 24.243C87.8232 22.1164 85.9998 17.3772 84.9058 14.5823C84.4803 13.5493 84.1765 12.6987 84.1157 12.4557C83.9333 11.9088 83.8118 11.7266 83.6294 11.7266C83.5079 11.7266 83.4471 11.8481 83.1432 12.5164L78.7063 24.6076C78.3416 25.6405 77.9162 26.3088 77.0653 26.4304C76.9437 26.4304 76.6398 26.4911 76.5183 26.4911C76.3967 26.4911 76.3359 26.5519 76.3359 26.6126C76.3359 26.7342 76.5183 26.7949 76.7614 26.7949C77.3692 26.7949 78.0985 26.7949 78.524 26.7342C78.7063 26.7342 78.8887 26.7342 78.9494 26.7342C79.0102 26.7342 79.2533 26.7342 79.4357 26.7342C79.8003 26.7342 80.2258 26.7949 80.4689 26.7949C80.5297 26.7949 80.8336 26.7949 80.8336 26.6126C80.8336 26.5519 80.7728 26.4911 80.6513 26.4911H80.4689C80.165 26.4911 79.7396 26.3696 79.7396 25.9443C79.7396 25.5797 79.8003 25.0937 80.0435 24.6076L81.0159 21.5696C81.0767 21.5088 81.0767 21.4481 81.1375 21.4481H85.6352C85.6959 21.4481 85.7567 21.4481 85.7567 21.5088L87.4585 25.8228C87.5193 25.9443 87.5193 26.1266 87.4585 26.1873C87.4585 26.2481 87.3977 26.2481 87.337 26.3088C87.2154 26.3088 87.2154 26.4304 87.2154 26.4304C87.2154 26.5519 87.3978 26.5519 87.7016 26.5519H87.7624C88.6133 26.5519 89.7074 26.6126 90.8622 26.6126C91.1661 26.7949 91.2268 26.6734 91.1661 26.5519C91.4092 26.5519 91.2268 26.5519 91.1661 26.5519ZM85.5744 20.7797H81.5022C81.5022 20.7797 81.5022 20.7797 81.4414 20.7797V20.719L83.3255 15.0683C83.3863 14.8861 83.4471 14.8861 83.4471 14.8861C83.4471 14.8861 83.5079 14.8861 83.5687 15.0683L85.5744 20.7797Z" fill="#320070"/>
<path d="M123.56 26.5519C123.378 26.5519 123.074 26.5519 122.77 26.4304C122.345 26.3088 121.798 25.9443 121.068 24.243C120.217 22.1164 118.394 17.3772 117.3 14.5823C116.874 13.5493 116.571 12.6987 116.51 12.4557C116.327 11.9088 116.206 11.7266 116.024 11.7266C115.902 11.7266 115.841 11.8481 115.537 12.5164L111.222 24.7291C110.857 25.762 110.432 26.4304 109.581 26.5519C109.459 26.5519 109.155 26.6126 109.034 26.6126C108.912 26.6126 108.852 26.6734 108.852 26.7342C108.852 26.8557 109.034 26.9164 109.277 26.9164C109.885 26.9164 110.614 26.9164 111.04 26.8557C111.222 26.8557 111.404 26.8557 111.465 26.8557C111.526 26.8557 111.769 26.8557 111.951 26.8557C112.316 26.8557 112.741 26.9164 112.985 26.9164C113.045 26.9164 113.349 26.9164 113.349 26.7342C113.349 26.6734 113.288 26.6126 113.167 26.6126H112.985C112.681 26.6126 112.255 26.4911 112.255 26.0658C112.255 25.7012 112.316 25.2152 112.559 24.7291L113.532 21.6911C113.592 21.6304 113.592 21.5696 113.653 21.5696H118.151C118.212 21.5696 118.272 21.5696 118.272 21.6304L119.974 25.9443C120.035 26.0658 120.035 26.2481 119.974 26.3088C119.974 26.3696 119.913 26.3696 119.853 26.4304C119.731 26.4304 119.731 26.5519 119.731 26.5519C119.731 26.6734 119.913 26.6734 120.217 26.6734H120.278C121.129 26.6734 122.223 26.7342 123.378 26.7342C123.742 26.7342 123.803 26.6734 123.803 26.5519C123.742 26.5519 123.621 26.5519 123.56 26.5519ZM117.908 20.7797H113.835C113.835 20.7797 113.835 20.7797 113.775 20.7797V20.719L115.659 15.0683C115.72 14.8861 115.78 14.8861 115.78 14.8861C115.78 14.8861 115.841 14.8861 115.902 15.0683L117.908 20.7797Z" fill="#320070"/>
<path d="M110.31 12.5169C110.492 12.4561 110.857 12.4561 110.918 12.4561C111.039 12.4561 111.1 12.3954 111.1 12.2739C111.1 12.2131 111.039 12.1523 110.796 12.1523C110.371 12.1523 109.885 12.1523 109.52 12.2131C109.398 12.2131 109.216 12.2131 109.155 12.2131C109.094 12.2131 109.034 12.2131 108.851 12.2131C108.487 12.2131 107.879 12.1523 107.15 12.1523C106.967 12.1523 106.785 12.1523 106.785 12.2739C106.785 12.3346 106.846 12.3954 106.967 12.3954C107.94 12.3954 108 12.6992 108 12.9422C108 13.1245 108 13.4283 107.818 14.2182C107.393 15.8587 106.481 18.7144 105.812 21.0232C105.387 22.3599 105.022 23.5751 104.84 24.1827L101.011 13.1853C100.829 12.4561 100.646 12.2739 100.525 12.2739C100.403 12.2739 100.342 12.3954 100.038 13.1853L95.9054 24.2435L95.8446 23.8789C94.3859 18.6536 93.535 15.5549 93.3527 14.8258C93.2919 14.6435 93.2919 14.4612 93.2311 14.3397C93.1095 13.7321 92.9272 13.3068 92.9272 13.0637C92.9272 12.8207 93.0488 12.6384 93.1095 12.6384C93.2919 12.5169 93.6566 12.5169 93.8997 12.5169C93.9605 12.5169 94.082 12.5169 94.082 12.3954C94.082 12.2739 93.8997 12.2739 93.7173 12.2739C92.988 12.2739 92.3802 12.2739 92.0155 12.3346C91.894 12.3346 91.7116 12.3346 91.6508 12.3346C91.5901 12.3346 91.4685 12.3346 91.2254 12.3346C90.7392 12.3346 90.0098 12.2739 89.3412 12.2739C89.1589 12.2739 88.9766 12.3346 88.9766 12.3954C88.9766 12.5169 89.0981 12.5169 89.1589 12.5169C89.2805 12.5169 89.7667 12.5169 90.0098 12.6384C90.496 12.8207 90.7392 13.0637 91.0431 14.0966L94.5682 25.641C94.9937 26.9777 95.0545 27.1599 95.2976 27.1599C95.6015 27.1599 95.6623 26.9777 96.0269 26.127C96.6347 24.608 98.7012 19.1397 99.6737 16.4663L100.099 15.3726L103.867 26.1878C104.171 26.9777 104.293 27.2207 104.475 27.2207C104.658 27.2207 104.84 27.0384 105.326 25.5194C105.691 24.4258 106.359 22.3599 107.089 20.2941C107.818 18.1675 108.487 15.9802 108.912 14.7042C109.459 13.5498 109.763 12.7599 110.31 12.5169Z" fill="#320070"/>
<path d="M138.148 26.5506C138.087 26.5506 138.087 26.5506 138.026 26.5506C137.965 26.5506 137.905 26.5506 137.722 26.4898C137.297 26.4291 136.628 26.186 135.534 25.0924C134.562 24.0595 133.346 22.4797 132.009 20.8392C131.887 20.6569 131.644 20.4139 131.523 20.1101C133.468 19.0772 134.379 17.8012 134.197 15.6139C134.075 14.2772 132.981 13.305 132.495 12.9405C131.462 12.1506 130.125 12.0898 128.909 12.0898C128.545 12.0898 127.815 12.0898 127.268 12.1506C126.904 12.1506 126.721 12.1506 126.66 12.1506C126.66 12.1506 126.539 12.1506 126.356 12.1506C125.931 12.1506 125.08 12.0898 124.412 12.0898C124.29 12.0898 124.047 12.0898 124.047 12.2721C124.047 12.3329 124.108 12.3936 124.229 12.3936C124.412 12.3936 124.715 12.3936 124.837 12.4544C125.445 12.5759 125.627 12.9405 125.688 13.4873C125.749 14.0949 125.749 14.7025 125.749 17.6797V21.143C125.749 22.9658 125.749 24.6063 125.688 25.3354C125.627 25.8822 125.566 26.3076 125.141 26.3683C125.08 26.3683 124.776 26.4291 124.594 26.4291C124.472 26.4291 124.412 26.4898 124.412 26.5506C124.412 26.6721 124.533 26.7329 124.776 26.7329C125.141 26.7329 125.688 26.7329 126.539 26.6721C126.6 26.6721 126.6 26.6721 126.6 26.6721C126.6 26.6721 126.721 26.6721 126.782 26.6721C127.207 26.6721 128.119 26.7329 128.97 26.7329C129.274 26.7329 129.335 26.6721 129.335 26.5506C129.335 26.5506 129.335 26.4291 129.152 26.4291C129.031 26.4291 128.605 26.3683 128.301 26.3683C127.754 26.3076 127.572 25.943 127.572 25.3354C127.511 24.4848 127.511 22.9658 127.511 21.143V20.6569C127.511 20.5354 127.572 20.5354 127.633 20.5354L130.003 20.5962C130.125 20.5962 130.125 20.5962 130.186 20.6569C130.307 20.8392 130.611 21.2038 130.915 21.6291C131.34 22.1759 131.827 22.905 132.313 23.5126L132.495 23.8164C133.468 25.1531 134.136 26.0038 134.866 26.4291C135.352 26.7329 135.899 26.7936 136.993 26.7936H137.905C138.269 26.7936 138.33 26.7329 138.33 26.6114C138.391 26.6114 138.269 26.5506 138.148 26.5506ZM127.451 13.1228C127.451 13.062 127.511 13.0012 127.572 12.9405C127.754 12.8797 128.301 12.819 128.848 12.819C131.036 12.819 132.556 14.3379 132.556 16.6468C132.556 18.105 131.705 19.1987 131.036 19.5633C130.55 19.9278 130.003 19.9278 129.578 19.9278C128.727 19.9278 127.815 19.8063 127.572 19.624C127.511 19.5633 127.451 19.5025 127.451 19.4417V13.1228Z" fill="#320070"/>
<path d="M63.7528 24.1827C63.6312 24.1827 63.5704 24.3042 63.5704 24.5473C63.4489 25.2764 63.2057 25.6409 62.6587 25.884C62.2941 26.0055 60.9569 26.0663 58.8904 26.0663C57.067 26.0663 56.7024 25.7625 56.6416 24.5473C56.6416 24.2435 56.6416 23.0283 56.6416 22.1169C56.6416 21.7523 56.6416 21.3878 56.6416 21.2663V19.6258C56.6416 19.565 56.6416 19.565 56.7631 19.565C57.1886 19.565 59.1335 19.565 59.6806 19.6258C60.4707 19.6865 60.5922 19.9296 60.653 20.1726C60.7138 20.4764 60.7138 20.5979 60.7138 20.7802C60.7138 20.9017 60.7746 20.9625 60.8354 20.9625C60.9569 20.9625 61.0177 20.7802 61.0177 20.5372C61.0177 20.4156 61.0785 19.6865 61.0785 19.2612C61.0785 18.8359 61.1393 18.5321 61.2 18.3498C61.2 18.2891 61.2 18.2283 61.2 18.1675C61.2 18.046 61.1393 17.9853 61.0785 17.9853C61.0177 17.9853 60.9569 18.046 60.7746 18.1675L60.7138 18.2283C60.5315 18.4106 60.2276 18.4106 59.8021 18.5321H59.7413C59.3159 18.5928 56.9455 18.5928 56.52 18.5928C56.4593 18.5928 56.4593 18.5928 56.4593 18.4106V13.1853C56.4593 13.0637 56.4593 13.0637 56.52 13.0637C56.8239 13.0637 60.7138 13.0637 61.0785 13.1245C62.1725 13.246 62.3548 13.4283 62.4764 13.6713C62.5372 13.8536 62.598 14.1574 62.598 14.4004C62.598 14.6435 62.6587 14.7042 62.7803 14.7042C62.9019 14.7042 62.9626 14.5827 62.9626 14.522C62.9626 14.4004 63.0234 13.9751 63.0234 13.6713C63.0234 13.4891 63.0234 13.3068 63.0234 13.246C63.0234 12.8815 63.0842 12.6992 63.145 12.5169C63.145 12.4561 63.2057 12.3954 63.2057 12.3346C63.2057 12.2131 63.145 12.1523 63.0842 12.1523C63.0234 12.1523 62.9626 12.1523 62.9018 12.2131C62.8411 12.2131 62.8411 12.2131 62.8411 12.2739C62.7803 12.2739 62.7803 12.2739 62.7195 12.2739C62.5372 12.2739 62.2333 12.3346 61.9294 12.3346C61.8078 12.3346 61.1393 12.3346 60.106 12.3346C58.5865 12.3346 56.52 12.3346 55.7907 12.3346C55.6691 12.3346 55.4868 12.3346 55.4868 12.3346C55.4868 12.3346 55.3652 12.3346 55.1829 12.3346C54.6967 12.3346 53.8457 12.2739 53.1772 12.2739C53.0556 12.2739 52.8125 12.2739 52.8125 12.4561C52.8125 12.5169 52.8733 12.6384 52.9948 12.6384C53.1772 12.6384 53.5419 12.6384 53.7242 12.6992C54.332 12.7599 54.5143 13.1245 54.5143 13.7321C54.5751 14.3397 54.5751 14.9473 54.5751 17.9245V21.3878C54.5751 23.2713 54.5751 24.8511 54.4535 25.5802V25.641C54.3928 26.1878 54.332 26.5523 53.9673 26.5523C53.9065 26.5523 53.8457 26.5523 53.785 26.6131C53.6634 26.6131 53.4811 26.6739 53.4203 26.6739C53.2987 26.6739 53.238 26.7346 53.238 26.8561C53.238 26.9777 53.3595 27.0384 53.6026 27.0384C53.9673 27.0384 54.3928 27.0384 54.8182 26.9777C55.2437 26.9777 55.6083 26.9777 55.6691 26.9777C55.973 26.9777 56.52 26.9777 57.3709 27.0384C58.2219 27.0384 61.0177 27.0992 62.5372 27.0992C63.3273 27.0992 63.5096 27.0992 63.6312 26.5523C63.7528 26.127 63.9351 24.7903 63.9351 24.6688C63.8743 24.2435 63.8135 24.1827 63.7528 24.1827Z" fill="#320070"/>
<path d="M149.084 24.1827C148.963 24.1827 148.902 24.3042 148.902 24.5473C148.78 25.2764 148.537 25.6409 147.99 25.884C147.626 26.0055 146.288 26.0663 144.222 26.0663C142.399 26.0663 142.034 25.7625 141.973 24.5473C141.973 24.2435 141.973 23.0283 141.973 22.1169C141.973 21.7523 141.973 21.3878 141.973 21.2663V19.6258C141.973 19.565 141.973 19.565 142.095 19.565C142.52 19.565 144.465 19.565 145.012 19.6258C145.802 19.6865 145.924 19.9296 145.985 20.1726C146.045 20.4764 146.045 20.5979 146.045 20.7802C146.045 20.9017 146.106 20.9625 146.167 20.9625C146.288 20.9625 146.349 20.7802 146.349 20.5372C146.349 20.4156 146.41 19.6865 146.41 19.2612C146.41 18.8359 146.471 18.5321 146.532 18.3498C146.532 18.2891 146.532 18.2283 146.532 18.1675C146.532 18.046 146.471 17.9853 146.41 17.9853C146.349 17.9853 146.288 18.046 146.228 18.1675L146.167 18.2283C145.985 18.4106 145.681 18.4106 145.255 18.5321H145.194C144.769 18.5928 142.399 18.5928 141.973 18.5928C141.912 18.5928 141.912 18.5928 141.912 18.4106V13.1853C141.912 13.0637 141.912 13.0637 141.973 13.0637C142.277 13.0637 146.167 13.0637 146.532 13.1245C147.626 13.246 147.808 13.4283 147.93 13.6713C147.99 13.8536 148.051 14.1574 148.051 14.4004C148.051 14.4612 148.051 14.7042 148.233 14.7042C148.355 14.7042 148.416 14.5827 148.416 14.522C148.416 14.4004 148.477 13.9751 148.477 13.6713C148.477 13.4891 148.477 13.3068 148.477 13.246C148.477 12.8815 148.537 12.6992 148.598 12.5169C148.598 12.4561 148.659 12.3954 148.659 12.3346C148.659 12.2131 148.598 12.1523 148.537 12.1523C148.477 12.1523 148.416 12.1523 148.355 12.2131C148.294 12.2131 148.294 12.2131 148.294 12.2739C148.233 12.2739 148.233 12.2739 148.173 12.2739C147.99 12.2739 147.686 12.3346 147.383 12.3346C147.261 12.3346 146.592 12.3346 145.559 12.3346C144.04 12.3346 141.973 12.3346 141.244 12.3346C141.122 12.3346 140.94 12.3346 140.94 12.3346C140.94 12.3346 140.818 12.3346 140.636 12.3346C140.15 12.3346 139.299 12.2739 138.63 12.2739C138.509 12.2739 138.266 12.2739 138.266 12.4561C138.266 12.5169 138.326 12.6384 138.448 12.6384C138.63 12.6384 138.995 12.6384 139.177 12.6992C139.785 12.7599 139.967 13.0637 139.967 13.7321C140.028 14.3397 140.028 14.9473 140.028 17.9245V21.3878C140.028 23.2713 140.028 24.8511 139.907 25.5802V25.641C139.846 26.1878 139.785 26.5523 139.42 26.5523C139.36 26.5523 139.299 26.5523 139.238 26.6131C139.117 26.6131 138.934 26.6739 138.873 26.6739C138.752 26.6739 138.691 26.7346 138.691 26.8561C138.691 26.9777 138.813 27.0384 139.056 27.0384C139.42 27.0384 139.846 27.0384 140.271 26.9777C140.697 26.9777 141.061 26.9777 141.122 26.9777C141.426 26.9777 141.973 26.9777 142.824 27.0384C143.675 27.0384 146.471 27.0992 147.99 27.0992C148.78 27.0992 148.963 27.0992 149.084 26.5523C149.206 26.127 149.388 24.7903 149.388 24.6688C149.206 24.2435 149.145 24.1827 149.084 24.1827Z" fill="#320070"/>
<path d="M171.393 12.6988C171.758 12.5165 172.184 12.5165 172.305 12.5165C172.366 12.5165 172.609 12.5165 172.609 12.395C172.609 12.2734 172.305 12.2734 172.244 12.2734C171.819 12.2734 171.333 12.2734 171.029 12.3342C170.907 12.3342 170.725 12.3342 170.725 12.3342C170.664 12.3342 170.421 12.3342 170.239 12.3342C169.813 12.3342 169.327 12.2734 168.78 12.2734C168.476 12.2734 168.294 12.2734 168.294 12.4557C168.294 12.5772 168.415 12.5772 168.598 12.5772C168.78 12.5772 169.084 12.5772 169.327 12.638C169.509 12.7595 169.509 13.0026 169.509 13.0633C169.509 13.1848 169.448 13.5494 169.388 13.7924C168.962 15.1899 166.349 21.9342 165.255 24.4861L161.486 14.5823C161.183 13.8532 161 13.2456 161 12.9418C161 12.8203 161 12.638 161.183 12.5772C161.304 12.5165 161.669 12.5165 161.912 12.5165C161.973 12.5165 162.094 12.5165 162.094 12.395C162.094 12.2734 161.973 12.2734 161.547 12.2734C161.061 12.2734 160.514 12.2734 160.149 12.3342C159.967 12.3342 159.785 12.3342 159.724 12.3342C159.663 12.3342 159.42 12.3342 159.238 12.3342C158.751 12.3342 158.022 12.2734 157.414 12.2734C157.11 12.2734 156.867 12.2734 156.867 12.395C156.867 12.5165 156.928 12.5165 157.05 12.5165C157.171 12.5165 157.475 12.5165 157.779 12.5772C158.508 12.7595 158.751 13.0026 159.177 14.0355L163.918 26.0051L163.978 26.0658C164.343 26.9165 164.404 27.1595 164.708 27.1595C164.829 27.1595 165.012 27.038 165.255 26.3089C165.316 26.1266 165.437 25.8836 165.559 25.5798C165.984 24.6684 166.774 22.7848 167.868 20.1114L168.233 19.2608C169.145 17.0127 170.056 14.8253 170.239 14.3393C170.846 13.1241 171.15 12.8203 171.393 12.6988Z" fill="#320070"/>
<path d="M195.764 24.1202C195.642 24.1202 195.582 24.2417 195.582 24.424C195.521 24.8493 195.278 25.2747 195.095 25.5177C194.609 26.0645 192.482 26.0645 191.692 26.0645C190.051 26.0645 189.686 25.943 189.382 25.6392C189.017 25.2747 188.957 23.9379 188.957 21.2038V17.6797C188.957 14.6417 188.957 14.0949 189.017 13.4873C189.078 12.7582 189.2 12.5152 189.808 12.4544C189.99 12.3936 190.294 12.3936 190.415 12.3936C190.476 12.3936 190.598 12.3329 190.598 12.2721C190.598 12.1506 190.476 12.0898 190.233 12.0898C189.808 12.0898 188.957 12.0898 188.47 12.1506C188.288 12.1506 188.106 12.1506 188.106 12.1506C188.106 12.1506 187.984 12.1506 187.802 12.1506C187.376 12.1506 186.525 12.0898 185.857 12.0898C185.735 12.0898 185.492 12.0898 185.492 12.2721C185.492 12.3329 185.553 12.3936 185.675 12.3936C185.857 12.3936 186.161 12.3936 186.282 12.4544C186.89 12.5759 187.072 12.9405 187.133 13.4873C187.194 14.0949 187.194 14.7025 187.194 17.6797V21.143C187.194 22.9658 187.194 24.6063 187.133 25.3354C187.072 25.8822 187.012 26.3076 186.586 26.3683C186.465 26.3683 186.222 26.4291 186.039 26.4291C185.918 26.4291 185.857 26.4898 185.857 26.5506C185.857 26.6721 185.978 26.7329 186.222 26.7329C186.525 26.7329 186.951 26.7329 187.255 26.6721H187.316C187.619 26.6721 187.802 26.6721 187.923 26.6721C187.984 26.6721 188.045 26.6721 188.045 26.6721C188.592 26.6721 189.139 26.6721 189.99 26.7329C190.78 26.7329 192.907 26.7936 194.305 26.7936C195.338 26.7936 195.399 26.7329 195.582 26.2468C195.703 25.7 195.885 24.4848 195.885 24.3025C195.885 24.2417 195.885 24.1202 195.764 24.1202Z" fill="#320070"/>
<path d="M207.131 24.1202C207.01 24.1202 206.949 24.2417 206.949 24.424C206.888 24.8493 206.645 25.2747 206.462 25.5177C205.976 26.0645 203.849 26.0645 203.059 26.0645C201.418 26.0645 201.053 25.943 200.749 25.6392C200.385 25.2747 200.324 23.9379 200.324 21.2038V17.6797C200.324 14.6417 200.324 14.0949 200.385 13.4873C200.445 12.7582 200.567 12.5152 201.175 12.4544C201.357 12.3936 201.661 12.3936 201.782 12.3936C201.843 12.3936 201.965 12.3329 201.965 12.2721C201.965 12.1506 201.843 12.0898 201.6 12.0898C201.175 12.0898 200.324 12.0898 199.838 12.1506C199.655 12.1506 199.473 12.1506 199.473 12.1506C199.473 12.1506 199.351 12.1506 199.169 12.1506C198.744 12.1506 197.893 12.0898 197.224 12.0898C197.102 12.0898 196.859 12.0898 196.859 12.2721C196.859 12.3329 196.92 12.3936 197.042 12.3936C197.224 12.3936 197.528 12.3936 197.649 12.4544C198.257 12.5759 198.44 12.9405 198.5 13.4873C198.561 14.0949 198.561 14.7025 198.561 17.6797V21.143C198.561 22.9658 198.561 24.6063 198.5 25.3354C198.44 25.8822 198.379 26.3076 197.953 26.3683C197.832 26.3683 197.589 26.4291 197.406 26.4291C197.285 26.4291 197.224 26.4898 197.224 26.5506C197.224 26.6721 197.346 26.7329 197.589 26.7329C197.893 26.7329 198.318 26.7329 198.622 26.6721H198.683C198.987 26.6721 199.169 26.6721 199.291 26.6721C199.351 26.6721 199.412 26.6721 199.412 26.6721C199.959 26.6721 200.506 26.6721 201.357 26.7329C202.147 26.7329 204.274 26.7936 205.672 26.7936C206.706 26.7936 206.766 26.7329 206.949 26.2468C207.07 25.7 207.253 24.4848 207.253 24.3025C207.313 24.2417 207.313 24.1202 207.131 24.1202Z" fill="#320070"/>
<path d="M233.812 12.0903C233.629 12.0903 232.9 12.0903 232.414 12.151C232.11 12.151 231.928 12.151 231.928 12.151C231.867 12.151 231.806 12.151 231.624 12.151C231.32 12.151 231.016 12.0903 230.651 12.0903C230.469 12.0903 230.287 12.151 230.287 12.2118C230.287 12.3333 230.408 12.3333 230.651 12.3941C230.834 12.4548 230.955 12.5763 230.955 12.8801C230.955 13.1839 230.834 13.4877 230.59 13.8523C230.165 14.5814 227.795 18.5914 227.369 19.5028C226.883 18.713 224.087 13.9131 223.783 13.427C223.662 13.1232 223.479 12.9409 223.479 12.6371C223.479 12.5156 223.54 12.4548 223.662 12.2725C223.722 12.2725 223.722 12.2725 223.783 12.2118C223.905 12.151 223.965 12.151 223.965 12.0903C223.965 11.9687 223.905 11.9688 223.662 11.9688C223.115 11.9688 222.628 11.9687 222.264 12.0295C222.142 12.0295 222.081 12.0295 221.96 12.0295C221.96 12.0295 221.777 12.0295 221.474 12.0295C220.987 12.0295 220.258 11.9688 220.015 11.9688C219.772 11.9688 219.711 12.0903 219.711 12.0903C219.711 12.2118 219.832 12.2118 219.893 12.2118C220.015 12.2118 220.44 12.3333 220.744 12.5156C221.17 12.8194 221.656 13.3055 222.081 13.9131C222.811 14.946 225.363 19.2598 225.485 19.5028C225.789 20.0497 225.91 20.475 225.91 21.5079V23.2092C225.91 23.513 225.91 24.3029 225.85 25.1536C225.85 25.5789 225.728 26.1257 225.303 26.1865C225.12 26.2472 224.877 26.2472 224.756 26.2472C224.634 26.2472 224.573 26.308 224.573 26.3687C224.573 26.4903 224.695 26.551 224.938 26.551C225.363 26.551 226.032 26.5509 226.579 26.4902C226.701 26.4902 226.883 26.4902 226.944 26.4902C226.944 26.4902 227.004 26.4902 227.126 26.4902C227.551 26.4902 228.463 26.551 229.314 26.551C229.618 26.551 229.679 26.4903 229.679 26.3687C229.679 26.308 229.618 26.2472 229.496 26.2472C229.375 26.2472 228.949 26.1865 228.645 26.1865C228.159 26.1257 227.916 25.7612 227.855 25.1536C227.795 24.3029 227.795 23.513 227.795 23.2092V21.6903C227.795 21.0827 227.795 20.4143 228.098 19.746C228.463 18.8953 231.198 14.3384 231.806 13.6093C232.231 13.1232 232.414 12.8194 232.839 12.6371C233.143 12.4548 233.447 12.3333 233.751 12.3333C233.872 12.3333 234.055 12.2725 234.055 12.151C234.116 12.2118 233.994 12.0903 233.812 12.0903Z" fill="#320070"/>
<path d="M218.981 24.1827C218.859 24.1827 218.799 24.3042 218.799 24.5473C218.677 25.2764 218.434 25.6409 217.887 25.884C217.522 26.0055 216.185 26.0663 214.119 26.0663C212.295 26.0663 211.931 25.7625 211.87 24.5473C211.87 24.2435 211.87 23.0283 211.87 22.1169C211.87 21.7523 211.87 21.3878 211.87 21.2663V19.6258C211.87 19.565 211.87 19.565 211.991 19.565C212.417 19.565 214.362 19.565 214.909 19.6258C215.699 19.6865 215.821 19.9296 215.881 20.1726C215.942 20.4764 215.942 20.5979 215.942 20.7802C215.942 20.9017 216.003 20.9625 216.064 20.9625C216.185 20.9625 216.246 20.7802 216.246 20.5372C216.246 20.4156 216.307 19.6865 216.307 19.2612C216.307 18.8359 216.368 18.5321 216.428 18.3498C216.428 18.2891 216.428 18.2283 216.428 18.1675C216.428 17.9853 216.307 17.9853 216.307 17.9853C216.246 17.9853 216.185 18.046 216.003 18.1675L215.942 18.2283C215.76 18.4106 215.456 18.4106 215.03 18.5321H214.97C214.544 18.5928 212.174 18.5928 211.748 18.5928C211.688 18.5928 211.688 18.5928 211.688 18.4106V13.1853C211.688 13.0637 211.688 13.0637 211.748 13.0637C212.052 13.0637 215.942 13.0637 216.307 13.1245C217.401 13.246 217.583 13.4283 217.705 13.6713C217.765 13.8536 217.826 14.2182 217.826 14.4004C217.826 14.4612 217.826 14.7042 218.009 14.7042C218.13 14.7042 218.191 14.5827 218.191 14.522C218.191 14.4004 218.252 13.9751 218.252 13.6713C218.252 13.4891 218.252 13.3068 218.312 13.246C218.312 12.8815 218.373 12.6992 218.434 12.5169C218.434 12.4561 218.495 12.3954 218.495 12.3346C218.495 12.2131 218.434 12.1523 218.373 12.1523C218.312 12.1523 218.252 12.1523 218.191 12.2131C218.13 12.2131 218.13 12.2131 218.13 12.2739C218.069 12.2739 218.069 12.2739 218.009 12.2739C217.826 12.2739 217.522 12.3346 217.218 12.3346C217.097 12.3346 216.428 12.3346 215.395 12.3346C213.876 12.3346 211.809 12.3346 211.08 12.3346C210.958 12.3346 210.776 12.3346 210.776 12.3346C210.776 12.3346 210.654 12.3346 210.472 12.3346C209.986 12.3346 209.135 12.2739 208.466 12.2739C208.345 12.2739 208.102 12.2739 208.102 12.4561C208.102 12.5169 208.162 12.6384 208.284 12.6384C208.466 12.6384 208.831 12.6384 209.013 12.6992C209.621 12.7599 209.803 13.0637 209.803 13.7321C209.864 14.3397 209.864 14.9473 209.864 17.9245V21.3878C209.864 23.2713 209.864 24.8511 209.743 25.5802V25.641C209.682 26.1878 209.621 26.5523 209.256 26.5523C209.196 26.5523 209.135 26.5523 209.074 26.6131C208.952 26.6131 208.77 26.6739 208.709 26.6739C208.588 26.6739 208.527 26.7346 208.527 26.8561C208.527 26.9777 208.649 27.0384 208.892 27.0384C209.256 27.0384 209.682 27.0384 210.107 26.9777C210.533 26.9777 210.897 26.9777 210.958 26.9777C211.262 26.9777 211.809 26.9777 212.66 27.0384C213.511 27.0384 216.307 27.0992 217.826 27.0992C218.616 27.0992 218.799 27.0992 218.92 26.5523C219.042 26.127 219.224 24.7903 219.224 24.6688C219.103 24.2435 219.042 24.1827 218.981 24.1827Z" fill="#320070"/>
<path d="M184.822 26.5519C184.64 26.5519 184.336 26.5519 184.032 26.4304C183.607 26.3088 183.06 25.9443 182.33 24.243C181.479 22.1164 179.656 17.3772 178.562 14.5823C178.137 13.5493 177.833 12.6987 177.772 12.4557C177.59 11.9088 177.468 11.7266 177.286 11.7266C177.164 11.7266 177.103 11.8481 176.799 12.5164L172.363 24.6076C171.998 25.6405 171.572 26.3088 170.722 26.4304C170.6 26.4304 170.296 26.4911 170.175 26.4911C170.053 26.4911 169.992 26.5519 169.992 26.6126C169.992 26.7342 170.175 26.7949 170.418 26.7949C171.025 26.7949 171.755 26.7949 172.18 26.7342C172.363 26.7342 172.545 26.7342 172.606 26.7342C172.666 26.7342 172.91 26.7342 173.092 26.7342C173.457 26.7342 173.882 26.7949 174.125 26.7949C174.186 26.7949 174.49 26.7949 174.49 26.6126C174.49 26.5519 174.429 26.4911 174.308 26.4911H174.125C173.821 26.4911 173.396 26.3696 173.396 25.9443C173.396 25.5797 173.457 25.0937 173.7 24.6076L174.672 21.5696C174.733 21.5088 174.733 21.4481 174.794 21.4481H179.291C179.352 21.4481 179.413 21.4481 179.413 21.5088L181.115 25.8228C181.176 25.9443 181.176 26.1266 181.115 26.1873C181.115 26.2481 181.054 26.2481 180.993 26.3088C180.872 26.3088 180.872 26.4304 180.872 26.4304C180.872 26.5519 181.054 26.5519 181.358 26.5519H181.419C182.27 26.5519 183.364 26.6126 184.518 26.6126C184.822 26.7949 184.883 26.6734 184.822 26.5519ZM179.109 20.7797H175.037C175.037 20.7797 175.037 20.7797 174.976 20.7797V20.719L176.86 15.0683C176.921 14.8861 176.982 14.8861 176.982 14.8861C176.982 14.8861 177.043 14.8861 177.103 15.0683L179.109 20.719V20.7797Z" fill="#320070"/>
<path d="M48.6149 35.2426C48.2502 35.2426 47.8248 35.2426 47.5817 35.3034H47.5209C47.3993 35.3034 47.3386 35.3034 47.3386 35.3034C47.3386 35.3034 47.217 35.3034 47.1562 35.3034C46.7915 35.3034 46.2445 35.2426 45.6975 35.2426C45.6367 35.2426 45.3936 35.2426 45.3936 35.3641C45.3936 35.4249 45.4544 35.4857 45.576 35.4857C45.6975 35.4857 46.0014 35.4857 46.123 35.5464C46.6092 35.6679 46.7308 35.911 46.7308 36.397C46.7308 36.8831 46.7308 37.3692 46.7308 39.8603V41.8046C46.7308 43.6882 46.4269 44.9034 45.8191 45.6325C45.2721 46.3616 44.2996 46.7262 43.3879 46.7262C42.4762 46.7262 41.7469 46.6046 41.0175 45.8755C40.4705 45.3287 39.8019 44.4173 39.8019 42.0477V39.7996C39.8019 37.3692 39.8019 36.8831 39.8019 36.3363C39.8019 35.7894 39.9235 35.5464 40.3489 35.4857C40.5313 35.4857 40.6528 35.4249 40.7136 35.4249C40.7744 35.4249 40.896 35.4249 40.896 35.3034C40.896 35.1211 40.7136 35.1819 40.5921 35.1819C40.2882 35.1819 39.8019 35.1819 39.498 35.1819H39.4373C39.3157 35.1819 39.1334 35.1819 39.0726 35.1819C39.0118 35.1819 38.951 35.1819 38.7079 35.1819C38.3432 35.1819 37.7354 35.1211 37.2492 35.1211C37.1884 35.1211 36.9453 35.1211 36.9453 35.2426C36.9453 35.3034 37.0061 35.3641 37.1276 35.3641C37.2492 35.3641 37.5531 35.3641 37.6747 35.4249C38.1609 35.5464 38.2825 35.7894 38.2825 36.2755C38.2825 36.7616 38.2825 37.2477 38.2825 39.7388V42.0477C38.2825 44.5996 39.0726 45.6325 39.6804 46.2401C40.7136 47.2122 42.1723 47.3338 42.9625 47.3338C43.8134 47.3338 45.0897 47.2122 46.2445 46.1186C47.5817 44.9034 47.7032 42.9591 47.7032 41.3793V39.6781C47.7032 37.2477 47.7032 36.7616 47.7032 36.2148C47.7032 35.6679 47.8248 35.4249 48.2502 35.3641C48.4326 35.3641 48.5541 35.3034 48.6149 35.3034C48.7365 35.3034 48.7973 35.2426 48.7973 35.1819C48.858 35.1819 48.6757 35.2426 48.6149 35.2426Z" fill="#320070"/>
<path d="M71.7688 35.2413C71.3433 35.2413 70.9787 35.2413 70.7356 35.2413H70.6748C70.5532 35.2413 70.4924 35.2413 70.3709 35.2413C70.3101 35.2413 70.2493 35.2413 70.067 35.2413H70.0062C69.6415 35.2413 69.1553 35.2413 68.6691 35.2413C68.5475 35.2413 68.3044 35.2413 68.3044 35.3628C68.3044 35.4236 68.3044 35.4843 68.4867 35.4843C68.6083 35.4843 68.973 35.4843 69.2768 35.5451C69.7023 35.6666 69.8239 35.9704 69.8239 37.0033L69.9454 44.9021C69.6415 44.5983 69.2161 44.1122 68.6083 43.5046C67.8181 42.654 66.9672 41.7426 66.2379 40.8919C63.7459 38.1578 61.3756 35.7274 61.1932 35.4236C61.1324 35.3628 61.1324 35.3628 61.0717 35.3021C60.8893 35.1198 60.707 34.9375 60.5854 34.9375C60.4031 34.9375 60.4031 35.2413 60.4031 35.7881V44.9021C60.4031 46.3603 60.3423 46.7856 59.9776 46.8464C59.7953 46.9071 59.4914 46.9071 59.3698 46.9071C59.2483 46.9071 59.1875 46.9679 59.1875 47.0286C59.1875 47.2109 59.3698 47.1502 59.4914 47.1502C59.9776 47.1502 60.4639 47.1502 60.7678 47.0894C60.8893 47.0894 60.9501 47.0894 61.0717 47.0894C61.1932 47.0894 61.1932 47.0894 61.254 47.0894C61.5579 47.0894 62.0441 47.1502 62.7127 47.1502C62.7735 47.1502 63.0774 47.1502 63.0774 47.0286C63.0774 46.9679 63.0166 46.9071 62.895 46.9071C62.8343 46.9071 62.4696 46.9071 62.1049 46.8464C61.6794 46.7248 61.5579 46.2995 61.5579 45.0843L61.254 37.7932C61.801 38.4008 63.5028 40.3451 65.3262 42.2286C67.028 44.0514 69.2769 46.3603 69.4592 46.4818C70.3101 47.3324 70.4924 47.454 70.6748 47.454C70.8571 47.454 70.8571 47.3324 70.8571 46.2388V37.0033C70.8571 36.0312 70.9179 35.7274 71.4041 35.6666C71.5865 35.6059 71.708 35.6059 71.7688 35.6059C71.8904 35.6059 71.9511 35.5451 71.9511 35.4843C72.1335 35.1805 71.8904 35.2413 71.7688 35.2413Z" fill="#320070"/>
<path d="M88.3682 46.9689C88.2466 46.9689 87.8819 46.9689 87.6388 46.9082C87.2133 46.8474 87.1526 46.5436 87.0918 46.0575C87.031 45.45 87.031 44.174 87.031 42.5943V39.7993C87.031 37.3689 87.031 36.8829 87.031 36.336C87.031 35.7892 87.1526 35.5462 87.578 35.4854C87.7604 35.4854 87.8819 35.4246 88.0035 35.4246C88.125 35.4246 88.1858 35.3639 88.1858 35.3031C88.1858 35.1208 88.0035 35.1816 87.8819 35.1816C87.5172 35.1816 86.9702 35.1816 86.6056 35.2424H86.484C86.4232 35.2424 86.3624 35.2424 86.3624 35.2424C86.3624 35.2424 86.3017 35.2424 86.2409 35.2424H86.1801C85.8154 35.2424 85.2076 35.1816 84.843 35.1816C84.7822 35.1816 84.5391 35.1816 84.5391 35.3031C84.5391 35.3639 84.5998 35.4246 84.7214 35.4246C84.7822 35.4246 85.0253 35.4246 85.2076 35.4854C85.5115 35.5462 85.6939 35.85 85.6939 36.336C85.6939 36.8221 85.6939 37.3082 85.6939 39.7993V42.5943C85.6939 44.1132 85.6939 45.3892 85.6331 46.0575C85.5723 46.4829 85.5115 46.8474 85.2076 46.9082C85.0861 46.9689 84.843 46.9689 84.7214 46.9689C84.5998 46.9689 84.5391 47.0297 84.5391 47.0905C84.5391 47.2727 84.7214 47.212 84.843 47.212C85.2076 47.212 85.8154 47.212 86.1193 47.1512H86.1801C86.2409 47.1512 86.3017 47.1512 86.3017 47.1512C86.3017 47.1512 86.3624 47.1512 86.484 47.1512C86.8487 47.1512 87.5172 47.212 88.2466 47.212C88.5505 47.212 88.5505 47.1512 88.5505 47.0905C88.4897 47.0297 88.4289 46.9689 88.3682 46.9689Z" fill="#320070"/>
<path d="M111.464 35.2404C111.099 35.2404 110.674 35.2404 110.492 35.3012H110.431C110.37 35.3012 110.309 35.3012 110.249 35.3012C110.188 35.3012 110.066 35.3012 109.884 35.3012H109.823C109.458 35.3012 109.033 35.3012 108.607 35.3012C108.425 35.3012 108.182 35.3012 108.182 35.4227C108.182 35.4835 108.243 35.5442 108.364 35.5442C108.486 35.5442 108.79 35.5442 108.911 35.605C109.033 35.6658 109.033 35.9088 109.033 35.9088C109.033 36.0303 108.972 36.3341 108.911 36.4556C108.547 37.4885 106.541 42.8354 105.569 45.1442L102.773 37.0632C102.59 36.4556 102.347 36.0303 102.347 35.7873C102.347 35.7265 102.347 35.605 102.469 35.4835C102.59 35.4227 102.894 35.4227 103.016 35.4227C103.077 35.4227 103.198 35.4227 103.198 35.3012C103.198 35.1797 103.016 35.1797 102.712 35.1797C102.347 35.1797 101.861 35.1797 101.618 35.1797H101.557C101.436 35.1797 101.375 35.1797 101.253 35.1797C101.192 35.1797 101.132 35.1797 100.889 35.1797H100.828C100.463 35.1797 99.8553 35.1797 99.369 35.1797C99.1867 35.1797 98.8828 35.1797 98.8828 35.3012C98.8828 35.4227 98.9436 35.4227 99.0652 35.4227C99.1259 35.4227 99.4298 35.4227 99.6122 35.4835C100.159 35.605 100.402 35.848 100.706 36.6987L104.535 46.3594L104.596 46.4202C104.9 47.1493 104.961 47.3316 105.143 47.3316C105.265 47.3316 105.325 47.2101 105.629 46.6025C105.69 46.481 105.751 46.2379 105.933 46.0556C106.298 45.3265 106.906 43.8075 107.817 41.7417L108.547 40.0404C109.155 38.5822 109.641 37.367 109.823 37.0025C110.249 35.9088 110.552 35.6658 110.674 35.5442C110.978 35.362 111.282 35.362 111.403 35.362C111.525 35.362 111.707 35.3012 111.707 35.2404C111.829 35.1797 111.586 35.2404 111.464 35.2404Z" fill="#320070"/>
<path d="M166.406 40.2857L165.92 39.9211C165.799 39.7996 165.556 39.7388 165.434 39.5565C164.158 38.5844 163.489 38.1591 163.489 37.3084C163.489 36.2755 164.279 35.5464 165.434 35.5464C166.893 35.5464 167.744 36.154 167.865 36.397C167.926 36.5186 168.047 36.9439 168.047 37.1869C168.047 37.3084 168.047 37.4907 168.23 37.4907C168.351 37.4907 168.351 37.3084 168.351 37.0654C168.351 36.2148 168.412 35.6679 168.412 35.5464C168.412 35.4857 168.412 35.4857 168.412 35.4249C168.412 35.3034 168.291 35.3034 168.23 35.3034C168.108 35.3034 168.047 35.2426 167.683 35.2426C167.257 35.1819 166.346 35.1211 165.738 35.1211C164.705 35.1211 163.854 35.3034 163.246 35.911C162.638 36.397 162.273 37.1869 162.273 38.0375C162.273 39.2527 163.124 40.4072 164.887 41.5008L165.859 42.0477C167.379 43.0198 168.169 43.6882 168.169 44.9034C168.169 46.1186 166.953 46.9084 165.434 46.9084C164.158 46.9084 163.246 46.3616 163.064 45.3894C163.003 45.2072 163.003 44.9641 163.003 44.8426C163.003 44.7819 163.003 44.6603 162.881 44.6603C162.76 44.6603 162.76 44.7819 162.76 44.9641C162.76 45.0249 162.76 45.0857 162.76 45.1464C162.76 45.511 162.699 45.997 162.699 46.6046C162.699 47.03 162.699 47.0907 163.003 47.2122C163.611 47.516 164.34 47.6376 165.252 47.6376C166.467 47.6376 167.44 47.4553 168.169 47.03C169.202 46.4831 169.81 45.5717 169.81 44.3565C169.688 42.716 168.655 41.8046 166.406 40.2857Z" fill="#320070"/>
<path d="M185.732 46.9689C185.61 46.9689 185.246 46.9689 185.003 46.9082C184.577 46.8474 184.516 46.5436 184.456 46.0575C184.395 45.45 184.395 44.174 184.395 42.5943V39.7993C184.395 37.3689 184.395 36.8829 184.395 36.336C184.395 35.7892 184.516 35.5462 184.942 35.4854C185.124 35.4854 185.246 35.4246 185.306 35.4246C185.367 35.4246 185.489 35.4246 185.489 35.3031C185.489 35.1208 185.306 35.1816 185.185 35.1816C184.82 35.1816 184.273 35.1816 183.909 35.2424H183.787C183.726 35.2424 183.665 35.2424 183.665 35.2424C183.665 35.2424 183.544 35.2424 183.483 35.2424C183.058 35.2424 182.511 35.1816 182.146 35.1816C182.085 35.1816 181.781 35.1816 181.781 35.3031C181.781 35.3639 181.842 35.4246 181.964 35.4246C182.024 35.4246 182.267 35.4246 182.45 35.4854C182.815 35.5462 182.936 35.85 182.936 36.336C182.936 36.8221 182.936 37.3082 182.936 39.7993V42.5943C182.936 44.1132 182.936 45.3892 182.875 46.0575C182.815 46.4829 182.754 46.8474 182.45 46.9082C182.328 46.9082 182.085 46.9689 181.964 46.9689C181.842 46.9689 181.781 47.0297 181.781 47.0905C181.781 47.2727 181.964 47.212 182.085 47.212C182.45 47.212 182.936 47.212 183.422 47.1512H183.483C183.605 47.1512 183.665 47.1512 183.665 47.1512C183.665 47.1512 183.726 47.1512 183.848 47.1512C184.212 47.1512 184.942 47.212 185.61 47.212C185.914 47.212 185.914 47.1512 185.914 47.0905C185.914 47.0297 185.853 46.9689 185.732 46.9689Z" fill="#320070"/>
<path d="M206.46 35.1215C206.46 35.1215 206.399 35.1215 206.338 35.1215C206.278 35.1215 206.217 35.1823 206.035 35.1823C205.731 35.243 205.427 35.243 204.94 35.243H198.984C198.802 35.243 198.194 35.243 197.708 35.1823C197.404 35.1823 197.282 35.1215 197.161 35.0608C197.1 35.0608 197.039 35 197.039 35C196.978 35 196.918 35.1215 196.857 35.3646C196.857 35.4253 196.492 36.8228 196.492 37.0051C196.492 37.1873 196.553 37.1873 196.614 37.1873C196.735 37.1873 196.796 37.1266 196.796 37.0051C196.857 36.8835 196.857 36.8228 197.1 36.519C197.282 36.1544 197.647 36.0329 198.619 36.0329H200.929V42.7165C200.929 44.2354 200.929 45.5114 200.868 46.1797C200.808 46.6051 200.747 46.9696 200.443 47.0304C200.321 47.0911 200.078 47.0911 199.957 47.0911C199.835 47.0911 199.774 47.1519 199.774 47.2127C199.774 47.3949 199.957 47.3342 200.078 47.3342C200.443 47.3342 201.051 47.3342 201.355 47.2734H201.415C201.476 47.2734 201.537 47.2734 201.537 47.2734C201.537 47.2734 201.598 47.2734 201.719 47.2734C202.084 47.2734 202.752 47.3342 203.482 47.3342C203.786 47.3342 203.786 47.2734 203.786 47.2127C203.786 47.1519 203.725 47.0911 203.603 47.0911C203.482 47.0911 203.117 47.0911 202.874 47.0304C202.449 46.9696 202.388 46.6658 202.327 46.1797C202.266 45.5722 202.266 44.2962 202.266 42.7165V36.0329H204.211C205.852 36.0329 206.035 36.4582 206.095 36.8835V37.0051C206.095 37.1873 206.156 37.3696 206.278 37.3696C206.338 37.3696 206.399 37.3696 206.399 37.0658C206.399 37.0051 206.399 36.8835 206.399 36.5797V36.4582C206.399 36.0329 206.399 35.6076 206.399 35.3646C206.582 35.243 206.582 35.1215 206.46 35.1215Z" fill="#320070"/>
<path d="M226.821 35.2422C226.639 35.2422 226.214 35.2422 225.788 35.2422H225.606C225.484 35.2422 225.302 35.2422 225.241 35.2422C225.18 35.2422 225.12 35.2422 224.937 35.2422C224.755 35.2422 224.451 35.2422 224.147 35.2422C223.843 35.2422 223.843 35.3029 223.843 35.3637C223.843 35.4852 223.965 35.4852 224.147 35.546C224.269 35.6067 224.33 35.6675 224.33 35.9713C224.33 36.1536 224.269 36.4574 224.026 36.7612C223.722 37.1865 221.838 40.4675 221.412 41.3181C220.926 40.5283 218.799 36.8219 218.556 36.3966C218.434 36.2143 218.373 35.9713 218.373 35.8498C218.373 35.789 218.434 35.7283 218.495 35.6675C218.495 35.6675 218.556 35.6675 218.556 35.6067C218.616 35.546 218.738 35.546 218.738 35.4852C218.738 35.3637 218.616 35.3637 218.434 35.3637C218.009 35.3637 217.583 35.3637 217.34 35.4245C217.279 35.4245 217.158 35.4245 217.158 35.4245C217.158 35.4245 217.036 35.4245 216.854 35.4245H216.671C216.307 35.4245 215.76 35.4245 215.577 35.4245C215.395 35.4245 215.273 35.4852 215.273 35.546C215.273 35.6067 215.334 35.6675 215.456 35.6675C215.577 35.6675 215.881 35.7283 216.064 35.8498C216.428 36.0321 216.793 36.4574 217.097 37.065C217.644 37.9156 219.771 41.3789 219.893 41.6219C220.075 42.0473 220.257 42.4118 220.257 43.2624V44.5991C220.257 44.9029 220.257 45.5105 220.197 46.2397C220.197 46.7257 220.014 47.0295 219.771 47.0903C219.65 47.151 219.406 47.151 219.285 47.151C219.163 47.151 219.103 47.2118 219.103 47.2726C219.103 47.4548 219.285 47.3941 219.406 47.3941C219.771 47.3941 220.379 47.3941 220.683 47.3333H220.744C220.804 47.3333 220.865 47.3333 220.865 47.3333C220.865 47.3333 220.926 47.3333 221.047 47.3333C221.412 47.3333 222.141 47.3941 222.81 47.3941C223.114 47.3941 223.114 47.3333 223.114 47.2726C223.114 47.2118 223.053 47.151 222.932 47.151C222.81 47.151 222.445 47.151 222.202 47.0903C221.838 47.0295 221.655 46.7865 221.594 46.2397C221.534 45.6321 221.534 44.9029 221.534 44.5991V43.2624C221.534 42.7764 221.534 42.2903 221.716 41.7435C222.02 41.1359 224.208 37.308 224.755 36.7004C225.12 36.2751 225.241 36.0928 225.606 35.9105C225.788 35.789 226.092 35.7283 226.335 35.7283C226.457 35.7283 226.639 35.6675 226.639 35.6067C227.065 35.2422 226.943 35.2422 226.821 35.2422Z" fill="#320070"/>
<path d="M130.056 44.9624C129.935 44.9624 129.874 45.0839 129.874 45.2662C129.813 45.813 129.57 46.1168 129.144 46.2991C128.719 46.4206 127.382 46.4206 126.956 46.4206C125.68 46.4206 124.221 46.2991 124.221 45.2054C124.221 45.0232 124.221 44.1118 124.221 43.3826V42.8966C124.221 42.775 124.221 42.5928 124.221 42.532V41.1953C124.221 41.1345 124.221 41.1345 124.282 41.1345C124.464 41.1345 126.166 41.1345 126.592 41.1953C127.139 41.2561 127.321 41.3776 127.382 41.6206C127.443 41.8637 127.443 41.9852 127.443 42.1067C127.443 42.2282 127.503 42.289 127.564 42.289C127.686 42.289 127.746 42.1675 127.746 41.9244C127.746 41.8029 127.807 41.1953 127.807 40.8915C127.807 40.5877 127.868 40.3447 127.868 40.1624C127.868 40.1016 127.868 40.0409 127.868 40.0409C127.868 39.9194 127.807 39.8586 127.746 39.8586C127.686 39.8586 127.625 39.9194 127.564 39.9801C127.564 39.9801 127.564 39.9801 127.503 40.0409C127.382 40.1624 127.139 40.1624 126.774 40.2231H126.713C126.349 40.2231 124.586 40.2839 124.1 40.2839C124.039 40.2839 124.039 40.2839 124.039 40.1624V35.9092C124.039 35.7877 124.039 35.7877 124.1 35.7877C124.282 35.7877 127.625 35.7877 127.868 35.8485C128.78 35.97 128.901 36.0307 128.962 36.2738C129.023 36.3953 129.023 36.6991 129.023 36.8206C129.023 37.0029 129.084 37.1244 129.205 37.1244C129.266 37.1244 129.388 37.0029 129.388 36.9421C129.388 36.8206 129.448 36.5168 129.448 36.213V36.0915C129.448 35.97 129.448 35.9092 129.448 35.9092C129.448 35.6054 129.509 35.4839 129.509 35.3624C129.509 35.3016 129.509 35.2409 129.509 35.2409C129.509 35.0586 129.448 35.0586 129.388 35.0586C129.327 35.0586 129.266 35.0586 129.266 35.1194H129.327C129.327 35.1194 129.266 35.1194 129.205 35.1194C129.084 35.1194 128.841 35.1801 128.597 35.1801C128.476 35.1801 127.99 35.1801 127.078 35.1801C125.862 35.1801 124.282 35.1801 123.492 35.1801H123.249C123.249 35.1801 123.188 35.1801 123.066 35.1801H123.006C122.58 35.1801 121.972 35.1801 121.365 35.1801C121.304 35.1801 121 35.1801 121 35.3016C121 35.3624 121.061 35.4231 121.182 35.4231C121.304 35.4231 121.608 35.4232 121.729 35.4839C122.216 35.5447 122.276 35.7877 122.337 36.3345C122.398 36.8206 122.398 37.2459 122.398 39.6763V42.532C122.398 44.051 122.398 45.2662 122.337 45.9953V46.0561C122.276 46.4814 122.216 46.7852 121.972 46.7852C121.912 46.7852 121.912 46.7852 121.851 46.7852H121.79C121.669 46.7852 121.608 46.8459 121.486 46.8459C121.365 46.8459 121.304 46.9067 121.304 46.9675C121.304 47.0282 121.365 47.089 121.669 47.089C121.851 47.089 122.216 47.089 122.641 47.0282C123.006 47.0282 123.249 47.0282 123.37 47.0282C123.674 47.0282 124.1 47.0282 124.708 47.089C125.437 47.089 127.746 47.1497 128.962 47.1497C129.57 47.1497 129.813 47.2105 129.935 46.7244C129.995 46.3599 130.117 45.3269 130.117 45.2054C130.238 45.0232 130.178 44.9624 130.056 44.9624Z" fill="#320070"/>
<path d="M152.973 46.967C152.913 46.967 152.913 46.967 152.852 46.967C152.791 46.967 152.791 46.967 152.669 46.967C152.305 46.9063 151.819 46.7847 150.968 45.8734C150.117 45.0227 149.205 43.7468 148.111 42.3493L147.686 41.8632C149.387 40.9518 149.995 39.8582 149.874 38.1569C149.752 36.881 148.658 36.1518 148.476 35.9696C147.625 35.362 146.531 35.2404 145.558 35.2404C145.254 35.2404 144.707 35.2404 144.221 35.2404H144.16C143.978 35.2404 143.735 35.2404 143.674 35.2404H143.613H143.492C143.188 35.2404 142.459 35.1797 141.851 35.1797C141.79 35.1797 141.547 35.1797 141.547 35.3012C141.547 35.362 141.608 35.4227 141.729 35.4227C141.851 35.4227 142.155 35.4227 142.276 35.4835C142.762 35.605 142.884 35.848 142.884 36.3341C142.884 36.8202 142.884 37.3063 142.884 39.7974V42.5923C142.884 44.0506 142.884 45.3265 142.823 46.0556C142.762 46.481 142.702 46.8455 142.398 46.9063C142.215 46.967 142.033 46.967 141.912 46.967C141.79 46.967 141.729 47.0278 141.729 47.0885C141.729 47.2708 141.912 47.2101 142.033 47.2101C142.337 47.2101 142.823 47.2101 143.431 47.1493H143.492C143.492 47.1493 143.553 47.1493 143.613 47.1493H143.674C144.039 47.1493 144.768 47.2101 145.437 47.2101C145.741 47.2101 145.741 47.1493 145.741 47.0885C145.741 47.0278 145.68 46.967 145.558 46.967C145.437 46.967 145.072 46.967 144.829 46.9063C144.403 46.8455 144.343 46.5417 144.282 46.0556C144.221 45.448 144.221 44.1113 144.221 42.5923V42.2278C144.221 42.167 144.221 42.167 144.282 42.167H146.227C146.288 42.167 146.348 42.167 146.348 42.2278C146.47 42.4101 146.713 42.7139 146.895 43.0784C147.26 43.5037 147.686 44.1113 147.989 44.5974L148.172 44.7797C148.962 45.8126 149.509 46.5417 150.117 46.9063C150.542 47.0885 150.968 47.2101 151.879 47.2101H152.669C152.973 47.2101 153.034 47.2101 153.034 47.0885C153.156 47.0278 153.095 46.967 152.973 46.967ZM144.282 36.0303C144.282 35.9696 144.282 35.9088 144.343 35.9088C144.464 35.848 144.89 35.848 145.376 35.848C147.139 35.848 148.293 37.124 148.293 38.9468C148.293 40.0404 147.686 40.9518 147.078 41.3164C146.713 41.6202 146.227 41.6202 145.984 41.6202C145.254 41.6202 144.586 41.4987 144.343 41.4379C144.282 41.3772 144.282 41.3772 144.282 41.3164V36.0303Z" fill="#320070"/>
</g>
</g>
<defs>
<clipPath id="clip0_603_523">
<rect width="235" height="48" fill="white"/>
</clipPath>
</defs>
</svg>
