<svg width="184" height="48" viewBox="0 0 184 48" fill="none" xmlns="http://www.w3.org/2000/svg">
<path d="M29.0102 2.544H35.8182V45.8264H29.0102V2.544ZM39.4976 45.8264H46.3056V2.544H39.4976V45.8264ZM71.3904 35.3768C69.857 37.9738 66.913 39.5816 63.9078 39.5816C59.6144 39.5816 56.7932 36.6137 56.7932 31.7288V15.5906H49.9852V32.8417C49.9852 41.189 54.7078 46.4447 62.2518 46.4447C65.9932 46.4447 69.6118 44.6516 71.3904 41.7455V45.8264H78.2597V15.5906H71.3904V35.3768ZM95.8619 39.8288C90.8939 39.8288 87.0912 35.8715 87.0912 30.7393C87.0912 25.5454 90.8939 21.5881 95.8619 21.5881C99.4191 21.5881 102.486 23.6285 103.222 26.411H110.214C109.294 19.8568 103.099 14.9721 95.8619 14.9721C87.0912 14.9721 80.3446 21.7736 80.3446 30.7393C80.3446 39.7049 87.0912 46.4446 95.8619 46.4446C103.161 46.4446 109.478 41.6218 110.275 34.7584H103.283C102.547 37.7881 99.4191 39.8288 95.8619 39.8288ZM112.422 45.8264H119.23V15.5906H112.422V45.8264ZM115.857 1.55469C113.465 1.55469 111.502 3.59515 111.502 5.94477C111.502 8.41804 113.465 10.3967 115.857 10.3967C118.249 10.3967 120.273 8.41804 120.273 5.94477C120.273 3.59515 118.249 1.55469 115.857 1.55469ZM145.358 15.5906H152.226V45.8264H145.358V41.6219C143.886 44.4043 139.838 46.4447 135.79 46.4447C127.632 46.4447 121.376 39.5195 121.376 30.6776C121.376 21.8975 127.632 14.9722 135.79 14.9722C139.838 14.9722 143.886 17.0128 145.358 19.7951V15.5906ZM145.358 26.2256C143.947 23.5051 140.635 21.5264 137.2 21.5264C132.048 21.5264 128.062 25.4219 128.062 30.6776C128.062 35.9333 132.048 39.8906 137.2 39.8906C140.635 39.8906 143.886 37.912 145.358 35.2531V26.2256ZM171.733 14.9722C167.992 14.9722 164.496 16.7654 162.656 19.6097V15.5906H155.787V45.8264H162.656V25.9784C164.251 23.4433 167.072 21.8356 170.077 21.8356C174.371 21.8356 177.192 24.8036 177.192 29.6882V45.8264H184V28.5754C184 20.228 179.277 14.9722 171.733 14.9722ZM0 8.72721H25.3307V2.544H0V8.72721ZM6.13333 21.0937H19.1973V27.2768H6.13333V33.46H25.3307V14.9104H6.13333V21.0937ZM0 45.8264H25.3307V39.6433H0V45.8264Z" fill="#7100EB"/>
</svg>
