<svg width="48" height="48" viewBox="0 0 48 48" fill="none" xmlns="http://www.w3.org/2000/svg">
<g clip-path="url(#clip0_603_462)">
<path d="M38.0928 22.5218L30.7392 42.8186H26.7888L19.2696 22.0274L19.8456 35.1866V42.8186H14.0928V14.8946H21.6096L28.7856 35.1482L34.3992 19.2002H38.0904V22.5218H38.0928ZM38.1888 24.0002H43.476V42.8186H37.7016V35.1866L38.1912 24.0002H38.1888ZM45.6 12.0002H50.4V16.8002H45.6V21.6002H40.8V16.8002H36V12.0002H40.8V7.2002H45.6V12.0002Z" fill="#FF7800"/>
<mask id="mask0_603_462" style="mask-type:luminance" maskUnits="userSpaceOnUse" x="14" y="7" width="37" height="36">
<path d="M38.0928 22.5218L30.7392 42.8186H26.7888L19.2696 22.0274L19.8456 35.1866V42.8186H14.0928V14.8946H21.6096L28.7856 35.1482L34.3992 19.2002H38.0904V22.5218H38.0928ZM38.1888 24.0002H43.476V42.8186H37.7016V35.1866L38.1912 24.0002H38.1888ZM45.6 12.0002H50.4V16.8002H45.6V21.6002H40.8V16.8002H36V12.0002H40.8V7.2002H45.6V12.0002Z" fill="black"/>
</mask>
<g mask="url(#mask0_603_462)">
<path fill-rule="evenodd" clip-rule="evenodd" d="M0 0H57.6V57.6H0V0Z" fill="black"/>
</g>
</g>
<defs>
<clipPath id="clip0_603_462">
<rect width="48" height="48" fill="white"/>
</clipPath>
</defs>
</svg>
