<svg width="173" height="48" viewBox="0 0 173 48" fill="none" xmlns="http://www.w3.org/2000/svg">
<path d="M130.903 0.959961V23.04C130.903 24.48 131.576 25.248 133.018 25.248H140.322V27.744C140.322 28.032 140.13 28.224 139.842 28.224H128.02C124.368 28.224 123.791 26.208 123.791 24.384V2.49596C123.791 1.43996 124.176 0.959961 125.425 0.959961H130.903Z" fill="black"/>
<path d="M117.352 0.959961V26.784C117.352 27.936 116.871 28.224 115.91 28.224H110.336V2.39996C110.336 1.53596 110.624 0.959961 111.873 0.959961H117.352Z" fill="black"/>
<path d="M1.63391 4.70396C1.63391 2.59196 1.63391 0.959961 5.09391 0.959961H20.0872V3.55196C20.0872 3.74396 19.9911 3.93596 19.7028 3.93596H10.6684C9.51502 3.93596 8.93836 4.51196 8.93836 5.75996V12.672H19.5106V15.456C19.5106 15.744 19.3184 15.84 19.1261 15.84H8.93836V26.784C8.93836 27.84 8.36169 28.224 7.20836 28.224H1.63391V4.70396Z" fill="black"/>
<path d="M30.9478 0.960258V21.7923C30.9478 23.6163 31.2361 24.8643 32.4855 25.5363C34.1194 26.4963 37.0028 26.4963 38.7328 25.5363C39.8861 24.8643 40.3667 23.8083 40.3667 21.7923V2.30426C40.3667 1.44026 40.655 0.960258 41.9044 0.960258H47.3828V21.1203C47.3828 25.8243 44.4033 27.7443 41.8083 28.4163C38.3483 29.3763 33.0622 29.3763 29.7944 28.4163C25.8539 27.2643 24.0278 24.9603 24.0278 21.1203V2.30426C24.0278 1.44026 24.3161 0.864258 25.3733 0.864258H30.9478" fill="black"/>
<path d="M163.293 0.959961C161.947 0.959961 161.082 1.63196 160.794 2.87996L156.373 21.696H156.277L151.567 0.959961H145.32C144.071 0.959961 143.686 1.53596 143.686 2.59196V28.32H146.377C146.762 28.32 146.954 28.128 146.954 27.648V6.04796H147.338L153.009 28.224H156.757C158.199 28.224 158.679 27.648 159.064 26.304L164.158 6.04796H164.542V28.224H169.54C170.789 28.224 171.27 27.744 171.27 26.592V0.959961H163.293Z" fill="black"/>
<path d="M80.5411 15.7441H73.525V28.2241H79.0995C80.0606 28.2241 80.5411 27.9361 80.5411 26.7841C80.5411 26.7841 80.5411 21.5041 80.5411 15.7441Z" fill="black"/>
<path d="M80.1567 10.464C80.445 10.272 80.5411 10.08 80.5411 9.69596V0.959961H75.0628C73.8134 0.959961 73.525 1.53596 73.525 2.39996V15.648L80.1567 10.464Z" fill="#FB0020"/>
<path d="M56.1289 26.112C59.2045 25.728 60.1656 23.904 60.1656 21.216V2.39996C60.1656 1.24796 60.7422 0.959961 61.5111 0.959961H67.0856V18.72C67.0856 23.04 66.1244 25.248 63.6256 27.168C62.28 28.128 59.9733 29.28 54.7833 29.28C51.9 29.28 50.5545 29.088 50.3622 29.088C50.0739 28.992 49.9778 28.896 49.9778 28.704V26.4C51.4194 26.304 54.1106 26.4 56.1289 26.112Z" fill="black"/>
<path d="M91.2094 0.959961C87.7494 0.959961 87.7495 2.68796 87.7495 4.70396V11.712C87.7495 11.904 87.6533 11.904 87.6533 12L82.8478 15.744H87.7495V28.224H93.3239C94.4772 28.224 95.0539 27.84 95.0539 26.784V15.744H105.242C105.434 15.744 105.626 15.648 105.626 15.36V12.576H95.0539V5.66396C95.0539 4.41596 95.6306 3.83996 96.88 3.83996H105.914C106.203 3.83996 106.299 3.64796 106.299 3.45596V0.959961H91.2094Z" fill="black"/>
<path d="M10.3801 36.3838L13.6479 43.5838L16.7234 36.3838H18.2612L13.9362 46.5598C13.8401 46.8478 13.5517 46.9438 13.3595 46.9438H12.6867L8.07342 36.7678C7.9773 36.5758 8.16953 36.3838 8.36175 36.3838H10.3801Z" fill="black"/>
<path d="M28.7372 46.4641C28.7372 46.6561 28.545 46.8481 28.3528 46.8481H26.5267V35.7121C26.5267 35.5201 26.7189 35.3281 26.9111 35.3281H28.7372V46.4641Z" fill="black"/>
<path d="M91.2095 36.8645C91.2095 36.6725 91.4017 36.4805 91.69 36.4805H93.7084V46.4645C93.7084 46.6565 93.5161 46.9445 93.3239 46.9445H91.3056V36.8645" fill="black"/>
<path d="M123.599 38.8799L125.809 43.7759L128.02 38.8799H129.558L126.002 46.6559C125.906 46.8479 125.617 47.0399 125.425 47.0399H124.848L121.388 39.2639C121.292 39.0719 121.484 38.8799 121.677 38.8799H123.599Z" fill="black"/>
<path d="M144.647 39.4566C144.647 39.2646 144.839 38.9766 145.032 38.9766H146.858V46.4646C146.858 46.6566 146.666 46.8486 146.473 46.8486H144.647V39.4566Z" fill="black"/>
<path d="M62.28 38.7842C61.6072 38.7842 60.8384 39.1682 60.2617 39.6482V38.9762H58.4356C58.2434 38.9762 57.955 39.1682 57.955 39.4562V46.9442H59.7811C59.9734 46.9442 60.2617 46.7522 60.2617 46.4642V41.1842V41.0882C61.6072 39.7442 62.9528 40.4162 63.6256 40.9922V39.1682C63.3372 38.9762 63.0489 38.7842 62.28 38.7842Z" fill="black"/>
<path d="M22.2977 45.1202C22.2977 44.3522 22.2977 43.2962 22.2977 42.5282C20.76 43.0082 20.0872 43.9682 20.0872 44.7362C20.0872 45.2162 20.3755 45.7922 20.9522 45.7922C21.625 45.6962 22.0094 45.3122 22.2977 45.1202ZM21.4327 38.7842C23.9316 38.7842 24.5083 39.9362 24.5083 40.8962V46.3682C24.5083 46.5602 24.3161 46.7522 24.0277 46.7522H22.2016V46.0802V45.9842C21.5289 46.6562 20.5677 46.8482 20.0872 46.8482C19.6066 46.8482 17.7805 46.6562 17.7805 44.7362C17.7805 42.6242 20.4716 41.8562 22.2977 41.3762C22.2977 40.8002 22.2977 40.6082 22.2016 40.2242C22.1055 39.8402 21.5289 39.7442 21.3366 39.7442C20.3755 39.7442 19.3183 40.0322 18.3572 40.5122V39.4562C19.2222 39.1682 20.3755 38.7842 21.4327 38.7842Z" fill="black"/>
<path d="M56.0328 36.7679C56.6095 36.7679 56.9939 36.7679 57.5706 36.9599V35.9039C56.9939 35.7119 56.4173 35.7119 55.8406 35.7119C54.8795 35.7119 52.765 36.0959 52.765 37.9199V38.9759H51.3234V39.9359H52.765V46.8479H54.5911C54.7834 46.8479 54.9756 46.6559 54.9756 46.4639V39.9359H56.8017V38.9759H54.9756V38.4959C54.9756 37.9199 54.9756 37.7279 55.0717 37.3439C55.36 36.9599 55.8406 36.7679 56.0328 36.7679Z" fill="black"/>
<path fill-rule="evenodd" clip-rule="evenodd" d="M38.8289 43.2C38.8289 45.216 40.5589 47.04 42.6734 47.04C43.9228 47.04 44.8839 46.368 45.4606 45.792C45.9411 45.312 46.3256 44.736 46.4217 43.872H45.2684C45.1722 44.256 44.5956 45.504 43.1539 45.504C41.4239 45.504 41.1356 43.872 41.1356 42.816H46.3256C46.4217 40.608 45.1722 38.976 42.8656 38.88C40.655 38.784 38.8289 40.416 38.8289 43.2ZM42.2889 39.84C42.9617 39.84 43.6345 40.32 43.6345 41.952H41.0395C41.1356 41.28 41.2317 39.84 42.2889 39.84Z" fill="black"/>
<path d="M67.8545 39.7438C67.0856 39.8398 66.1245 41.0878 66.605 43.7758C66.8933 45.5038 67.7583 46.0798 68.4311 46.0798C69.1039 46.0798 69.8728 45.1198 69.8728 43.4878C69.8728 40.1278 68.4311 39.6478 67.8545 39.7438ZM72.2756 42.8158C72.2756 45.0238 70.5456 47.0398 68.1428 47.0398C65.8361 47.0398 64.01 45.3118 64.01 43.0078C64.01 40.7038 65.6439 38.8798 68.1428 38.8798C70.5456 38.7838 72.2756 40.5118 72.2756 42.8158Z" fill="black"/>
<path d="M116.487 39.7438C115.718 39.8398 114.757 41.0878 115.237 43.7758C115.526 45.5038 116.391 46.0798 117.063 46.0798C117.736 46.0798 118.505 45.1198 118.505 43.4878C118.505 40.1278 117.063 39.6478 116.487 39.7438ZM120.908 42.8158C120.908 45.0238 119.178 47.0398 116.775 47.0398C114.468 47.0398 112.642 45.3118 112.642 43.0078C112.642 40.7038 114.276 38.8798 116.775 38.8798C119.082 38.7838 120.908 40.5118 120.908 42.8158Z" fill="black"/>
<path d="M152.24 39.7438C151.471 39.8398 150.51 41.0878 150.991 43.7758C151.279 45.5038 152.144 46.0798 152.817 46.0798C153.489 46.0798 154.258 45.1198 154.258 43.4878C154.258 40.1278 152.913 39.6478 152.24 39.7438ZM156.757 42.8158C156.757 45.0238 155.027 47.0398 152.624 47.0398C150.318 47.0398 148.492 45.3118 148.492 43.0078C148.492 40.7038 150.126 38.8798 152.624 38.8798C154.931 38.7838 156.757 40.5118 156.757 42.8158Z" fill="black"/>
<path d="M147.05 37.0566C147.05 37.7286 146.473 38.3046 145.801 38.3046C145.128 38.3046 144.551 37.7286 144.551 37.0566C144.551 36.3846 145.128 35.8086 145.801 35.8086C146.473 35.8086 147.05 36.3846 147.05 37.0566Z" fill="black"/>
<path d="M32.87 38.9766V44.5446C32.87 45.0246 33.2545 45.6966 33.9273 45.6966C34.3117 45.6966 34.7923 45.2166 35.1767 44.7366V39.4566C35.1767 39.2646 35.3689 39.0726 35.6573 39.0726H37.4834V46.5606C37.4834 46.7526 37.2912 46.9446 37.0028 46.9446H35.1767V46.1766C34.8884 46.4646 34.6 46.6566 34.2156 46.8486C33.9273 47.0406 33.5428 47.0406 33.2545 47.0406C31.7167 47.0406 30.6595 45.7926 30.6595 44.5446V39.4566C30.6595 39.2646 30.8517 39.0726 31.14 39.0726H32.87" fill="black"/>
<path d="M139.073 38.9765V36.9605C139.073 36.7685 139.265 36.4805 139.457 36.4805H141.283V38.9765H143.109V39.9365H141.283V45.0245C141.283 45.2165 141.283 45.3125 141.379 45.4085C141.476 45.5045 141.668 45.6005 141.86 45.6005C142.341 45.6005 143.013 45.2165 143.109 45.0245V46.1765C142.629 46.5605 141.86 47.0405 140.899 47.0405C139.457 47.0405 138.977 45.9845 138.977 45.1205V39.9365H137.823V38.9765H139.073Z" fill="black"/>
<path d="M106.683 41.0879C106.779 40.9919 107.548 40.2239 108.221 40.2239C108.702 40.2239 108.99 40.7999 108.99 41.4719V46.8479H110.816C111.008 46.8479 111.201 46.6559 111.201 46.4639V41.2799C111.201 39.8399 109.951 38.8799 108.894 38.8799C107.741 38.8799 106.972 39.3599 106.587 39.6479V39.0719H104.761C104.569 39.0719 104.281 39.2639 104.281 39.4559V46.9439H106.107C106.299 46.9439 106.587 46.7519 106.587 46.5599V41.0879H106.683Z" fill="black"/>
<path d="M160.409 41.0879C160.506 40.9919 161.274 40.2239 161.947 40.2239C162.428 40.2239 162.716 40.7999 162.716 41.4719V46.8479H164.542C164.734 46.8479 164.927 46.6559 164.927 46.4639V41.2799C164.927 39.8399 163.677 38.8799 162.62 38.8799C161.467 38.8799 160.698 39.3599 160.313 39.6479V39.0719H158.583C158.391 39.0719 158.199 39.2639 158.199 39.4559V46.9439H160.025C160.217 46.9439 160.409 46.7519 160.409 46.5599V41.0879Z" fill="black"/>
<path d="M130.615 39.4562V40.5122C131.48 40.1282 132.633 39.7442 133.594 39.7442C133.787 39.7442 134.363 39.8402 134.459 40.2242C134.556 40.6082 134.556 40.8002 134.556 41.3762C132.729 41.8562 130.038 42.6242 130.038 44.7362C130.038 46.6562 131.864 46.8482 132.345 46.8482C132.826 46.8482 133.787 46.7522 134.459 45.9842V46.0802V46.7522H136.286C136.478 46.7522 136.766 46.5602 136.766 46.3682V40.8962C136.766 39.9362 136.189 38.7842 133.691 38.7842C132.633 38.7842 131.48 39.1682 130.615 39.4562ZM133.21 45.6962C132.633 45.6962 132.345 45.1202 132.345 44.6402C132.345 43.9682 133.018 43.0082 134.556 42.4322C134.556 43.2002 134.556 44.2562 134.556 45.0242C134.267 45.3122 133.883 45.6962 133.21 45.6962Z" fill="black"/>
<path d="M98.0333 41.0879C98.1294 40.9919 98.8983 40.2239 99.5711 40.2239C100.052 40.2239 100.34 40.7999 100.34 41.4719V46.8479H102.166C102.358 46.8479 102.551 46.6559 102.551 46.4639V41.2799C102.551 39.8399 101.301 38.8799 100.244 38.8799C99.0906 38.8799 98.3217 39.3599 97.9372 39.6479V39.0719H96.1111C95.9189 39.0719 95.6306 39.2639 95.6306 39.4559V46.9439H97.4567C97.6489 46.9439 97.9372 46.7519 97.9372 46.5599V41.0879H98.0333Z" fill="black"/>
<path d="M82.9439 38.7842C81.7906 38.7842 80.9256 39.2642 80.2528 39.7442C79.7722 38.9762 78.9072 38.7842 78.3306 38.7842C77.1772 38.7842 76.4083 39.2642 76.0239 39.5522V38.9762H74.1978C74.0056 38.9762 73.8134 39.1682 73.8134 39.3602V46.8482H75.6395C75.8317 46.8482 76.12 46.6562 76.12 46.4642V41.0882C76.2161 40.9922 76.985 40.2242 77.6578 40.2242C78.1384 40.2242 78.4267 40.8002 78.4267 41.4722V46.8482H80.2528C80.445 46.8482 80.6372 46.6562 80.6372 46.4642V41.0882C80.7334 40.9922 81.5022 40.2242 82.175 40.2242C82.6556 40.2242 82.9439 40.8002 82.9439 41.4722V46.8482H84.77C84.9622 46.8482 85.1545 46.6562 85.1545 46.4642V41.2802C85.1545 39.7442 84.0011 38.7842 82.9439 38.7842Z" fill="black"/>
</svg>
