<svg width="48" height="48" viewBox="0 0 48 48" fill="none" xmlns="http://www.w3.org/2000/svg">
<g clip-path="url(#clip0_603_617)">
<path fill-rule="evenodd" clip-rule="evenodd" d="M31.9104 35.4066C28.5607 38.0106 24.3517 39.561 19.7806 39.561C8.85606 39.561 0 30.705 0 19.7806C0 8.85606 8.85606 0 19.7806 0C30.705 0 39.561 8.85606 39.561 19.7806C39.561 24.3515 38.0106 28.5604 35.4069 31.9098L48 44.5029L44.5032 47.9994L31.9104 35.4066ZM34.6161 19.7806C34.6161 27.9739 27.9739 34.6161 19.7806 34.6161C11.5872 34.6161 4.94514 27.9739 4.94514 19.7806C4.94514 11.5872 11.5872 4.94514 19.7806 4.94514C27.9739 4.94514 34.6161 11.5872 34.6161 19.7806Z" fill="#1C1C1C"/>
</g>
<defs>
<clipPath id="clip0_603_617">
<rect width="48" height="48" fill="white"/>
</clipPath>
</defs>
</svg>
