<svg width="202" height="48" viewBox="0 0 202 48" fill="none" xmlns="http://www.w3.org/2000/svg">
<g clip-path="url(#clip0_603_432)">
<path d="M201.206 0.288086H0.360901V47.2801H201.206V0.288086Z" fill="white"/>
<path d="M41.354 4.56836H4.0882V43.0084H41.354V4.56836Z" fill="white"/>
<path d="M197.495 4.56836H41.3539V43.0004H197.495V4.56836Z" fill="#1B4584"/>
<path fill-rule="evenodd" clip-rule="evenodd" d="M45.9708 34.8956L45.9628 13.0156L53.145 12.9916V20.3676H59.9505V12.9916L67.1327 12.9756L67.1488 34.8876H59.9505V26.3996H53.1531L53.1691 34.8876L45.9708 34.8956Z" fill="white"/>
<path fill-rule="evenodd" clip-rule="evenodd" d="M28.5124 29.6717L16.8574 29.7037L16.8333 17.9437L28.5124 17.9277V29.6717Z" fill="#1B4584"/>
<path fill-rule="evenodd" clip-rule="evenodd" d="M24.657 42.9919H34.8372H41.354L41.3621 35.9839L41.354 25.3359H34.8212L34.8372 35.9919L24.657 36.0079V42.9919Z" fill="#E1262A"/>
<path fill-rule="evenodd" clip-rule="evenodd" d="M24.657 4.56836H34.8372H41.354L41.3621 11.5844L41.354 22.2244L34.8212 22.2324L34.8372 11.5604L24.657 11.5524V4.56836Z" fill="#E1262A"/>
<path fill-rule="evenodd" clip-rule="evenodd" d="M20.7933 42.9919H10.6051H4.08818L4.07214 35.9839L4.08818 25.3359H10.6211L10.6051 35.9919L20.7933 36.0079V42.9919Z" fill="#E1262A"/>
<path fill-rule="evenodd" clip-rule="evenodd" d="M20.7933 4.56836H10.6051H4.08818L4.07214 11.5844L4.08818 22.2244L10.6211 22.2324L10.6051 11.5604L20.7933 11.5524V4.56836Z" fill="#E1262A"/>
<path fill-rule="evenodd" clip-rule="evenodd" d="M78.4113 18.0884H79.774C83.6056 18.0884 85.1125 19.3044 85.1206 23.8564C85.1206 27.9764 83.301 29.7684 79.9344 29.7764H78.4113V18.0884ZM80.6878 34.8884C87.7177 34.8884 92.3108 31.6884 92.3108 23.4804C92.3108 16.2804 87.9181 12.9844 80.8481 12.9844H71.2291V34.8884H80.6878Z" fill="white"/>
<path fill-rule="evenodd" clip-rule="evenodd" d="M103.974 25.6004C106.25 25.6004 107.934 25.7204 107.934 27.6564C107.934 29.2564 106.579 29.6644 104.808 29.6644H101.689V25.6004H103.974ZM104.19 17.9604C105.713 17.9604 107.1 17.9604 107.1 19.6964C107.1 20.9764 106.09 21.6084 104.695 21.6084H101.665V17.9444L104.19 17.9604ZM105.192 34.7604C110.892 34.7604 114.635 33.0404 114.627 28.1444C114.693 27.0164 114.366 25.9002 113.702 24.9857C113.037 24.0713 112.075 23.4149 110.98 23.1284C111.824 22.6354 112.528 21.936 113.025 21.0962C113.523 20.2564 113.799 19.3038 113.825 18.3284C113.825 13.9764 109.874 12.8084 104.944 12.8244H94.467V34.7284L105.192 34.7604Z" fill="white"/>
<path fill-rule="evenodd" clip-rule="evenodd" d="M121.04 22.5677V14.4717H126.194V15.6557H122.859V17.7037H125.985V18.8957H122.859V22.5677H121.04Z" fill="white"/>
<path d="M131.244 14.4717H129.424V22.5677H131.244V14.4717Z" fill="white"/>
<path fill-rule="evenodd" clip-rule="evenodd" d="M139.316 14.4717H141.127V22.5597H139.236L137.817 19.6797C137.306 18.6471 136.875 17.5774 136.526 16.4797C136.59 17.1437 136.671 17.9677 136.719 18.7917C136.767 19.6157 136.815 20.3917 136.815 21.0557V22.5757H134.987V14.4717H136.871L138.29 17.4157C138.798 18.4503 139.232 19.5197 139.588 20.6157C139.524 19.8877 139.46 19.1037 139.412 18.3197C139.364 17.5357 139.324 16.7677 139.324 16.0477L139.316 14.4717Z" fill="white"/>
<path fill-rule="evenodd" clip-rule="evenodd" d="M144.069 22.5597L146.394 14.4717H148.847L151.051 22.5597H149.095L148.614 20.5117H146.482L146.009 22.5597H144.069ZM146.787 19.3597H148.342L147.845 17.0557C147.757 16.6797 147.717 16.3117 147.66 15.9357C147.66 15.7517 147.62 15.5677 147.604 15.3997C147.604 15.5677 147.548 15.7517 147.532 15.9357C147.493 16.3118 147.434 16.6857 147.356 17.0557L146.787 19.3597Z" fill="white"/>
<path fill-rule="evenodd" clip-rule="evenodd" d="M158.346 14.4717H160.165V22.5597H158.273L156.855 19.6797C156.344 18.6459 155.91 17.5764 155.556 16.4797C155.62 17.1437 155.7 17.9677 155.748 18.7917C155.796 19.6157 155.845 20.3917 155.845 21.0557V22.5757H154.017V14.4717H155.909L157.32 17.4157C157.828 18.4503 158.261 19.5197 158.618 20.6157C158.554 19.8877 158.49 19.1037 158.434 18.3197C158.378 17.5357 158.346 16.7677 158.346 16.0477V14.4717Z" fill="white"/>
<path fill-rule="evenodd" clip-rule="evenodd" d="M169.64 19.6805C169.64 19.8325 169.64 19.9925 169.64 20.1445C169.544 21.6245 168.951 22.7605 166.923 22.7605C163.941 22.7605 163.716 21.1605 163.716 19.0245V17.8645C163.804 15.8085 163.997 14.2725 166.923 14.2725C168.526 14.2725 169.456 14.9845 169.584 16.3685C169.608 16.5731 169.608 16.7798 169.584 16.9845H167.796C167.724 16.4645 167.796 15.4965 166.89 15.4965C165.464 15.4965 165.584 16.9045 165.584 17.5285V19.7765C165.584 20.4485 165.648 21.5365 166.89 21.5365C167.892 21.5365 167.78 20.2005 167.812 19.6805H169.64Z" fill="white"/>
<path d="M174.866 14.4717H173.055V22.5677H174.866V14.4717Z" fill="white"/>
<path fill-rule="evenodd" clip-rule="evenodd" d="M177.824 22.5597L180.149 14.4717H182.602L184.806 22.5597H182.858L182.377 20.5117H180.245L179.772 22.5597H177.824ZM180.533 19.3597H182.089L181.592 17.0557C181.511 16.6797 181.471 16.3117 181.423 15.9357C181.423 15.7517 181.375 15.5677 181.359 15.3997C181.359 15.5677 181.303 15.7517 181.295 15.9357C181.253 16.3119 181.192 16.6858 181.111 17.0557L180.533 19.3597Z" fill="white"/>
<path fill-rule="evenodd" clip-rule="evenodd" d="M187.748 22.5677V14.4717H189.567V21.3757H192.934V22.5677H187.748Z" fill="white"/>
<path fill-rule="evenodd" clip-rule="evenodd" d="M124.695 27.5281C124.695 26.8001 124.623 26.0881 123.629 26.0881C123.012 26.0881 122.619 26.2961 122.619 26.8481C122.619 27.4001 123.092 27.6961 123.661 28.0001C124.43 28.3826 125.168 28.8268 125.865 29.3281C126.131 29.5191 126.344 29.7741 126.483 30.0692C126.624 30.3643 126.687 30.6901 126.667 31.0161C126.667 32.5521 125.448 33.3521 123.677 33.3521C121.489 33.3521 120.711 32.3361 120.711 30.8881V30.2961H122.531V30.7681C122.531 31.5681 122.779 32.1281 123.677 32.1281C124.438 32.1281 124.807 31.8001 124.807 31.1841C124.8 30.9546 124.728 30.732 124.599 30.5422C124.47 30.3523 124.289 30.2031 124.078 30.1121C123.132 29.4961 121.946 29.0561 121.208 28.2481C120.911 27.8987 120.745 27.4579 120.735 27.0001C120.735 25.6241 121.673 24.8721 123.597 24.8721C126.491 24.8721 126.41 26.7281 126.426 27.5281H124.695Z" fill="white"/>
<path fill-rule="evenodd" clip-rule="evenodd" d="M130.731 33.1605V25.0645H135.845V26.2485H132.55V28.2885H135.588V29.4805H132.55V31.9685H135.845V33.1605H130.731Z" fill="white"/>
<path fill-rule="evenodd" clip-rule="evenodd" d="M141.656 29.6725V33.1605H139.845V25.0645H143.276C144.879 25.0645 146.049 25.5125 146.049 27.0005C146.049 27.8885 145.777 28.8165 144.558 28.9605C145.624 29.0885 145.953 29.6565 145.953 30.4325C145.953 30.7605 145.905 32.7525 146.346 32.9925V33.1445H144.35C144.177 32.4735 144.113 31.7797 144.157 31.0885C144.157 30.5925 144.157 29.9125 143.532 29.7605C143.022 29.6653 142.503 29.6305 141.985 29.6565L141.656 29.6725ZM141.656 28.4805H143.091C143.241 28.4863 143.39 28.4594 143.529 28.4018C143.668 28.3442 143.792 28.2572 143.894 28.1469C143.995 28.0365 144.071 27.9053 144.117 27.7627C144.162 27.62 144.176 27.4691 144.157 27.3205C144.157 26.4165 143.693 26.2645 143.003 26.2565H141.656V28.4805Z" fill="white"/>
<path fill-rule="evenodd" clip-rule="evenodd" d="M154.514 25.0645H156.462L154.362 33.1605H151.957L149.801 25.0645H151.749L152.887 30.2565C152.987 30.7103 153.059 31.1698 153.103 31.6325C153.142 31.8549 153.169 32.0792 153.183 32.3045C153.198 32.0792 153.224 31.8549 153.264 31.6325C153.314 31.1702 153.389 30.7109 153.488 30.2565L154.514 25.0645Z" fill="white"/>
<path d="M162.033 25.0645H160.213V33.1605H162.033V25.0645Z" fill="white"/>
<path fill-rule="evenodd" clip-rule="evenodd" d="M172.157 30.2721C172.157 30.4241 172.157 30.5921 172.157 30.7441C172.069 32.2161 171.468 33.3521 169.448 33.3521C166.458 33.3521 166.241 31.7521 166.241 29.6161V28.4641C166.313 26.4001 166.514 24.8721 169.448 24.8721C171.051 24.8721 171.981 25.5841 172.109 26.9681C172.138 27.1693 172.151 27.3726 172.149 27.5761H170.353C170.281 27.0561 170.353 26.0881 169.448 26.0881C168.021 26.0881 168.133 27.4961 168.133 28.1281V30.4001C168.133 31.0641 168.205 32.1521 169.448 32.1521C170.442 32.1521 170.329 30.8161 170.369 30.2961L172.157 30.2721Z" fill="white"/>
<path fill-rule="evenodd" clip-rule="evenodd" d="M176.165 33.1605V25.0645H181.271V26.2485H177.976V28.2885H181.014V29.4805H177.976V31.9685H181.271V33.1605H176.165Z" fill="white"/>
<path fill-rule="evenodd" clip-rule="evenodd" d="M189.006 27.5281C189.006 26.8001 188.942 26.0881 187.948 26.0881C187.339 26.0881 186.946 26.2961 186.946 26.8481C186.946 27.4001 187.411 27.6961 187.98 28.0001C188.751 28.3844 189.491 28.8285 190.193 29.3281C190.458 29.5191 190.67 29.7741 190.811 30.0692C190.951 30.3643 191.014 30.6901 190.994 31.0161C190.994 32.5521 189.776 33.3521 187.996 33.3521C185.816 33.3521 185.038 32.3361 185.038 30.8881V30.2961H186.85V30.7681C186.81 31.5681 187.098 32.1281 187.996 32.1281C188.758 32.1281 189.126 31.8001 189.126 31.1841C189.118 30.9537 189.046 30.7305 188.915 30.5405C188.784 30.3506 188.601 30.2019 188.389 30.1121C187.451 29.4961 186.273 29.0561 185.527 28.2481C185.232 27.8982 185.068 27.4572 185.062 27.0001C185.062 25.6241 186 24.8721 187.924 24.8721C190.81 24.8721 190.73 26.7281 190.746 27.5281H189.006Z" fill="white"/>
</g>
<defs>
<clipPath id="clip0_603_432">
<rect width="202" height="48" fill="white"/>
</clipPath>
</defs>
</svg>
