<svg width="169" height="48" viewBox="0 0 169 48" fill="none" xmlns="http://www.w3.org/2000/svg">
<g clip-path="url(#clip0_603_391)">
<path d="M18.3033 27.1671H5.89297V40.2649H0V7.94629H5.89297V21.4864H18.3033V7.94629H24.195V40.2649H18.3033V27.1671Z" fill="#FF4800"/>
<path d="M43.0513 29.8178C43.0513 32.5091 40.8631 34.7002 38.1771 34.7002C35.491 34.7002 33.3041 32.5104 33.3041 29.8178V15.9756H27.7234V29.8178C27.7234 35.5928 32.4133 40.2904 38.1771 40.2904C43.9408 40.2904 48.6294 35.5928 48.6294 29.8178V15.9756H43.0513V29.8178Z" fill="#FF4800"/>
<path d="M84.4583 17.4009C84.4583 14.5627 86.3329 13.6633 88.3852 13.6633C90.0378 13.6633 92.2246 14.924 93.6524 16.4557L97.3114 12.1329C95.4826 9.65735 91.7778 7.94629 88.7432 7.94629C82.6712 7.94629 78.2962 11.5032 78.2962 17.4023C78.2962 28.3428 91.6446 24.8749 91.6446 30.9991C91.6446 32.8881 89.8144 34.5547 87.7177 34.5547C84.4139 34.5547 83.3414 32.934 81.8247 31.2229L77.762 35.454C80.3525 38.651 83.5661 40.273 87.4055 40.273C93.1639 40.273 97.8067 36.6716 97.8067 31.0422C97.8067 18.8868 84.4597 22.669 84.4597 17.4023L84.4583 17.4009Z" fill="#FF4800"/>
<path d="M167.034 35.102C163.731 35.102 162.795 33.6714 162.795 31.4789V21.7735H167.927V16.8547H162.795V10.3691L157.126 12.9189V32.6884C157.126 37.7434 160.607 40.2931 165.381 40.2931C166.096 40.2931 167.078 40.2473 167.615 40.1138L169 35.0157C168.375 35.0588 167.661 35.1033 167.034 35.1033V35.102Z" fill="#FF4800"/>
<path d="M64.3208 16.1371C61.5527 16.1371 59.6215 16.9421 57.755 18.7772V8.13867H52.1567V27.8556C52.1567 35.2352 57.4818 40.2901 63.4663 40.2901C70.1183 40.2901 75.9453 35.1462 75.9453 28.2143C75.9453 21.2824 70.5718 16.1371 64.3208 16.1371ZM64.2858 34.6459C60.7789 34.6459 57.9367 31.7982 57.9367 28.2844C57.9367 24.7706 60.7789 21.9229 64.2858 21.9229C67.7928 21.9229 70.635 24.7706 70.635 28.2844C70.635 31.7982 67.7928 34.6459 64.2858 34.6459Z" fill="#FF4800"/>
<path d="M125.098 27.9235C125.098 20.9916 119.27 15.8477 112.619 15.8477C106.636 15.8477 101.31 20.9026 101.31 28.2822V47.9991H106.908V37.3593C108.774 39.1944 110.705 39.9993 113.474 39.9993C119.725 39.9993 125.098 34.7664 125.098 27.9222V27.9235ZM119.788 27.8547C119.788 31.3685 116.946 34.2163 113.439 34.2163C109.932 34.2163 107.09 31.3685 107.09 27.8547C107.09 24.3409 109.932 21.4932 113.439 21.4932C116.946 21.4932 119.788 24.3409 119.788 27.8547Z" fill="#FF4800"/>
<path d="M143.188 15.5762V9.94141C144.656 9.24701 145.684 7.75843 145.684 6.03254V5.90174C145.684 3.51921 143.738 1.56949 141.36 1.56949H141.231C138.853 1.56949 136.907 3.51921 136.907 5.90174V6.03254C136.907 7.75978 137.935 9.24701 139.403 9.94141V15.5762C137.218 15.9146 135.221 16.818 133.574 18.1461L118.134 6.11209C118.235 5.71972 118.306 5.31656 118.308 4.89318C118.309 2.19378 116.129 0.00405066 113.435 5.60562e-06C110.741 -0.00403945 108.555 2.18164 108.551 4.88104C108.548 7.58044 110.728 9.77017 113.423 9.77421C114.3 9.77421 115.113 9.52612 115.825 9.12026L131.013 20.9574C129.721 22.9112 128.964 25.2506 128.964 27.7693C128.964 30.288 129.796 32.8459 131.201 34.8522L126.583 39.4798C126.218 39.3705 125.838 39.2937 125.437 39.2937C123.224 39.2937 121.43 41.0911 121.43 43.3091C121.43 45.5271 123.225 47.3245 125.437 47.3245C127.65 47.3245 129.445 45.5271 129.445 43.3091C129.445 42.9073 129.368 42.527 129.259 42.1616L133.828 37.584C135.902 39.1696 138.484 40.1229 141.295 40.1229C148.105 40.1229 153.625 34.592 153.625 27.7693C153.625 21.5925 149.097 16.4904 143.188 15.5762ZM141.294 34.1025C137.803 34.1025 134.972 31.267 134.972 27.7693C134.972 24.2717 137.802 21.4361 141.294 21.4361C144.786 21.4361 147.615 24.2717 147.615 27.7693C147.615 31.267 144.785 34.1025 141.294 34.1025Z" fill="#FF4800"/>
</g>
<defs>
<clipPath id="clip0_603_391">
<rect width="169" height="48" fill="white"/>
</clipPath>
</defs>
</svg>
