<svg width="43" height="48" viewBox="0 0 43 48" fill="none" xmlns="http://www.w3.org/2000/svg">
<g clip-path="url(#clip0_595_353)">
<path d="M0.195404 35.0051L4.94406 32.5438C5.03596 32.4965 5.14543 32.4985 5.23532 32.5499L21.5347 41.8645C21.6286 41.9184 21.7441 41.9179 21.838 41.864L37.9551 32.5595C38.0525 32.503 38.1731 32.505 38.2685 32.565L42.5707 35.249C42.766 35.3709 42.762 35.6571 42.5637 35.7735L21.84 47.9585C21.7451 48.0145 21.6276 48.0145 21.5327 47.959L0.182348 35.5427C-0.0265609 35.4213 -0.0190281 35.116 0.195404 35.0051Z" fill="#EB3500"/>
<path d="M0.165228 23.7373L4.93798 21.0381C5.0329 20.9847 5.1484 20.9857 5.24231 21.0407L21.1957 30.4294C21.2906 30.4853 21.4076 30.4853 21.503 30.4304L37.7075 21.0402C37.8019 20.9852 37.8602 20.8845 37.8602 20.7746V16.4914C37.8602 16.2541 37.603 16.107 37.3997 16.2274L21.8395 25.4327C21.7446 25.4891 21.6266 25.4891 21.5311 25.4337L0.152171 13.0013C-0.0502093 12.8839 -0.0512137 12.5912 0.150162 12.4722L21.1977 0.0423371C21.2916 -0.013086 21.4076 -0.0140937 21.5025 0.0393141L34.2248 7.24231C34.4237 7.35467 34.4338 7.63834 34.2434 7.7643L29.8493 10.6836C29.7514 10.7486 29.6248 10.7516 29.5244 10.6911L21.509 5.89049C21.4111 5.83154 21.2881 5.83305 21.1912 5.89351L10.6543 12.4727C10.4605 12.5937 10.463 12.8778 10.6589 12.9957L21.1957 19.3346C21.2906 19.3916 21.4086 19.3931 21.5045 19.3377L37.7125 10.0281C37.8044 9.97518 37.9169 9.97417 38.0098 10.0246L42.8398 12.6506C42.9382 12.704 42.9995 12.8073 42.9995 12.9202V23.8259C42.9995 23.9338 42.9433 24.0335 42.8509 24.0889L21.8405 36.6927C21.7451 36.7496 21.6266 36.7506 21.5306 36.6947L0.162214 24.2693C-0.0421744 24.1504 -0.0401657 23.8536 0.165228 23.7373Z" fill="#EB3500"/>
</g>
<defs>
<clipPath id="clip0_595_353">
<rect width="43" height="48" fill="white"/>
</clipPath>
</defs>
</svg>
