<svg width="330" height="48" viewBox="0 0 330 48" fill="none" xmlns="http://www.w3.org/2000/svg">
<path d="M324.972 15.367C324.972 5.78304 317.894 1.53613 308.576 1.53613H289.474V46.4847H301.74V29.1979H302.616L313.802 46.4847H328.726L314.65 28.0687C317.6 27.6543 320.292 26.1225 322.2 23.7733C324.11 21.4241 325.098 18.4266 324.972 15.367ZM304.896 21.6823H301.742V10.4823H305.256C309.284 10.4823 312.698 11.1887 312.698 16.0847C312.698 20.9807 308.924 21.6779 304.898 21.6779" fill="black"/>
<path d="M251.126 1.54102L234.63 46.4898H247.316L250.008 38.2154H266.398L269.096 46.4898H281.77L265.284 1.54102H251.126ZM252.92 29.276L258.028 13.5845H258.372L263.48 29.276H252.92Z" fill="black"/>
<path d="M197.78 46.4894H227.698V36.6012H210.058V28.8298H226.952V18.9418H210.058V11.4379H227.696V1.53613H197.777L197.78 46.4894Z" fill="black"/>
<path d="M163.227 30.5762H172.891C172.389 35.7716 168.671 38.4002 163.34 38.4002C155.264 38.4002 151.235 31.287 151.235 24.3134C151.235 17.4562 154.707 10.1099 162.801 10.1099C165.014 10.0581 167.188 10.7199 169.017 12.0028C170.847 13.2857 172.241 15.1254 173.004 17.2642L184.654 12.615C180.583 4.19896 173.067 0 163.367 0C148.148 0 138.49 9.63208 138.49 24.247C138.49 38.3978 148.451 48 163.291 48C171.196 48 177.784 45.3348 182.406 39.168C186.609 33.5612 187.097 27.9682 187.226 21.3876H163.238L163.227 30.5762Z" fill="black"/>
<path d="M97.3448 11.4399H109.219V46.4868H121.689V11.4399H133.574V1.53809H97.3448V11.4399Z" fill="black"/>
<path d="M59.2316 46.4894H89.151V36.6012H71.5152V28.8298H88.4114V18.9418H71.5108V11.4379H89.1466V1.53613H59.2272L59.2316 46.4894Z" fill="black"/>
<path d="M32.7198 29.0245H32.5864L12.2695 1.54102H0V46.4919H12.2695V18.9492H12.4073L32.7198 46.4919H44.9872V1.54102H32.7198V29.0245Z" fill="black"/>
</svg>
