<svg width="48" height="48" viewBox="0 0 48 48" fill="none" xmlns="http://www.w3.org/2000/svg">
<path d="M33.8284 19.879C34.3574 18.3443 36.7574 18.3443 37.8121 17.6717C38.5338 17.1917 39.4448 16.7117 39.4938 14.4064C39.5427 12.4374 40.4048 12.101 40.9338 11.9574C40.9338 11.3827 39.9248 11.5721 39.2064 12.15C40.2154 9.65533 42.328 11.719 42.328 11.719C41.0807 9.51166 39.2554 10.5174 38.6317 11.6243C38.008 12.728 38.4391 15.177 37.1427 15.8006C35.7974 16.4243 35.128 15.2717 34.168 15.559C32.8227 15.9443 32.777 17.7664 31.3827 17.1917C32.4374 16.519 32.3917 15.8953 33.1101 15.128C34.5501 13.5443 36.9501 15.2717 37.4791 10.759L37.7174 11.6243C40.2121 8.21533 43.1411 11.1933 42.7101 12.1533C39.2064 11.5296 39.9248 14.2659 39.5917 16.137H42.1354L33.8284 19.879ZM36.1795 16.4243C33.7305 15.4153 32.2448 17.7206 32.2448 18.439C32.8195 18.1517 33.8285 17.0937 34.1648 16.8553C34.8831 16.4243 35.9378 16.6659 36.1795 16.4243ZM38.5305 15.177C38.9158 17.6717 34.4489 17.528 33.4921 19.2586C33.4921 15.8496 38.0015 17.6259 38.5305 15.177ZM33.5868 20.6953C34.6415 19.3043 35.4578 20.4537 36.3231 19.879C37.1884 19.3043 38.1942 17.479 40.2578 18.39L41.3615 17.43L40.6431 18.6317C42.8015 20.0227 44.0521 19.928 43.8105 17.2406C46.5958 18.8733 45.0578 22.5696 42.9452 22.5696C41.6978 22.5696 41.2635 21.9459 40.5452 21.6586C40.0162 21.4659 39.6342 21.8512 39.1542 22.3312L41.1689 23.0986L38.7689 22.7623C38.0472 23.4806 36.9436 24.1076 35.4089 23.4349L35.6962 24.0096H44.1925L38.3835 26.6023C39.9182 26.9386 41.8382 25.0186 44.0489 26.3639C46.1615 27.6112 45.2015 30.5402 44.3362 30.5402C43.5689 30.5402 45.0546 27.9476 42.8962 27.9966C42.1289 27.9966 41.4562 28.6692 40.6889 29.2929L41.4072 31.0692L40.2546 29.6292C39.6309 30.0602 38.9582 30.3966 38.1909 30.3019L42.2235 32.6529H39.4872C39.4382 33.3255 39.5362 33.8055 39.7746 34.3802L40.0619 34.2855C40.2546 34.7166 41.5019 35.4872 43.2293 35.1966C42.5566 37.6912 38.9582 36.9729 38.2856 36.3002L38.3346 37.2113C36.7509 33.3223 35.5493 33.0839 33.1982 33.0839L38.6709 38.6055L37.3746 38.3182C37.7599 39.8529 35.8856 42.5892 34.5893 42.7329C34.0603 42.7819 35.5493 41.7239 35.5493 40.1402C35.5493 38.6055 33.8219 38.1255 33.1003 37.5019C31.755 36.3982 31.2293 33.2766 30.7003 32.4145C31.6603 32.8945 32.4276 35.5819 33.244 36.4929C34.0603 37.4529 36.124 38.3639 36.124 39.8529C36.124 41.2929 35.595 41.5802 35.5003 41.7729C36.0293 41.7729 37.7566 38.7982 36.124 37.3582C35.3076 36.6366 34.2529 36.4472 33.4366 35.7745C32.3329 34.8635 31.7582 32.9435 31.1803 32.3655C30.6056 31.8366 28.6366 30.9255 29.0219 27.9508C27.8203 31.1672 29.5019 31.6472 29.8382 33.8055C30.2236 36.0129 31.3729 38.3182 32.6235 38.6545C32.3819 38.7035 32.1925 38.7492 31.9999 38.7492L31.7125 40.8129L31.6178 38.7002C28.9305 38.168 29.0284 31.928 27.3958 31.1117L31.2815 42.2006L28.4962 40.4243C28.0652 42.2496 30.0309 42.3443 29.8415 43.977C29.6031 45.848 27.4415 45.7043 27.4905 45.2733C27.5395 44.9859 28.3558 45.2733 28.3558 44.8423C28.3558 44.4112 27.0105 44.1696 26.4358 43.497C26.0995 43.0659 25.8121 42.7786 25.6684 41.1917L24.8031 42.2953C24.8031 42.2953 25.8121 39.608 25.9558 38.8864C26.0995 38.2137 24.1795 37.159 23.9411 35.768V43.5917L21.6848 40.8064C21.2995 43.879 16.9795 43.6864 16.6921 43.35C19.8138 41.0447 18.3248 39.99 17.5084 38.021L15.8758 39.03L17.3158 37.3974C17.2211 37.0121 17.1721 36.581 17.2211 36.15C17.4138 33.75 20.9174 33.9427 18.9974 31.5427L13.3321 40.6627L13.9068 35.719C10.5468 36.9206 11.6995 37.11 10.7395 39.3174C9.97212 41.0937 8.33947 40.6137 7.85947 39.8464C7.1411 38.7427 8.00314 37.8774 8.96314 37.9264C9.53784 37.4464 7.90845 36.7247 8.57784 35.2847C9.53784 33.1721 12.1762 34.0831 13.5215 32.31L10.2105 32.6464L13.9068 31.6374C14.1484 31.0137 14.3378 30.1974 14.3378 29.0937L7.28151 32.9859L9.43988 29.4333C5.50518 32.6986 4.54518 28.617 2.6709 28.9043C3.1509 26.697 4.9762 27.9443 5.79253 27.9443C6.60886 27.9443 7.76151 26.5043 8.19253 26.168L3.96722 23.9117H14.4782C15.2456 23.9117 15.7256 23.6243 15.3436 23.1933C14.8636 22.6186 12.8946 23.288 10.6872 23.4806C9.34192 23.5753 8.52559 23.0496 7.90192 22.4717L6.0309 23.0464L7.61457 22.23C6.5109 21.1753 5.69457 20.0717 3.1509 21.6064C2.38355 19.5427 4.25457 17.8153 5.98192 17.7664C8.4309 17.7174 8.86192 20.5517 10.7819 19.5427L7.51661 15.7974L12.7476 18.39L12.0815 16.4243L9.82845 15.8006L12.0358 15.9933C11.4121 13.9296 9.1558 14.3117 8.1958 13.3059C6.1811 11.1476 8.33947 8.36227 10.0211 9.12961C8.86845 11.5786 10.9811 12.6333 12.7574 12.297L11.8921 9.41696L18.6611 16.2806C17.1264 17.4333 15.3958 16.4243 14.5338 13.8806C13.7174 11.4317 10.9811 13.5933 9.73376 13.0153C9.68478 14.4553 12.1827 13.0153 12.5191 15.9443C12.7574 17.8643 14.1517 19.5917 16.2154 19.1117C15.3991 20.3133 13.4791 18.8243 12.2807 20.5517C14.3933 20.3133 14.9223 22.7133 16.6497 23.0953C15.3533 22.377 15.2097 20.5027 13.9133 20.2153C14.7297 20.0227 15.3533 20.408 16.1207 20.1206C16.937 19.8333 17.3191 19.3043 17.2733 18.488C18.1387 18.8243 18.1844 19.6406 17.8023 20.1696C17.417 20.6986 16.6007 20.9859 16.6007 21.417C16.6007 21.417 16.6007 21.3223 17.1754 21.0806C16.7444 21.6096 17.0317 22.377 17.4627 22.857C17.4138 22.5206 17.4627 22.0406 17.6064 21.9459C17.9427 22.7623 18.7101 23.1476 19.1901 23.0496C18.2791 22.0896 18.9027 21.2733 18.9027 21.2733C18.5174 21.2733 18.0864 21.848 18.0864 21.848C18.0864 21.848 17.8448 20.937 18.7591 20.5517C18.7101 20.408 18.7591 20.2643 18.7591 20.2643C19.5264 21.0317 20.9174 21.0317 21.3027 21.2733C21.3027 21.2733 19.288 20.9859 19.5264 22.0896C19.7648 23.1443 22.8864 22.6186 22.2627 19.2586C22.2627 19.2586 22.7917 19.2096 22.9844 19.4023C23.177 19.5949 22.9354 20.1696 22.9354 20.1696L23.3207 20.3623C23.3207 20.3623 23.128 21.9459 23.226 22.2333C23.275 22.4259 23.9933 22.4259 24.137 22.4259C24.2807 22.4259 24.186 22.6186 24.137 22.6186H23.0333C22.8407 22.6186 22.3607 23.1933 22.8407 23.337C22.8407 23.337 23.4154 23.4806 24.0423 23.4806C24.617 23.4806 25.195 23.337 25.195 23.337C25.195 23.337 25.1003 23.817 23.9933 23.817C22.8864 23.817 22.4587 23.6243 22.4587 23.6243C22.217 24.297 23.6603 24.9696 23.804 25.0153C23.9476 25.0643 24.1893 25.0643 24.235 25.0153C24.284 24.9664 25.244 24.199 25.244 24.199L24.9566 24.679C26.3019 24.3917 26.1093 23.719 25.6293 23.5264C25.6293 23.239 26.3966 23.2847 26.3476 23.8627C26.2987 24.581 24.4276 25.0153 24.1893 25.4953C24.0456 25.8317 24.4276 26.8406 24.7182 26.9353C25.0546 27.03 25.7729 27.03 26.1582 26.7917C26.2529 26.7427 27.2619 24.8227 27.2619 24.3917C27.2619 23.9117 26.2072 21.6553 26.2072 21.6553C26.3999 21.0806 27.3109 21.2243 28.0782 20.6953C26.7329 22.0864 27.6472 22.23 28.6072 22.279C27.8889 22.9027 27.3599 23.288 27.6472 24.248C31.9182 25.159 30.2399 31.1606 33.3582 32.2153C30.9093 32.6006 30.6219 29.2864 30.4293 27.8953C30.3346 29.43 30.2366 30.6806 31.3893 31.928C32.3982 32.9827 33.9329 32.408 35.324 32.408C37.8187 32.408 37.1493 35.1443 39.2129 35.8627C38.0113 34.8537 38.7819 33.701 37.0546 31.9737C36.1893 31.1084 34.2236 31.9737 32.7836 30.341C31.3436 28.7084 30.8636 25.3027 28.8489 24.0064C31.1999 24.581 32.0652 28.421 33.2178 29.7174C34.4162 31.0137 36.9631 30.5827 37.8252 31.4937C39.3599 32.839 37.7762 35.5753 40.9925 36.0553V35.9606C41.6162 36.0553 42.5762 35.8659 42.4815 35.337C42.0015 35.4806 40.8489 35.5296 40.1305 34.9517L40.3689 35.4806C38.3999 34.9517 39.1672 31.928 38.0178 30.919C37.0089 30.0537 35.2325 30.5337 33.7468 29.3843C32.2578 28.2317 31.6342 25.208 28.8978 23.337C32.6431 22.2823 33.8905 29.2406 37.4431 29.2406C39.2195 29.2406 40.5158 26.6023 42.1484 26.6023C43.3011 26.6023 44.1631 27.2259 44.3558 28.2349C44.5484 29.2896 44.1631 30.1549 44.1631 30.1549C44.1631 30.1549 44.6921 29.5802 44.6921 28.5223C44.6921 26.7949 43.3468 26.1223 42.0048 26.1223C40.7084 26.1223 40.2284 26.9876 38.2595 26.9876C35.6668 26.9386 34.9942 22.2823 32.0684 21.9949C33.6031 20.6986 35.0431 23.0496 36.4374 23.0039C37.4464 23.0039 37.8774 22.2366 38.4521 20.5549C38.9811 18.8733 40.2774 19.8366 41.1395 20.6496C42.0048 21.417 43.2521 21.5149 43.9705 20.8423C43.7778 21.4659 43.1052 21.417 43.3468 21.8512C43.4415 22.0439 43.6342 21.9459 43.8268 21.7566C44.7868 20.8455 45.0284 18.5402 43.9705 17.9655C44.7378 21.6619 41.4758 20.5582 41.5705 20.0782C42.1942 20.2708 43.0105 20.2708 42.7721 19.8855C40.4211 19.8366 40.3721 18.3019 38.7884 18.4455L39.2684 18.7329C36.5321 18.7329 38.2595 22.4782 36.3395 22.4782C35.2848 22.4782 34.6121 21.2766 33.2668 21.1819C34.8015 19.8366 36.3395 23.3402 36.7705 20.6529C35.9868 21.6553 35.1705 20.1696 33.5868 20.6953ZM25.4758 14.7917C23.6995 15.608 23.6505 13.0643 24.1305 12.5353C24.1305 12.5353 23.7942 13.8806 24.9958 14.3606C23.4121 11.768 26.5305 10.808 26.5305 8.69533C26.5305 6.96798 25.4758 6.39002 25.5215 4.85533C25.5705 2.93533 28.3525 2.45533 28.4015 3.1737C28.4015 3.70268 26.3868 3.74839 26.3378 5.71737C26.2889 7.54268 28.3525 8.02268 28.3068 9.79574C28.2578 10.9484 26.1942 12.0521 27.4905 14.2594L30.4652 5.86104L28.1599 8.4537C27.4415 7.54268 26.8636 7.44472 26.8636 5.81206C26.8636 4.17941 28.6889 3.94104 28.6889 3.17043C28.6889 2.54676 27.7778 2.45206 27.1052 2.45206C26.0505 2.40308 24.2252 3.31737 24.2252 5.18839C24.2252 7.10839 25.5215 8.06839 24.2252 9.84472L23.1215 8.16961L23.9378 10.2823C23.9378 10.2823 23.1705 11.1476 23.1705 12.6823C23.1705 15.7517 25.6195 16.039 25.4758 14.7917ZM25.7631 7.73533C26.5795 10.328 23.8921 11.0006 23.6505 12.679C23.5068 10.6643 26.0995 9.65533 25.7631 7.73533ZM27.0105 14.5533C26.1942 13.7859 26.5795 12.3459 26.5795 12.3459C26.5795 12.3459 25.3321 13.9296 27.0105 14.5533ZM30.4195 19.977C30.6121 20.3623 31.3305 19.497 32.4342 19.8333C31.9084 19.448 30.3215 19.448 30.4195 19.977ZM29.1721 13.0153C28.7868 14.119 27.6374 14.4064 27.1084 15.3664C27.3958 15.3664 29.0284 15.03 29.6521 13.9753C30.2268 12.9664 29.6521 10.0864 31.5231 9.36798C33.4921 8.64635 35.5558 7.54268 33.2048 5.19166C36.7574 6.10268 34.7395 9.89696 34.3574 10.4227C33.9754 10.9484 32.6301 11.9574 32.6301 13.639C32.6301 14.8864 31.5264 16.2774 30.6611 16.47C31.5721 16.8553 32.9174 14.7427 32.9174 14.7427L37.3321 9.03166L34.7884 10.328C34.7884 10.328 35.5068 9.70431 35.5068 7.73533C35.5068 4.90431 32.4831 4.37533 32.4831 5.28635C32.4831 5.86104 33.5378 6.29533 33.5378 7.25533C33.5868 8.21533 32.2415 8.74431 31.1868 9.08064L30.7068 7.49696V9.27329C29.0284 10.1353 29.6031 11.817 29.1721 13.0153ZM32.4342 11.5296C33.3452 10.1386 34.2595 10.377 34.6905 8.93696C34.0668 10.0896 32.6758 10.328 32.0031 11.288C30.8505 12.9664 32.1958 15.4153 29.7958 16.088C32.8195 16.1859 31.3795 12.728 32.4342 11.5296ZM34.2105 15.2717C35.1705 15.0333 35.7942 15.8953 36.5615 15.657C36.9925 15.5133 36.9925 15.0333 36.6562 14.9386C36.6562 14.9386 37.9525 13.5933 37.5215 12.8749C36.4668 15.0333 34.4031 14.9353 34.2105 15.2717ZM30.1321 19.017C30.2758 19.3043 30.5174 18.7753 30.9974 18.537C30.3705 18.439 30.0342 18.8733 30.1321 19.017ZM38.0015 28.4733C39.2978 28.4243 40.3068 27.177 41.0252 26.7459C39.9705 26.9843 39.4415 27.8986 38.0015 27.9476C35.6505 27.9966 34.4489 21.3712 30.4652 22.7166C34.5468 23.0006 34.4521 28.519 38.0015 28.4733ZM29.5542 21.2243C29.6489 21.7533 30.5631 20.6496 32.2905 21.417C31.7158 20.5517 29.4595 20.457 29.5542 21.2243ZM26.0015 14.5533C24.2252 11.6733 28.3525 11.0006 27.2031 8.60064C27.3468 10.4717 23.4121 12.3917 26.0015 14.5533ZM16.8358 18.2006C13.3321 18.2496 15.8758 14.4096 13.2831 13.8317C14.6284 14.7427 13.9068 15.559 13.9068 17.048C13.9068 18.8243 16.0684 19.3533 16.8358 18.2006ZM17.4595 17.048C16.7378 17.048 15.5884 16.7117 15.2031 15.7027C14.8178 16.617 15.9705 18.968 17.4595 17.048ZM32.1468 37.0153C31.1868 35.3827 30.4195 31.6864 29.2668 31.1606C30.3705 32.7933 30.3705 35.5296 31.6178 37.257C32.6268 38.648 34.2105 38.3117 35.0268 39.657C34.8831 38.2659 33.0121 38.5533 32.1468 37.0153ZM26.2431 24.9206C26.0048 25.0643 25.5248 25.208 25.0905 25.4953C25.0415 25.5443 24.9958 25.8317 24.8978 25.8806C25.3321 25.9753 26.1942 25.3517 26.2431 24.9206ZM36.9958 23.337C37.9068 23.4317 40.8848 20.5517 39.9248 20.1206C38.9615 19.6896 38.9158 22.759 36.9958 23.337ZM11.3631 12.6333C9.1558 12.1043 9.05784 10.328 9.58682 9.36798C7.76151 9.27329 7.66682 13.4953 11.3631 12.6333ZM3.34682 21.0806C3.34682 21.0806 4.88151 19.977 6.56314 20.888C7.04314 19.2096 3.8758 19.3533 3.34682 21.0806ZM11.5558 20.5517C9.58682 20.888 8.77049 19.928 8.24478 19.3043C7.90845 18.919 7.6211 18.537 7.04314 18.439C6.99416 18.439 6.99416 18.488 7.04314 18.5337C7.04314 18.6284 7.04314 18.7264 6.99416 18.7721C6.94518 18.7721 6.85049 18.7721 6.65784 18.5794C6.41947 18.3868 6.08314 18.2921 5.69784 18.2921C5.36151 18.2921 5.02518 18.4357 4.78682 18.5794C4.54845 18.7231 4.49947 18.9157 4.54518 19.1084C4.63988 19.3957 5.02518 19.3468 5.4562 19.3468C5.79253 19.3468 6.22355 19.2978 6.55988 19.4415C6.84722 19.5361 7.03988 19.8268 7.32722 20.1598C8.24151 21.7533 11.0268 22.279 11.5558 20.5517ZM12.6595 22.328C12.6105 21.2243 8.81947 21.799 8.91416 22.5696C9.05784 23.4317 12.7084 23.288 12.6595 22.328ZM13.0415 25.0153C14.2889 25.4464 16.7868 24.297 16.4015 23.8627C15.9705 23.4317 15.0595 25.0153 13.0415 25.0153ZM8.81947 26.119C10.8831 25.11 12.2284 28.568 14.0048 26.599C11.9411 27.2717 11.6538 25.3027 9.77947 25.5443C10.8342 24.5353 12.0848 26.0733 13.4758 26.0733C14.8668 26.0733 15.9248 25.737 16.0684 24.6823C15.7321 25.0186 14.8668 25.4986 13.4758 25.4986C12.0815 25.4953 9.87416 23.6243 8.81947 26.119ZM5.21784 28.999C6.08314 29.528 7.52314 28.95 6.94518 27.99C5.16886 29.1884 4.30682 27.03 3.24886 28.6137C3.68314 28.4733 4.3558 28.4733 5.21784 28.999ZM10.1158 27.9933C8.24478 27.128 7.76478 30.1059 5.65212 29.6749C5.65212 30.9712 7.6211 30.3933 8.43743 29.7696C9.25375 29.1459 9.68151 28.088 10.1158 27.9933ZM15.4905 26.119C14.7231 27.128 13.4758 27.99 12.0815 27.51C10.6872 27.03 9.2962 25.639 8.43416 27.7027C10.3084 26.0243 13.3778 30.919 15.4905 26.119ZM14.7231 33.1753C14.4358 32.888 13.9558 33.5606 13.2831 33.9427C12.5648 34.3737 11.6995 34.6153 11.8921 34.9517C12.0848 35.288 12.9958 35.19 13.7174 34.759C14.4815 34.328 15.0595 33.5117 14.7231 33.1753ZM9.1558 35.5753C9.58682 36.199 10.8342 34.6153 12.4668 34.0406C14.1452 33.4659 14.5795 31.6896 14.5305 30.9223C13.9558 32.2676 13.4268 33.3223 12.1305 33.6096C10.8342 33.897 8.72151 34.9059 9.1558 35.5753ZM9.68151 37.8317C9.48886 38.9353 8.96314 39.0333 8.86518 38.9843C8.77049 38.9353 8.72151 38.8406 8.8162 38.7459C8.9109 38.6513 8.9109 38.5076 8.8162 38.4586C8.72151 38.3639 7.90518 38.6023 8.04886 39.3696C8.09784 39.7549 8.47988 40.137 9.10355 40.088C9.68151 39.9933 10.3542 39.128 9.68151 37.8317ZM18.4684 25.9753C17.3158 27.2227 18.4684 31.879 16.0684 33.6064C17.7958 30.6774 16.6431 27.1247 18.1811 25.2537C16.2121 26.7427 16.7901 30.821 16.1174 31.9247C15.4448 26.9321 17.5574 25.061 18.0374 24.6757C14.1027 27.6047 16.4048 31.5394 15.3011 33.5574C13.5738 36.679 10.8864 34.9484 9.73376 36.0064C8.72478 36.9664 11.1248 38.021 9.97539 39.7517C10.648 39.9443 10.7427 37.208 11.3664 36.777L10.7427 36.9206C10.5991 36.3459 9.97539 36.297 9.97539 36.297C10.5991 35.288 13.1917 36.9206 16.5027 34.0896C19.4742 31.5917 17.6521 27.4643 18.4684 25.9753ZM22.3542 27.3206C22.2105 27.3206 22.1615 27.3696 22.1615 27.4153C22.1615 27.4643 22.2562 27.559 22.3542 27.559C22.3542 27.559 23.4089 27.7974 24.0358 27.7974C24.6595 27.8464 25.7142 27.559 25.7142 27.559C25.8578 27.51 25.9068 27.4643 25.9068 27.4153C25.9068 27.3664 25.8578 27.3206 25.7142 27.3206C25.6652 27.3206 24.6105 27.3696 24.0358 27.3696C23.5068 27.3696 22.4031 27.3206 22.3542 27.3206ZM21.6815 23.9117C21.7305 24.63 22.7852 24.8717 23.2162 24.777C21.8709 24.4896 21.9689 23.7223 22.3999 23.5753C22.4521 23.288 21.6358 23.337 21.6815 23.9117ZM21.1068 24.8717C21.1558 25.159 22.4031 25.639 22.4031 25.639C22.4031 25.639 22.1158 25.8774 21.4431 25.639C21.7795 26.2137 22.5958 26.2137 22.5958 26.2137C22.5958 26.2137 22.5468 26.55 21.6358 26.3084C21.8774 26.9321 22.8374 27.1247 23.1248 27.0268C23.4611 26.9321 23.8431 25.8741 23.6538 25.5868C23.6505 25.5443 22.3542 24.9206 21.1068 24.8717ZM19.9542 40.6659C19.9542 38.9843 18.8015 38.5533 18.8015 36.4896C18.8015 34.2823 21.5378 34.2823 21.5378 32.5549C21.5378 30.7786 19.1868 30.0602 19.1868 26.7002C18.5631 30.6839 20.8652 31.0692 20.8652 32.6529C20.8652 34.1876 18.2268 33.8055 18.2268 36.5419C18.2268 38.1745 19.3305 38.9908 19.3305 40.7182C19.3305 42.4455 18.2268 42.8798 18.2268 42.8798C18.6578 42.919 19.9542 42.537 19.9542 40.6659ZM21.8284 28.8096C22.7884 30.4423 23.3174 31.4023 22.9321 32.7443C22.5468 34.1353 21.1068 34.808 20.7248 36.4406C20.4374 37.5933 21.0121 38.9843 20.7738 39.9933C20.7738 39.128 19.7191 37.8806 20.0554 36.3459C20.3917 34.857 22.6938 34.0406 22.6938 32.4113C22.6938 30.7786 20.9664 29.2896 20.4864 27.9966C20.3427 29.5802 21.9754 30.6839 21.9754 32.4602C21.9754 34.2366 19.4317 34.6676 19.4317 36.5876C19.4317 38.1223 20.3427 39.2292 20.3427 40.7149C20.3427 41.7696 19.5754 42.8276 19.5754 42.8276C22.5991 41.1949 20.8717 39.1313 21.4007 36.5386C21.737 34.9549 23.0333 34.4259 23.5623 33.1296C23.9868 31.977 23.6015 30.057 21.8284 28.8096ZM24.3231 30.968C24.4178 29.8643 23.6048 28.6627 23.2684 28.9533C22.9778 29.2406 24.1795 30.008 24.3231 30.968ZM25.3321 36.728C23.8431 33.4627 26.7231 31.977 24.5648 29.479C26.0505 32.408 23.1215 33.799 25.3321 36.728ZM26.9158 42.7296C27.3011 44.6496 29.4105 43.2586 28.8848 44.7443C30.1321 43.0659 27.5395 43.879 26.9158 42.7296ZM27.0595 35.0953C26.4358 33.848 28.0195 29.91 26.4358 28.568C27.6831 31.2064 25.1395 33.848 26.6774 36.199C24.5158 34.6153 27.6374 30.8243 25.4758 29.048C26.6774 31.2096 24.9468 33.1296 25.2831 35.0953C25.6684 37.3517 27.1084 37.257 27.2031 38.8864C27.2978 40.568 26.2431 41.2374 27.0105 42.341C27.7321 43.4447 29.9395 43.0137 29.4595 44.4047C30.1778 43.0137 28.4505 42.87 28.1631 41.3321C27.8758 39.8921 29.2668 38.8374 29.0284 37.7794C28.7378 36.728 27.6831 36.3459 27.0595 35.0953ZM30.3705 31.017C29.5542 29.577 30.7558 27.5623 29.2178 26.2659C30.0831 28.3296 28.7378 29.1459 30.3705 31.017ZM35.9868 32.9859C35.6505 33.2733 36.8031 33.3713 36.8978 33.897C37.1395 33.4659 36.3231 32.6953 35.9868 32.9859ZM44.0031 27.7059C43.1378 26.1223 40.9795 26.8896 40.3068 28.7149C40.2578 28.8586 40.3068 28.9533 40.4015 28.8096C41.2668 27.657 42.7068 26.6023 43.8105 27.7059C44.0031 27.8496 44.0521 27.8006 44.0031 27.7059ZM26.5795 25.4953C26.5305 25.59 26.2431 25.7337 25.6684 25.9264C25.5738 26.07 25.3811 26.2627 25.2374 26.4064C25.9068 26.599 26.7231 25.8806 26.5795 25.4953ZM27.9215 39.128C27.9215 39.128 29.6031 38.119 27.7778 37.1133C28.3068 38.119 27.9215 39.128 27.9215 39.128ZM25.5215 18.7296C26.5305 18.7296 26.6742 18.2496 27.4415 18.2496C28.2089 18.2496 28.4505 18.7296 29.0742 18.7296C29.6978 18.7296 30.0342 18.2986 29.7468 17.9133C29.3615 18.537 28.6431 17.6749 28.1142 17.6749C27.3468 17.6749 27.0105 18.0112 26.4815 18.2496C25.9068 18.537 25.3778 18.2496 25.5705 17.9133C25.1395 17.9133 24.8521 17.3386 25.6195 16.7117C24.2742 16.9533 24.5158 18.7296 25.5215 18.7296ZM20.8684 14.648C20.7738 14.648 20.6301 14.599 20.5321 14.5533C20.0031 14.217 19.7158 13.3059 19.1868 13.4006C19.5231 13.639 19.3795 14.5043 19.8105 14.9843C20.0031 15.2259 20.3395 15.3696 20.6758 15.3696C21.2995 15.3696 21.8284 14.8406 21.8284 14.217C21.8284 13.8317 21.6358 13.5443 21.3974 13.3059C21.0121 13.0186 20.4374 12.777 18.7591 12.2023C14.7754 10.857 20.728 6.82757 17.9917 4.57125C19.4807 7.83655 15.1117 9.75655 17.368 12.0129C18.377 13.0219 20.5354 12.8782 21.257 13.6455C21.3517 13.7402 21.4497 13.8839 21.4497 14.0766C21.4431 14.4096 21.2015 14.648 20.8684 14.648ZM21.2995 17.9133C20.5321 17.9133 19.6668 18.7296 19.5231 18.2006C19.3795 17.7696 20.1468 17.048 21.2048 16.999C20.3395 16.7574 18.9484 17.528 18.7101 18.439C18.4227 18.488 17.9884 18.1027 17.9884 18.1027C18.2301 20.0717 20.0521 18.3443 20.7738 18.3443C21.3974 18.3443 23.3664 19.7843 23.4121 18.008C22.6415 18.7753 22.1615 17.9133 21.2995 17.9133ZM15.3468 10.2333C15.4415 8.93696 16.3068 7.73859 16.2578 6.39329C16.2578 4.42431 14.0015 6.29859 13.6652 5.43329C12.7542 3.22594 19.4252 2.12227 19.3762 6.00798C19.3272 8.07166 18.7525 10.328 20.3852 10.5663L21.5868 5.5737L22.8831 12.7247C21.7305 11.2357 19.5721 11.8137 19.0431 9.45941C18.6121 7.82676 20.6268 3.55574 15.9248 3.89206C21.3484 5.5737 12.9011 10.181 17.9395 13.1557C19.2848 13.9721 19.7648 15.3631 19.1411 15.9868C19.0464 13.9721 17.0774 13.7304 16.3558 12.8684C15.6831 12.101 15.4448 11.4284 15.3958 10.8047L13.5248 9.8937L15.3468 10.2333ZM16.3068 5.33533C15.8758 3.94431 13.6195 4.56798 14.0995 5.14268C14.3378 5.38431 15.2031 4.61696 16.3068 5.33533ZM18.1321 9.22431C15.8758 13.4006 23.5558 11.5296 22.5468 15.079C24.1795 11.239 17.2668 13.3517 18.1321 9.22431ZM21.8742 21.0317C21.2505 20.6953 19.6668 20.6006 18.9942 19.6406C19.7125 19.3043 20.4831 18.6806 21.1068 18.7753C22.4978 19.0659 22.0178 20.839 21.8742 21.0317ZM20.8195 19.0659C19.9542 18.8733 19.6668 20.1206 20.3395 20.3623C20.3884 19.928 20.7705 19.1606 20.8195 19.0659ZM21.3484 19.3533C21.2995 19.448 21.1101 20.2186 20.8195 20.5059C21.3484 20.7443 21.9721 19.8333 21.3484 19.3533ZM27.0595 18.7753C27.6831 18.6317 28.4505 19.3043 29.1721 19.6406C28.4995 20.6006 26.9158 20.6953 26.2921 21.0317C26.0995 20.839 25.6195 19.0659 27.0595 18.7753ZM27.7778 20.359C28.4505 20.1206 28.1631 18.87 27.2978 19.0627C27.3468 19.1606 27.7321 19.928 27.7778 20.359ZM27.2978 20.5059C27.0105 20.2186 26.8178 19.4512 26.7689 19.3533C26.1484 19.8333 26.7721 20.7443 27.2978 20.5059ZM34.7395 7.78431C34.0178 9.41696 31.8595 9.36798 31.0431 10.5696C29.6031 12.6823 31.5231 14.8406 28.5484 15.5623C32.0521 15.6112 30.2301 12.5876 31.5231 10.857C32.8195 9.17533 34.2595 9.799 34.7395 7.78431Z" fill="#9D833E"/>
</svg>
