<svg width="69" height="48" viewBox="0 0 69 48" fill="none" xmlns="http://www.w3.org/2000/svg">
<g clip-path="url(#clip0_595_378)">
<path d="M28.7475 5.235C30.96 2.9325 34.035 1.5 37.44 1.5C41.97 1.5 45.915 4.0275 48.015 7.77C49.845 6.9525 51.8625 6.495 53.9925 6.495C62.16 6.495 68.775 13.17 68.775 21.405C68.775 29.64 62.16 36.315 53.9925 36.315C52.995 36.315 52.02 36.2175 51.0825 36.0225C49.23 39.3225 45.6975 41.5575 41.6475 41.5575C39.9525 41.5575 38.3475 41.1675 36.9225 40.47C35.0475 44.8875 30.6675 47.985 25.575 47.985C20.4825 47.985 15.7425 44.625 14.0025 39.915C13.245 40.0725 12.4575 40.1625 11.6475 40.1625C5.32501 40.1625 0.202515 34.9875 0.202515 28.5975C0.202515 24.315 2.50501 20.58 5.92501 18.5775C5.22001 16.9575 4.83001 15.165 4.83001 13.29C4.83751 5.955 10.8075 0 18.1575 0C22.4775 0 26.3175 2.055 28.7475 5.235Z" fill="#0D9DDA"/>
</g>
<defs>
<clipPath id="clip0_595_378">
<rect width="69" height="48" fill="white"/>
</clipPath>
</defs>
</svg>
