<svg width="48" height="48" viewBox="0 0 48 48" fill="none" xmlns="http://www.w3.org/2000/svg">
<path fill-rule="evenodd" clip-rule="evenodd" d="M29.2304 3.1899C29.833 3.52578 30.1286 4.22926 29.9472 4.89472L25.964 19.5001H40.5C41.0974 19.5001 41.6378 19.8544 41.8758 20.4022C42.1138 20.95 42.0042 21.5868 41.5966 22.0236L20.5966 44.5236C20.126 45.0278 19.3721 45.146 18.7696 44.8102C18.1671 44.4744 17.8714 43.7708 18.0529 43.1054L22.0362 28.5H7.50004C6.90274 28.5 6.36236 28.1456 6.12432 27.5978C5.88626 27.05 5.9959 26.4132 6.40346 25.9766L27.4034 3.47658C27.874 2.9723 28.628 2.85402 29.2304 3.1899Z" stroke="#EB3500" stroke-width="2" stroke-linecap="round" stroke-linejoin="round"/>
</svg>
