<svg width="166" height="48" viewBox="0 0 166 48" fill="none" xmlns="http://www.w3.org/2000/svg">
<g clip-path="url(#clip0_603_569)">
<path d="M166 43.0963C166 45.7377 157.762 47.8807 147.598 47.8807C137.439 47.8807 129.203 45.738 129.203 43.0963C129.203 40.4564 137.439 38.46 147.598 38.46C157.762 38.4597 166 40.4561 166 43.0963Z" fill="#FF300C"/>
<path d="M26.1452 23.6497C26.1452 28.9572 21.9173 33.686 13.3861 33.686C7.18435 33.686 1.80707 30.6491 0 26.2818L6.53894 23.8532C7.95708 26.6364 10.6453 27.9718 13.3027 27.9718C16.9208 27.9718 19.0455 26.1069 19.0455 24.1415C19.0455 17.9963 2.07168 19.4709 2.07168 9.28769C2.07138 4.34374 6.24243 0.119141 13.4322 0.119141C18.307 0.119141 22.1605 2.01865 23.9715 5.97327L17.7592 8.70589C16.8754 6.88314 15.198 5.85949 13.1396 5.85949C10.6143 5.85949 9.21869 7.0234 9.21869 8.66225C9.21869 14.0074 26.1452 13.7507 26.1452 23.6497ZM147.598 33.689C158.122 33.689 165.884 26.7553 165.884 16.9041C165.884 7.05289 158.122 0.120646 147.598 0.120646C137.074 0.120646 129.314 7.05289 129.314 16.9041C129.314 26.7553 137.074 33.689 147.598 33.689ZM147.598 27.48C141.016 27.48 136.644 22.9565 136.644 16.9041C136.644 10.8516 141.016 6.32933 147.598 6.32933C154.179 6.32933 158.555 10.8516 158.555 16.9041C158.555 22.9565 154.179 27.48 147.598 27.48ZM48.167 27.5541C52.9015 27.5541 56.3609 25.2211 59.0967 21.2689L64.3063 24.7528C60.8457 30.6069 55.009 33.7101 47.6856 33.7101C37.3459 33.7101 30.6495 27.4776 30.6495 16.6193C30.6495 7.76141 37.78 0.137501 48.011 0.137501C57.9751 0.137501 64.2085 6.92829 64.2085 16.4869V18.2212H38.0976C38.8923 24.3137 42.7048 27.5541 48.167 27.5541ZM56.8504 12.6846C56.3399 8.61078 52.7071 6.12677 47.8668 6.12677C43.107 6.12677 39.7683 8.66646 38.5286 12.6846H56.8504ZM126.222 29.8713C121.864 32.4637 117.188 33.6923 112.225 33.6923C101.333 33.6923 94.0879 27.0553 94.0879 17.2159C94.0879 7.44116 101.47 0.135996 112.586 0.135996C117.335 0.135996 121.38 1.18221 124.447 2.85688L122.878 8.81033C119.909 7.33672 116.677 6.44129 113.189 6.44129C105.63 6.44129 101.652 10.8245 101.652 16.7689C101.652 22.9644 105.732 27.39 112.968 27.39C116.664 27.39 120.675 26.1337 123.268 24.5057L126.222 29.8713ZM93.1448 1.15482L91.3447 6.96801C90.2321 6.5978 88.298 6.33324 86.807 6.33324C81.6226 6.33324 78.0786 9.29883 78.0786 17.3881V33.1144H70.8889V0.699737H78.0786V5.57898C79.9544 2.48517 83.2907 0.123053 88.208 0.123053C90.0111 0.123053 91.8591 0.502593 93.1448 1.15482Z" fill="#3B4346"/>
</g>
<defs>
<clipPath id="clip0_603_569">
<rect width="166" height="48" fill="white"/>
</clipPath>
</defs>
</svg>
