<svg width="48" height="48" viewBox="0 0 48 48" fill="none" xmlns="http://www.w3.org/2000/svg">
<g clip-path="url(#clip0_595_358)">
<path d="M22.6506 38.1205C17.3976 38.1205 12.5301 35.5181 9.01205 31.0361C11.6627 36.6747 17.3976 40.5783 24 40.5783C30.1205 40.5783 35.5181 37.2048 38.3614 32.241L35.8072 30.6024C32.9639 35.3253 28.0964 38.1205 22.6506 38.1205ZM34.8434 21.9277H40.4819C40.1446 19.0843 39.0361 16.4819 37.4458 14.2651L31.7108 17.9759C33.4458 20.7229 33.6867 23.759 32.3373 26.7952C30.747 30.4096 27.0361 33.5422 22.8916 35.0361C24.7711 34.7952 26.6024 34.2169 28.241 33.3012C32.2892 31.0361 34.6506 27.1325 34.8434 22.3614V21.9277ZM40.5783 24C40.5783 23.6145 40.5783 23.1807 40.5301 22.7952H35.6627C35.3253 27.6627 32.7711 31.7108 28.6265 34.0241C26.2651 35.3253 23.5663 36 20.8193 36C18.6988 36 16.5301 35.6145 14.4578 34.8434C16.9639 36.3855 19.759 37.253 22.6506 37.253H22.6988C27.9518 37.253 32.6747 34.4578 35.3253 29.8313L35.5663 29.4458L38.8434 31.5181C39.9518 29.253 40.6265 26.6988 40.5783 24ZM41.494 24C41.494 33.6386 33.6867 41.4458 24.0482 41.4458C14.4096 41.4458 6.55422 33.6386 6.55422 24C6.55422 14.3614 14.3614 6.55422 24 6.55422C33.6386 6.55422 41.4458 14.3614 41.494 24ZM48 24C48 10.747 37.253 0 24 0C10.747 0 0 10.747 0 24C0 37.253 10.747 48 24 48C37.253 48 48 37.253 48 24Z" fill="#EB1F1F"/>
</g>
<defs>
<clipPath id="clip0_595_358">
<rect width="48" height="48" fill="white"/>
</clipPath>
</defs>
</svg>
