<svg width="458" height="48" viewBox="0 0 458 48" fill="none" xmlns="http://www.w3.org/2000/svg">
<path d="M429.157 0.713867V46.1875H457.675V41.0858H434.418V25.9183H454.361V20.8183H434.418V5.81246H457.675V0.713867H429.157Z" fill="black"/>
<path d="M403.629 20.9826C398.044 19.618 392.848 18.4486 392.848 12.603C392.848 8.18595 396.353 5.32721 400.967 5.32721C405.059 5.32721 408.827 7.34128 410.581 10.5888L415.451 7.92526C413.117 3.11798 407.919 0 401.488 0C393.042 0 387.52 5.00245 387.52 13.0573C387.52 22.2161 394.73 24.035 401.16 25.6588C406.749 27.0234 411.88 28.1928 411.88 33.9744C411.88 39.0408 407.658 41.6402 402.46 41.6402C396.681 41.6402 390.834 38.3915 390.834 32.221C390.834 31.8306 390.834 30.7268 390.963 29.7525H385.441C385.311 30.6613 385.311 31.8306 385.311 32.4161C385.311 41.8342 393.756 46.9022 402.266 46.9022C410.19 46.9022 417.272 42.6147 417.272 33.4545C417.272 24.2302 410.19 22.5408 403.629 20.9826Z" fill="black"/>
<path d="M367.826 29.361C367.826 37.3519 364.123 41.6391 355.874 41.6391C347.624 41.6391 343.921 37.3519 343.921 29.361V0.713867H338.659V29.361C338.659 41.3784 345.415 46.901 355.874 46.901C366.332 46.901 373.088 41.3784 373.088 29.361V0.713867H367.826V29.361Z" fill="black"/>
<path d="M65.3188 42.3313C55.2254 42.3313 47.0101 34.1179 47.0101 24.0212C47.0101 13.9275 55.2254 5.7139 65.3188 5.7139C75.4155 5.7139 83.6264 13.9275 83.6264 24.0212C83.6264 34.1179 75.4155 42.3313 65.3188 42.3313ZM65.3188 0.0458984C52.0781 0.0458984 41.342 10.7804 41.342 24.0212C41.342 37.2637 52.0781 47.9994 65.3188 47.9994C78.5627 47.9994 89.2941 37.2637 89.2941 24.0212C89.2941 10.7804 78.5627 0.0458984 65.3188 0.0458984Z" fill="black"/>
<path d="M261.338 20.7222H236.783V0.713867H231.522V46.1872H236.783V25.8542H261.338V46.1872H266.6V0.713867H261.338V20.7222Z" fill="black"/>
<path d="M171.852 42.3316C161.758 42.3316 153.545 34.1179 153.545 24.0212C153.545 13.9275 161.758 5.7139 171.852 5.7139C181.948 5.7139 190.16 13.9275 190.16 24.0212C190.16 34.1179 181.948 42.3316 171.852 42.3316ZM171.852 0.0458984C158.611 0.0458984 147.876 10.7804 147.876 24.0212C147.876 37.2635 158.611 47.9996 171.852 47.9996C185.096 47.9996 195.828 37.2635 195.828 24.0212C195.828 10.7804 185.096 0.0458984 171.852 0.0458984Z" fill="black"/>
<path d="M130.791 20.7222H106.235V0.713867H100.974V46.1872H106.235V25.8542H130.791V46.1872H136.052V0.713867H130.791V20.7222Z" fill="black"/>
<path d="M302.399 42.3316C292.306 42.3316 284.092 34.1179 284.092 24.0212C284.092 13.9275 292.306 5.7139 302.399 5.7139C312.496 5.7139 320.708 13.9275 320.708 24.0212C320.708 34.1179 312.496 42.3316 302.399 42.3316ZM302.399 0.0458984C289.159 0.0458984 278.424 10.7804 278.424 24.0212C278.424 37.2635 289.159 47.9996 302.399 47.9996C315.643 47.9996 326.376 37.2635 326.376 24.0212C326.376 10.7804 315.643 0.0458984 302.399 0.0458984Z" fill="black"/>
<path d="M18.3802 21.2288C12.7748 19.8584 7.56119 18.686 7.56119 12.82C7.56119 8.38988 11.0782 5.5224 15.7063 5.5224C19.8132 5.5224 23.5908 7.54232 25.3515 10.8001L30.2389 8.12922C27.8913 3.3059 22.6806 0.177734 16.2291 0.177734C7.75489 0.177734 2.21651 5.19618 2.21651 13.2773C2.21651 22.4666 9.45147 24.2928 15.903 25.9195C21.5069 27.29 26.6549 28.4637 26.6549 34.2613C26.6549 39.3468 22.417 41.9537 17.2063 41.9537C11.4044 41.9537 5.54127 38.6927 5.54127 32.5021C5.54127 32.1118 5.54127 31.005 5.67086 30.0278H0.12961C-1.47144e-08 30.938 0 32.1118 0 32.6987C0 42.1457 8.47139 47.2311 17.0097 47.2311C24.9612 47.2311 32.0637 42.9309 32.0637 33.7414C32.0637 24.4865 24.9612 22.7928 18.3802 21.2288Z" fill="black"/>
</svg>
