<svg width="290" height="48" viewBox="0 0 290 48" fill="none" xmlns="http://www.w3.org/2000/svg">
<g clip-path="url(#clip0_603_567)">
<path d="M114.458 6.88482H85.0874V13.3888H95.9313V41.1144H103.626V13.3888H114.47V6.88482M143.183 29.4928C142.591 30.9873 141.627 32.3055 140.384 33.3225C139.14 34.3394 137.658 35.0214 136.077 35.3036C135.49 35.4087 134.896 35.4628 134.3 35.4653C133.689 35.4653 133.089 35.4076 132.512 35.3036C130.933 35.0216 129.452 34.3397 128.21 33.3226C126.968 32.3054 126.007 30.987 125.417 29.4928C124.73 27.7411 124.378 25.8758 124.379 23.9938C124.38 22.1158 124.732 20.2545 125.417 18.5065C126.006 17.0107 126.967 15.6905 128.209 14.6714C129.451 13.6523 130.932 12.9682 132.512 12.6841C133.694 12.4651 134.906 12.4651 136.088 12.6841C137.667 12.9671 139.148 13.6495 140.39 14.6664C141.631 15.6834 142.593 17.0013 143.183 18.4949C144.56 22.0312 144.56 25.9565 143.183 29.4928ZM134.3 5.85667C129.495 5.85667 124.887 7.76815 121.489 11.1706C118.092 14.5731 116.183 19.1878 116.183 23.9996C116.183 28.8114 118.092 33.4262 121.489 36.8286C124.887 40.2311 129.495 42.1426 134.3 42.1426C139.105 42.1426 143.714 40.2311 147.111 36.8286C150.509 33.4262 152.418 28.8114 152.418 23.9996C152.418 19.1878 150.509 14.5731 147.111 11.1706C143.714 7.76815 139.105 5.85667 134.3 5.85667ZM152.527 6.89638H161.595L170.051 21.6025L178.507 6.88482H187.562L173.892 28.4531V41.1144H166.209V28.4531L152.527 6.88482M205.824 35.4653C206.424 35.4653 207.024 35.4076 207.601 35.3036C209.18 35.0216 210.661 34.3397 211.903 33.3226C213.145 32.3054 214.106 30.987 214.695 29.4928C216.081 25.9621 216.081 22.0371 214.695 18.5065C214.106 17.0122 213.145 15.6938 211.903 14.6767C210.661 13.6596 209.18 12.9776 207.601 12.6957C206.418 12.4832 205.207 12.4832 204.024 12.6957C202.447 12.9794 200.968 13.6622 199.729 14.6792C198.489 15.6962 197.529 17.0137 196.941 18.5065C196.255 20.2544 195.903 22.1158 195.903 23.9938C195.903 25.9346 196.272 27.7946 196.941 29.4928C197.53 30.9876 198.491 32.3066 199.733 33.3239C200.975 34.3411 202.456 35.0227 204.036 35.3036C204.626 35.41 205.224 35.4642 205.824 35.4653ZM187.712 23.9938C187.712 19.1836 189.621 14.5703 193.017 11.1689C196.414 7.76754 201.02 5.85667 205.824 5.85667C210.627 5.85667 215.234 7.76754 218.631 11.1689C222.027 14.5703 223.936 19.1836 223.936 23.9938C223.936 28.8041 222.027 33.4174 218.631 36.8188C215.234 40.2202 210.627 42.131 205.824 42.131C201.02 42.131 196.414 40.2202 193.017 36.8188C189.621 33.4174 187.712 28.8041 187.712 23.9938ZM276.39 27.5751L271.36 14.0473L266.319 27.5635H276.39M278.617 33.5592H264.081L261.278 41.0913H252.718L266.561 6.86172H276.136L289.98 41.0913H281.443L278.617 33.5592ZM254.979 6.88482H225.608V13.3888H236.452V41.1144H244.147V13.3888H254.968V6.88482M53.7092 2.35631C48.3551 0.730826 42.784 -0.0639468 37.1895 -0.000373421C31.5951 -0.0639468 26.024 0.730826 20.6699 2.35631C8.44163 6.29566 0.0202942 14.4747 0.0202942 23.9014C0.0202942 37.1751 16.6323 47.9996 37.1895 47.9996C57.7007 47.9996 74.3588 37.2213 74.3588 23.9014C74.3588 14.4747 65.9605 6.29566 53.7092 2.35631ZM37.1895 37.6603C34.121 37.6603 31.6176 31.6531 31.4792 24.0401C33.3019 24.2364 35.2169 24.2827 37.1895 24.2827C39.1507 24.2827 41.0772 24.1902 42.9114 24.0516C42.7615 31.6415 40.2581 37.6603 37.1895 37.6603ZM31.8599 18.1368C32.6674 12.7881 34.7439 9.04511 37.1895 9.04511C39.5891 9.04511 41.654 12.7881 42.5192 18.1253C38.9733 18.4427 35.4064 18.4466 31.8599 18.1368ZM45.7839 17.6978C44.538 9.38013 41.1695 3.37291 37.1895 3.37291C33.2096 3.37291 29.8411 9.33392 28.5952 17.6978C21.0506 16.4964 15.767 13.8509 15.767 10.7202C15.767 6.49204 25.3766 3.07255 37.1895 3.07255C49.0025 3.07255 58.6236 6.49204 58.6236 10.7202C58.6236 13.8393 53.3401 16.5426 45.7955 17.6978H45.7839ZM5.44225 23.035C5.44225 18.9455 7.03423 15.1448 9.76828 11.8292C9.72214 12.0603 9.72214 12.3144 9.72214 12.4993C9.72214 17.6516 17.4052 21.9722 28.1107 23.6126V24.7679C28.1107 34.287 30.7639 42.3736 34.4094 45.1577C18.1781 44.1989 5.45379 34.6682 5.45379 23.035H5.44225ZM39.9813 45.2155C43.6267 42.4198 46.2684 34.3332 46.2684 24.8141V23.6588C56.9739 22.0762 64.657 17.6978 64.657 12.557C64.657 12.3144 64.657 12.0718 64.6108 11.8754C67.3358 14.9778 68.8693 18.95 68.9368 23.0812C68.9368 34.6682 56.2125 44.1989 39.9813 45.204V45.2155Z" fill="black"/>
</g>
<defs>
<clipPath id="clip0_603_567">
<rect width="290" height="48" fill="white"/>
</clipPath>
</defs>
</svg>
