<svg width="103" height="48" viewBox="0 0 103 48" fill="none" xmlns="http://www.w3.org/2000/svg">
<path d="M16.6568 11.0166H16.1891C14.9678 11.0166 14.2092 11.7696 14.2092 12.9815V22.7308C14.2092 27.353 12.7923 29.2384 9.31837 29.2384C5.84454 29.2384 4.42756 27.3444 4.42756 22.7016V12.9815C4.42756 11.7696 3.66889 11.0166 2.44778 11.0166H1.97984C0.758672 11.0166 0 11.7696 0 12.9815V22.7308C0 29.772 3.13524 33.3422 9.31837 33.3422C15.5016 33.3422 18.6366 29.772 18.6366 22.7308V12.9815C18.6366 11.7696 17.8779 11.0166 16.6568 11.0166Z" fill="black"/>
<path d="M24.232 16.9336H23.8444C22.593 16.9336 21.8157 17.7159 21.8157 18.9748V31.302C21.8157 32.5609 22.593 33.3432 23.8444 33.3432H24.232C25.4833 33.3432 26.2606 32.5609 26.2606 31.302V18.9748C26.2606 17.7159 25.4833 16.9336 24.232 16.9336Z" fill="black"/>
<path d="M29.6002 9.302C26.7718 8.84906 24.5398 6.62368 24.0856 3.8036C24.077 3.75036 24.0078 3.75036 23.9993 3.8036C23.545 6.62368 21.3131 8.84906 18.4847 9.302C18.4312 9.31055 18.4312 9.37956 18.4847 9.38812C21.3131 9.84099 23.545 12.0664 23.9993 14.8866C24.0078 14.9398 24.077 14.9398 24.0856 14.8866C24.5398 12.0664 26.7718 9.84099 29.6002 9.38812C29.6536 9.37956 29.6536 9.31055 29.6002 9.302ZM26.8213 9.36662C25.4071 9.59306 24.2912 10.7058 24.064 12.1158C24.0598 12.1424 24.0252 12.1424 24.0208 12.1158C23.7937 10.7058 22.6777 9.59306 21.2635 9.36662C21.2369 9.36231 21.2369 9.3278 21.2635 9.32356C22.6777 9.09706 23.7937 7.98436 24.0208 6.57433C24.0252 6.54771 24.0598 6.54771 24.064 6.57433C24.2912 7.98436 25.4071 9.09706 26.8213 9.32356C26.848 9.3278 26.848 9.36231 26.8213 9.36662Z" fill="black"/>
<path d="M31.2946 4.89914C29.8804 5.12557 28.7644 6.2383 28.5373 7.64837C28.533 7.67495 28.4984 7.67495 28.4941 7.64837C28.267 6.2383 27.151 5.12557 25.7368 4.89914C25.7101 4.89487 25.7101 4.86036 25.7368 4.85609C27.151 4.6296 28.267 3.51692 28.4941 2.10687C28.4984 2.08026 28.533 2.08026 28.5373 2.10687C28.7644 3.51692 29.8804 4.6296 31.2946 4.85609C31.3213 4.86036 31.3213 4.89487 31.2946 4.89914Z" fill="black"/>
<path d="M35.9794 11.0166H31.665C30.4309 11.0166 29.6641 11.7777 29.6641 13.0025V31.3562C29.6641 32.5811 30.4309 33.3422 31.665 33.3422H32.138C33.3722 33.3422 34.1389 32.5811 34.1389 31.3562V27.0117H36.0089C43.4958 27.0117 46.5497 24.6947 46.5497 19.0142C46.5497 13.3336 43.4872 11.0166 35.9794 11.0166ZM42.0158 18.9556C42.0158 21.8779 40.6192 22.864 36.4815 22.864H34.1389V15.0763H36.4815C40.6192 15.0763 42.0158 16.0551 42.0158 18.9556Z" fill="black"/>
<path d="M63.1675 15.1476H62.8129C61.5787 15.1476 60.812 15.9087 60.812 17.1336V17.1362C59.5443 15.6794 57.5811 14.8252 55.3369 14.8252C53.0505 14.8252 50.9832 15.6589 49.5153 17.173C47.9165 18.8217 47.0715 21.2014 47.0715 24.0545C47.0715 26.92 47.9216 29.3134 49.5296 30.9759C51.0058 32.5019 53.0787 33.3423 55.3664 33.3423C57.568 33.3423 59.5459 32.4775 60.8135 31.0418C60.8136 31.0434 60.8137 31.4557 60.8137 31.4572C60.8548 32.623 61.6128 33.3423 62.8129 33.3423H63.1675C64.4018 33.3423 65.1686 32.5815 65.1686 31.3567V17.1336C65.1686 15.9087 64.4018 15.1476 63.1675 15.1476ZM60.9006 24.0545C60.9006 27.4059 59.0971 29.4879 56.1939 29.4879C53.2542 29.4879 51.4281 27.4059 51.4281 24.0545C51.4281 20.7209 53.2316 18.6502 56.1348 18.6502C59.0298 18.6502 60.9006 20.7716 60.9006 24.0545Z" fill="black"/>
<path d="M88.9286 14.8427C86.6118 14.8427 84.9582 15.7586 83.9234 16.9129V13.0038C83.9234 11.7782 83.1564 11.0166 81.9211 11.0166H81.5662C80.3316 11.0166 79.564 11.7782 79.564 13.0038V31.355C79.564 32.5806 80.3316 33.3422 81.5662 33.3422H81.9211C83.1564 33.3422 83.9234 32.5806 83.9234 31.355V23.9896C83.9234 19.2743 86.1894 18.729 87.8937 18.729C90.7562 18.729 91.9233 20.1427 91.9233 23.6083V31.355C91.9233 32.5806 92.6909 33.3422 93.9255 33.3422H94.2804C95.5157 33.3422 96.2827 32.5806 96.2827 31.355V23.344C96.2827 17.6234 93.8775 14.8427 88.9286 14.8427Z" fill="black"/>
<path d="M78.3107 31.0961C78.2495 30.5054 77.8932 29.6615 76.1965 29.6615C74.1907 29.6615 73.2359 29.0411 73.2359 25.5155V18.729H76.2257C77.4589 18.729 78.2251 18.035 78.2251 16.918C78.2251 15.819 77.4589 15.1362 76.2257 15.1362H73.2394V13.0038C73.2394 11.7782 72.4676 11.0166 71.2253 11.0166H70.8683C69.626 11.0166 68.854 11.7782 68.854 13.0038V15.1362H68.1666C67.0794 15.1362 66.4038 15.819 66.4038 16.918C66.4038 18.035 67.1699 18.729 68.4029 18.729H68.854V25.8971C68.854 31.1157 70.8996 33.3422 75.6947 33.3422C75.7023 33.3422 75.71 33.342 75.7176 33.3417C75.9967 33.3415 76.2953 33.3372 76.5994 33.3102C77.2042 33.2534 77.6614 33.0419 77.9586 32.6809C78.2544 32.3217 78.3727 31.6906 78.3107 31.0961Z" fill="black"/>
</svg>
