<svg width="199" height="48" viewBox="0 0 199 48" fill="none" xmlns="http://www.w3.org/2000/svg">
<mask id="mask0_595_364" style="mask-type:luminance" maskUnits="userSpaceOnUse" x="0" y="1" width="199" height="46">
<path d="M199 1.52051H0V46.4797H199V1.52051Z" fill="white"/>
</mask>
<g mask="url(#mask0_595_364)">
<path d="M60.3246 26.29V46.4214H48.308V43.2754C48.308 32.3552 53.6876 26.29 60.3246 26.29ZM41.4872 4.66656V1.52051H29.4706V21.6517C36.1076 21.6517 41.4872 15.5866 41.4872 4.66656Z" fill="url(#paint0_linear_595_364)"/>
<path d="M96.616 1.52051H108.632V46.4797H96.616V1.52051ZM127.467 1.52051H115.45V46.4797H150.283V34.284H127.467V1.52051ZM184.455 1.52051L171.659 22.4633L158.896 1.52051H144.355L164.388 34.4251L157.06 46.4797H171.601L199 1.52051H184.458H184.455ZM67.3906 1.52051C52.9416 1.52051 45.6913 12.0211 39.8654 20.4621C34.0259 28.9169 30.0601 34.1018 22.4045 34.1018C17.0623 34.1018 12.2652 32.2623 12.2652 21.3491V1.52051H0V21.3491C0 30.0551 2.2384 36.6394 6.64708 40.92C10.4493 44.6094 15.7506 46.4797 22.4011 46.4797C36.8502 46.4797 44.1002 35.9757 49.9263 27.5382C55.7659 19.0834 59.7317 13.8984 67.3873 13.8984C73.2882 13.8984 77.5265 18.4198 77.5265 26.3072V46.4797H89.7918V26.3072C89.7918 18.8565 87.5567 12.5609 83.3252 8.09799C79.305 3.85512 73.6458 1.52051 67.3906 1.52051Z" fill="#0C0320"/>
</g>
<defs>
<linearGradient id="paint0_linear_595_364" x1="29.4055" y1="1.52051" x2="60.6545" y2="46.1467" gradientUnits="userSpaceOnUse">
<stop stop-color="#441BFF"/>
<stop offset="1" stop-color="#33098E"/>
</linearGradient>
</defs>
</svg>
