<svg width="191" height="48" viewBox="0 0 191 48" fill="none" xmlns="http://www.w3.org/2000/svg">
<path d="M21.3718 34.8659C25.0007 34.8659 27.9421 37.8053 27.9426 41.4322C27.9426 45.0594 25.001 48 21.3718 48C17.7434 47.9997 14.8027 45.0593 14.8027 41.4322C14.803 37.8056 17.7437 34.8662 21.3718 34.8659ZM6.57067 19.7034C10.1993 19.7036 13.1412 22.6441 13.1413 26.2712C13.1413 29.8987 10.1993 32.839 6.57067 32.839C2.94196 32.839 0 29.8987 0 26.2712C0.000133422 22.6441 2.94203 19.7034 6.57067 19.7034ZM36.1745 0C39.8035 0 42.7453 2.94058 42.7453 6.56781C42.7453 8.53453 41.8791 10.2979 40.5091 11.5016C39.3432 12.8083 37.5207 14.5309 37.5205 16.4195C37.5205 18.3081 39.3431 20.0307 40.5091 21.3375C41.879 22.5411 42.7451 24.3046 42.7453 26.2712C42.7453 29.8984 39.8035 32.839 36.1745 32.839C32.546 32.8389 29.6038 29.8984 29.6038 26.2712C29.604 24.3091 30.4667 22.5495 31.8313 21.3462L31.8271 21.3418C32.9952 20.0347 34.8502 18.3102 34.8502 16.4195C34.85 14.529 32.9952 12.8045 31.8271 11.4973L31.8313 11.4944C30.4664 10.291 29.604 8.53028 29.6038 6.56781C29.6038 2.94069 32.546 0.00018271 36.1745 0ZM6.57067 0C10.1994 0.000207461 13.1413 2.94079 13.1413 6.56781C13.1413 10.1949 10.1995 13.1354 6.57067 13.1356C2.94196 13.1356 0 10.195 0 6.56781C9.29164e-05 2.94066 2.94201 0 6.57067 0Z" fill="black"/>
<path d="M82.8687 25.9598C91.1035 25.9598 92.6568 32.8958 92.8896 35.5449C92.979 36.5624 92.8738 38.3845 92.8738 38.3845C92.8666 38.5119 92.7618 38.6123 92.6358 38.6123L77.3659 38.611C77.3659 43.0286 81.1725 44.0332 82.8687 44.0335C86.7751 44.0335 87.7468 41.3474 87.8511 41.1123C87.8896 41.026 87.9746 40.9718 88.0676 40.9718H92.2274C92.338 40.9719 92.4152 41.0389 92.3893 41.1867C92.2387 41.932 90.6633 47.9996 82.8687 47.9996C77.2487 47.9994 72.8078 44.262 72.8077 36.9898C72.8077 33.0351 74.6059 25.9601 82.8687 25.9598ZM137.462 25.9698C140.221 26.0666 142.475 26.9775 144.174 28.6818C145.907 30.3621 147.085 32.8725 147.212 36.3547C147.212 36.377 147.215 36.3999 147.215 36.4221C147.221 36.6088 147.226 36.7977 147.226 36.9898C147.226 37.1818 147.221 37.3709 147.215 37.5574C147.215 37.5794 147.212 37.6013 147.212 37.6233C147.085 41.1151 145.901 43.6262 144.159 45.3019C142.463 46.9906 140.214 47.893 137.464 47.9896C137.298 47.9962 137.132 47.9996 136.966 47.9996C136.801 47.9996 136.635 47.9962 136.471 47.9896C133.518 47.8883 131.151 46.8735 129.432 44.968C129.364 44.8923 129.299 44.8137 129.233 44.7358C129.22 44.7204 129.206 44.7053 129.193 44.69C129.159 44.6488 129.123 44.6081 129.09 44.5667C127.816 43.0288 126.949 40.9345 126.751 38.2081C126.75 38.1997 126.75 38.1908 126.749 38.1824C126.736 38.0001 126.726 37.8153 126.719 37.6276C126.718 37.6025 126.717 37.5768 126.716 37.5517C126.71 37.367 126.706 37.1799 126.706 36.9898C126.706 36.8012 126.71 36.6154 126.716 36.4322C126.717 36.4018 126.718 36.3708 126.719 36.3405C126.725 36.1642 126.736 35.99 126.748 35.8187C126.75 35.7867 126.753 35.7547 126.755 35.7227C126.768 35.5479 126.783 35.3747 126.802 35.2051C126.804 35.1887 126.806 35.1715 126.808 35.1551C126.828 34.9828 126.85 34.8132 126.875 34.6462C126.877 34.6343 126.878 34.6218 126.88 34.6104C126.906 34.4389 126.935 34.2704 126.967 34.1043C126.971 34.0821 126.976 34.0592 126.98 34.0369C127.013 33.873 127.048 33.7112 127.086 33.5525C127.091 33.5324 127.096 33.5123 127.1 33.4922C127.14 33.3296 127.183 33.1691 127.228 33.0121C127.231 33.0009 127.235 32.9892 127.238 32.9777C127.333 32.6507 127.441 32.3353 127.559 32.0331C127.566 32.0152 127.572 31.9965 127.579 31.9786C127.632 31.845 127.689 31.7147 127.747 31.5858C127.764 31.5475 127.781 31.5079 127.798 31.4697C127.848 31.3618 127.899 31.2557 127.952 31.1515C127.984 31.0871 128.017 31.0229 128.051 30.9595C128.056 30.9491 128.062 30.9382 128.068 30.928C128.445 30.2199 128.899 29.5689 129.432 28.9799C131.152 27.0804 133.519 26.0704 136.473 25.9698C136.637 25.9632 136.802 25.9598 136.966 25.9598C137.132 25.9598 137.297 25.9632 137.462 25.9698ZM180.446 25.9598C188.681 25.9599 190.234 32.896 190.467 35.5449C190.556 36.5624 190.449 38.3845 190.449 38.3845C190.442 38.5116 190.338 38.612 190.213 38.6123L174.943 38.611C174.943 43.0291 178.749 44.0335 180.446 44.0335C184.355 44.0333 185.325 41.3414 185.428 41.1108C185.466 41.0251 185.55 40.9718 185.644 40.9718H189.803C189.914 40.9718 189.993 41.0386 189.966 41.1867C189.815 41.932 188.24 47.9981 180.446 47.9983C174.825 47.9983 170.383 44.2622 170.383 36.9898C170.383 33.0351 172.183 25.9598 180.446 25.9598ZM56.9215 26.2006C57.0132 26.2006 57.0942 26.2618 57.1206 26.3511L62.3827 43.6335C62.5148 44.0302 63.0684 44.0291 63.1997 43.6322L68.4316 26.3526C68.4579 26.2629 68.5388 26.2006 68.6308 26.2006H73.0198C73.1286 26.2006 73.2055 26.3084 73.1719 26.4127L66.4835 47.6757C66.4508 47.7737 66.3606 47.8405 66.2585 47.8405H59.3094C59.2078 47.8405 59.1174 47.7743 59.0844 47.6771L52.3933 26.4127C52.3597 26.3085 52.4354 26.2009 52.5439 26.2006H56.9215ZM98.9471 26.2006C99.0781 26.2006 99.1847 26.3084 99.185 26.4414V28.6244C99.185 29.1606 99.5939 29.19 99.8759 28.8208C100.614 27.8538 101.943 26.2008 104.514 26.2006H106.418C106.549 26.2008 106.655 26.3084 106.656 26.4414V29.9246C106.656 30.0574 106.549 30.1652 106.418 30.1653H104.517C101.361 30.1654 99.4286 31.7447 99.4286 35.0074V47.5983C99.4286 47.7314 99.3221 47.8405 99.1907 47.8405H95.345C95.2137 47.8405 95.107 47.7314 95.107 47.5983V26.4414C95.1073 26.3084 95.2139 26.2006 95.345 26.2006H98.9471ZM112.335 26.2006C112.466 26.2006 112.573 26.3084 112.573 26.4414V47.5983C112.573 47.7314 112.466 47.8405 112.335 47.8405H108.509C108.378 47.8405 108.271 47.7314 108.271 47.5983V26.4414C108.272 26.3084 108.378 26.2006 108.509 26.2006H112.335ZM126.751 18.2453C126.882 18.2456 126.987 18.3531 126.987 18.4861V21.9693C126.987 22.1018 126.881 22.2097 126.751 22.21H123.869C123.342 22.2101 122.945 22.3649 122.654 22.6831C122.358 23.0067 122.214 23.4479 122.214 24.0305V26.2006H126.504C126.635 26.2006 126.742 26.3085 126.742 26.4414V29.6078C126.742 29.7408 126.635 29.8486 126.504 29.8486L122.214 29.853V47.3991L122.213 47.4062V47.5983C122.213 47.7313 122.107 47.8403 121.976 47.8405H118.129C117.998 47.8402 117.892 47.7313 117.892 47.5983V29.8543L114.39 29.8486C114.259 29.8486 114.153 29.7408 114.153 29.6078V26.4414C114.153 26.3085 114.259 26.2006 114.39 26.2006H117.892V23.331C117.892 19.9566 119.804 18.2453 123.574 18.2453H126.751ZM159.822 25.9627C165.507 25.9686 168.293 30.2181 168.293 35.4187V47.5983C168.293 47.7317 168.187 47.8405 168.055 47.8405H164.21C164.079 47.8405 163.972 47.7317 163.972 47.5983V34.8826C163.972 33.1678 163.01 29.9246 158.843 29.9246C155.215 29.9247 153.754 32.5954 153.754 35.0332V47.5983C153.754 47.7314 153.649 47.8402 153.518 47.8405H149.671C149.539 47.8405 149.433 47.7317 149.433 47.5983V26.4414C149.433 26.3082 149.539 26.2006 149.671 26.2006H153.273C153.404 26.2009 153.509 26.3085 153.509 26.4414V28.5729C153.509 29.1779 154.004 29.2309 154.265 28.8682C155.026 27.8099 157.138 25.9601 159.822 25.9627ZM136.617 29.9331C136.545 29.9366 136.475 29.9419 136.404 29.9475C136.367 29.9507 136.327 29.9526 136.29 29.9561C134.79 30.1015 133.564 30.7438 132.64 31.8697C131.777 32.9224 131.257 34.2487 131.089 35.8229C131.088 35.8357 131.087 35.8489 131.085 35.8617C131.076 35.9534 131.068 36.0465 131.061 36.1398C131.058 36.1731 131.056 36.2067 131.054 36.2401C131.048 36.3256 131.043 36.4125 131.039 36.4996C131.038 36.5374 131.036 36.5749 131.035 36.6127C131.031 36.7371 131.029 36.8627 131.029 36.9898C131.029 37.1188 131.031 37.2462 131.035 37.3725C131.035 37.3849 131.036 37.3976 131.036 37.4098C131.105 39.3135 131.644 40.8897 132.64 42.0983C133.567 43.2218 134.797 43.861 136.303 44.0034C136.306 44.0038 136.31 44.0046 136.313 44.0049C136.414 44.0142 136.516 44.0216 136.62 44.0263C136.733 44.0316 136.848 44.0335 136.965 44.0335C137.084 44.0335 137.201 44.0316 137.316 44.0263C137.389 44.0229 137.46 44.0162 137.531 44.0106C137.569 44.0076 137.607 44.0054 137.644 44.0019C139.155 43.8582 140.383 43.223 141.301 42.1085C142.221 40.9912 142.749 39.5494 142.873 37.8155C142.875 37.7933 142.876 37.7716 142.878 37.7494C142.884 37.6572 142.888 37.5627 142.892 37.4685C142.893 37.4356 142.895 37.4029 142.896 37.3695C142.9 37.2443 142.902 37.118 142.902 36.9898C142.902 36.8643 142.9 36.74 142.896 36.6171C142.894 36.5495 142.891 36.4821 142.888 36.415C142.885 36.3613 142.883 36.3061 142.879 36.253C142.874 36.1765 142.867 36.1008 142.861 36.025C142.857 35.9813 142.855 35.9368 142.85 35.8932C142.844 35.8242 142.834 35.7564 142.826 35.6882C142.82 35.6352 142.814 35.5815 142.807 35.5291C142.801 35.479 142.793 35.4282 142.786 35.3786C142.775 35.3023 142.762 35.2258 142.749 35.1507C142.745 35.1311 142.742 35.1115 142.739 35.092C142.506 33.8258 142.025 32.743 141.301 31.8596C140.514 30.8993 139.498 30.2926 138.274 30.0479C138.262 30.0455 138.249 30.0445 138.238 30.0422C138.152 30.0254 138.065 30.0109 137.977 29.9977C137.939 29.9924 137.901 29.987 137.862 29.9818C137.795 29.9732 137.726 29.9642 137.657 29.9575C137.595 29.9514 137.531 29.9476 137.467 29.9432C137.418 29.9397 137.37 29.9356 137.321 29.9331C137.204 29.9275 137.085 29.9246 136.965 29.9246C136.847 29.9246 136.731 29.9278 136.617 29.9331ZM82.8687 29.9246C78.9206 29.9247 77.3659 33.451 77.3659 35.0661H88.2725C88.2724 33.4499 87.1924 29.9246 82.8687 29.9246ZM180.446 29.9246C176.498 29.9246 174.943 33.451 174.943 35.0661H185.848C185.848 33.4499 184.769 29.9247 180.446 29.9246ZM110.423 18.2324C111.966 18.2326 113.218 19.5018 113.218 21.0676C113.218 22.6336 111.966 23.9041 110.423 23.9043C108.879 23.9043 107.628 22.6338 107.628 21.0676C107.628 19.5016 108.879 18.2324 110.423 18.2324Z" fill="black"/>
</svg>
